# MagicaVoxel @ Ephtracy

# group
g Harbor

# material
mtllib Harbor.mtl
usemtl palette

# normals
vn -1 0 0
vn 1 0 0
vn 0 0 1
vn 0 0 -1
vn 0 -1 0
vn 0 1 0

# texcoords
vt 0.146484 0.5
vt 0.974609 0.5
vt 0.978516 0.5
vt 0.982422 0.5

# verts
v -32 0 32
v -32 0 -32
v -32 14 32
v -32 14 -32
v -11 14 -26
v -11 14 -29
v -11 19 -26
v -11 19 -29
v -11 21 -26
v -11 21 -29
v 20 14 -26
v 20 14 -29
v 20 19 -26
v 20 19 -29
v 20 21 -26
v 20 21 -29
v -8 14 -26
v -8 14 -29
v -8 19 -26
v -8 19 -29
v -8 21 -26
v -8 21 -29
v 23 14 -26
v 23 14 -29
v 23 19 -26
v 23 19 -29
v 23 21 -26
v 23 21 -29
v 32 0 32
v 32 0 -32
v 32 14 32
v 32 14 -32
v -32 0 32
v -32 14 32
v 32 0 32
v 32 14 32
v -11 14 -26
v -11 19 -26
v -11 21 -26
v -8 14 -26
v -8 19 -26
v -8 21 -26
v 20 14 -26
v 20 19 -26
v 20 21 -26
v 23 14 -26
v 23 19 -26
v 23 21 -26
v -11 14 -29
v -11 19 -29
v -11 21 -29
v -8 14 -29
v -8 19 -29
v -8 21 -29
v 20 14 -29
v 20 19 -29
v 20 21 -29
v 23 14 -29
v 23 19 -29
v 23 21 -29
v -32 0 -32
v -32 14 -32
v 32 0 -32
v 32 14 -32
v -32 0 32
v 32 0 32
v -32 0 -32
v 32 0 -32
v -32 14 32
v 32 14 32
v -17 14 31
v -16 14 31
v -28 14 30
v -27 14 30
v -17 14 30
v -16 14 30
v 21 14 30
v 22 14 30
v -28 14 29
v -27 14 29
v 21 14 29
v 22 14 29
v 7 14 28
v 8 14 28
v 7 14 26
v 8 14 26
v 15 14 26
v 16 14 26
v -13 14 24
v -11 14 24
v 15 14 24
v 16 14 24
v -1 14 23
v 0 14 23
v -29 14 22
v -28 14 22
v -1 14 22
v 0 14 22
v 13 14 21
v 15 14 21
v -20 14 20
v -19 14 20
v -20 14 19
v -19 14 19
v -13 14 19
v -11 14 19
v 13 14 19
v 15 14 19
v 24 14 18
v 26 14 18
v -15 14 15
v -14 14 15
v -1 14 15
v 0 14 15
v -15 14 14
v -14 14 14
v -1 14 14
v 0 14 14
v 4 14 12
v 5 14 12
v -29 14 11
v -28 14 11
v 4 14 10
v 5 14 10
v 24 14 6
v 26 14 6
v -15 14 5
v -12 14 5
v 18 14 3
v 19 14 3
v 18 14 2
v 19 14 2
v -23 14 1
v -22 14 1
v -15 14 1
v -12 14 1
v 12 14 1
v 13 14 1
v -23 14 -0
v -22 14 -0
v 12 14 -0
v 13 14 -0
v 16 14 -2
v 17 14 -2
v 25 14 -2
v 27 14 -2
v -2 14 -3
v -1 14 -3
v 16 14 -3
v 17 14 -3
v -2 14 -4
v -1 14 -4
v 25 14 -4
v 27 14 -4
v -26 14 -10
v -25 14 -10
v 29 14 -10
v 31 14 -10
v -26 14 -11
v -25 14 -11
v 29 14 -12
v 31 14 -12
v -15 14 -16
v -12 14 -16
v 19 14 -17
v 20 14 -17
v 7 14 -18
v 8 14 -18
v 19 14 -18
v 20 14 -18
v 7 14 -19
v 8 14 -19
v -30 14 -21
v -29 14 -21
v -22 14 -21
v -21 14 -21
v -2 14 -21
v -1 14 -21
v -30 14 -22
v -29 14 -22
v -22 14 -22
v -21 14 -22
v -2 14 -22
v -1 14 -22
v -15 14 -26
v -12 14 -26
v -11 14 -26
v -8 14 -26
v 20 14 -26
v 23 14 -26
v 27 14 -27
v 28 14 -27
v 27 14 -28
v 28 14 -28
v -11 14 -29
v -8 14 -29
v 20 14 -29
v 23 14 -29
v -32 14 -32
v 32 14 -32
v -11 21 -26
v -8 21 -26
v 20 21 -26
v 23 21 -26
v -11 21 -29
v -8 21 -29
v 20 21 -29
v 23 21 -29

# faces
f 3/2/1 2/2/1 1/2/1
f 4/2/1 2/2/1 3/2/1
f 7/1/1 6/1/1 5/1/1
f 8/1/1 6/1/1 7/1/1
f 9/4/1 8/4/1 7/4/1
f 10/4/1 8/4/1 9/4/1
f 13/1/1 12/1/1 11/1/1
f 14/1/1 12/1/1 13/1/1
f 15/4/1 14/4/1 13/4/1
f 16/4/1 14/4/1 15/4/1
f 17/1/2 18/1/2 19/1/2
f 19/1/2 18/1/2 20/1/2
f 19/4/2 20/4/2 21/4/2
f 21/4/2 20/4/2 22/4/2
f 23/1/2 24/1/2 25/1/2
f 25/1/2 24/1/2 26/1/2
f 25/4/2 26/4/2 27/4/2
f 27/4/2 26/4/2 28/4/2
f 29/2/2 30/2/2 31/2/2
f 31/2/2 30/2/2 32/2/2
f 35/2/3 34/2/3 33/2/3
f 36/2/3 34/2/3 35/2/3
f 40/1/3 38/1/3 37/1/3
f 41/4/3 39/4/3 38/4/3
f 41/1/3 38/1/3 40/1/3
f 42/4/3 39/4/3 41/4/3
f 46/1/3 44/1/3 43/1/3
f 47/4/3 45/4/3 44/4/3
f 47/1/3 44/1/3 46/1/3
f 48/4/3 45/4/3 47/4/3
f 49/1/4 50/1/4 52/1/4
f 50/4/4 51/4/4 53/4/4
f 52/1/4 50/1/4 53/1/4
f 53/4/4 51/4/4 54/4/4
f 55/1/4 56/1/4 58/1/4
f 56/4/4 57/4/4 59/4/4
f 58/1/4 56/1/4 59/1/4
f 59/4/4 57/4/4 60/4/4
f 61/2/4 62/2/4 63/2/4
f 63/2/4 62/2/4 64/2/4
f 67/2/5 66/2/5 65/2/5
f 68/2/5 66/2/5 67/2/5
f 69/2/6 70/2/6 71/2/6
f 71/2/6 70/2/6 72/2/6
f 69/2/6 71/2/6 73/2/6
f 73/2/6 71/2/6 74/2/6
f 71/4/6 72/4/6 75/4/6
f 74/2/6 71/2/6 75/2/6
f 72/2/6 70/2/6 76/2/6
f 75/4/6 72/4/6 76/4/6
f 76/2/6 70/2/6 77/2/6
f 77/2/6 70/2/6 78/2/6
f 73/4/6 74/4/6 79/4/6
f 69/2/6 73/2/6 79/2/6
f 74/2/6 75/2/6 80/2/6
f 79/4/6 74/4/6 80/4/6
f 75/2/6 76/2/6 80/2/6
f 76/2/6 77/2/6 80/2/6
f 77/4/6 78/4/6 81/4/6
f 80/2/6 77/2/6 81/2/6
f 78/2/6 70/2/6 82/2/6
f 81/4/6 78/4/6 82/4/6
f 80/2/6 81/2/6 83/2/6
f 79/2/6 80/2/6 83/2/6
f 81/2/6 82/2/6 83/2/6
f 83/2/6 82/2/6 84/2/6
f 79/2/6 83/2/6 85/2/6
f 83/4/6 84/4/6 85/4/6
f 84/2/6 82/2/6 86/2/6
f 85/4/6 84/4/6 86/4/6
f 86/2/6 82/2/6 87/2/6
f 87/2/6 82/2/6 88/2/6
f 79/2/6 85/2/6 89/2/6
f 85/2/6 86/2/6 89/2/6
f 86/2/6 87/2/6 89/2/6
f 89/2/6 87/2/6 90/2/6
f 87/3/6 88/3/6 91/3/6
f 90/2/6 87/2/6 91/2/6
f 88/2/6 82/2/6 92/2/6
f 91/3/6 88/3/6 92/3/6
f 90/2/6 91/2/6 93/2/6
f 91/2/6 92/2/6 93/2/6
f 93/2/6 92/2/6 94/2/6
f 69/2/6 79/2/6 95/2/6
f 79/2/6 89/2/6 95/2/6
f 95/2/6 89/2/6 96/2/6
f 93/3/6 94/3/6 97/3/6
f 90/2/6 93/2/6 97/2/6
f 94/2/6 92/2/6 98/2/6
f 97/3/6 94/3/6 98/3/6
f 97/2/6 98/2/6 99/2/6
f 98/2/6 92/2/6 99/2/6
f 99/2/6 92/2/6 100/2/6
f 96/2/6 89/2/6 101/2/6
f 101/2/6 89/2/6 102/2/6
f 96/2/6 101/2/6 103/2/6
f 101/4/6 102/4/6 103/4/6
f 102/2/6 89/2/6 104/2/6
f 103/4/6 102/4/6 104/4/6
f 89/3/6 90/3/6 105/3/6
f 104/2/6 89/2/6 105/2/6
f 90/2/6 97/2/6 106/2/6
f 105/3/6 90/3/6 106/3/6
f 97/2/6 99/2/6 106/2/6
f 99/4/6 100/4/6 107/4/6
f 106/2/6 99/2/6 107/2/6
f 100/2/6 92/2/6 108/2/6
f 107/4/6 100/4/6 108/4/6
f 104/2/6 105/2/6 109/2/6
f 108/2/6 92/2/6 109/2/6
f 107/2/6 108/2/6 109/2/6
f 105/2/6 106/2/6 109/2/6
f 82/2/6 70/2/6 109/2/6
f 92/2/6 82/2/6 109/2/6
f 103/2/6 104/2/6 109/2/6
f 106/2/6 107/2/6 109/2/6
f 109/2/6 70/2/6 110/2/6
f 103/2/6 109/2/6 111/2/6
f 111/2/6 109/2/6 112/2/6
f 112/2/6 109/2/6 113/2/6
f 113/2/6 109/2/6 114/2/6
f 103/2/6 111/2/6 115/2/6
f 111/3/6 112/3/6 115/3/6
f 112/2/6 113/2/6 116/2/6
f 115/3/6 112/3/6 116/3/6
f 113/3/6 114/3/6 117/3/6
f 116/2/6 113/2/6 117/2/6
f 114/2/6 109/2/6 118/2/6
f 117/3/6 114/3/6 118/3/6
f 116/2/6 117/2/6 119/2/6
f 118/2/6 109/2/6 119/2/6
f 117/2/6 118/2/6 119/2/6
f 115/2/6 116/2/6 119/2/6
f 119/2/6 109/2/6 120/2/6
f 69/2/6 95/2/6 121/2/6
f 95/3/6 96/3/6 121/3/6
f 96/2/6 103/2/6 122/2/6
f 121/3/6 96/3/6 122/3/6
f 103/2/6 115/2/6 122/2/6
f 115/2/6 119/2/6 122/2/6
f 119/4/6 120/4/6 123/4/6
f 122/2/6 119/2/6 123/2/6
f 121/2/6 122/2/6 123/2/6
f 120/2/6 109/2/6 124/2/6
f 123/4/6 120/4/6 124/4/6
f 109/3/6 110/3/6 125/3/6
f 124/2/6 109/2/6 125/2/6
f 123/2/6 124/2/6 125/2/6
f 110/2/6 70/2/6 126/2/6
f 125/3/6 110/3/6 126/3/6
f 121/2/6 123/2/6 127/2/6
f 123/2/6 125/2/6 127/2/6
f 125/2/6 126/2/6 127/2/6
f 127/2/6 126/2/6 128/2/6
f 128/2/6 126/2/6 129/2/6
f 129/2/6 126/2/6 130/2/6
f 128/2/6 129/2/6 131/2/6
f 129/4/6 130/4/6 131/4/6
f 130/2/6 126/2/6 132/2/6
f 131/4/6 130/4/6 132/4/6
f 121/2/6 127/2/6 133/2/6
f 133/2/6 127/2/6 134/2/6
f 127/4/6 128/4/6 135/4/6
f 134/2/6 127/2/6 135/2/6
f 128/2/6 131/2/6 136/2/6
f 135/4/6 128/4/6 136/4/6
f 131/2/6 132/2/6 136/2/6
f 136/2/6 132/2/6 137/2/6
f 137/2/6 132/2/6 138/2/6
f 133/3/6 134/3/6 139/3/6
f 121/2/6 133/2/6 139/2/6
f 134/2/6 135/2/6 140/2/6
f 139/3/6 134/3/6 140/3/6
f 135/2/6 136/2/6 140/2/6
f 136/2/6 137/2/6 140/2/6
f 137/4/6 138/4/6 141/4/6
f 140/2/6 137/2/6 141/2/6
f 138/2/6 132/2/6 142/2/6
f 141/4/6 138/4/6 142/4/6
f 140/2/6 141/2/6 143/2/6
f 142/2/6 132/2/6 143/2/6
f 141/2/6 142/2/6 143/2/6
f 139/2/6 140/2/6 143/2/6
f 143/2/6 132/2/6 144/2/6
f 132/2/6 126/2/6 145/2/6
f 144/2/6 132/2/6 145/2/6
f 126/2/6 70/2/6 146/2/6
f 145/2/6 126/2/6 146/2/6
f 139/2/6 143/2/6 147/2/6
f 147/2/6 143/2/6 148/2/6
f 143/3/6 144/3/6 149/3/6
f 148/2/6 143/2/6 149/2/6
f 144/2/6 145/2/6 150/2/6
f 149/3/6 144/3/6 150/3/6
f 147/3/6 148/3/6 151/3/6
f 139/2/6 147/2/6 151/2/6
f 148/2/6 149/2/6 152/2/6
f 151/3/6 148/3/6 152/3/6
f 149/2/6 150/2/6 152/2/6
f 150/2/6 145/2/6 153/2/6
f 152/2/6 150/2/6 153/2/6
f 145/4/6 146/4/6 153/4/6
f 146/2/6 70/2/6 154/2/6
f 153/4/6 146/4/6 154/4/6
f 139/2/6 151/2/6 155/2/6
f 151/2/6 152/2/6 155/2/6
f 153/2/6 154/2/6 155/2/6
f 152/2/6 153/2/6 155/2/6
f 121/2/6 139/2/6 155/2/6
f 155/2/6 154/2/6 156/2/6
f 154/2/6 70/2/6 157/2/6
f 156/2/6 154/2/6 157/2/6
f 157/2/6 70/2/6 158/2/6
f 155/4/6 156/4/6 159/4/6
f 121/2/6 155/2/6 159/2/6
f 156/2/6 157/2/6 160/2/6
f 159/4/6 156/4/6 160/4/6
f 157/4/6 158/4/6 161/4/6
f 160/2/6 157/2/6 161/2/6
f 159/2/6 160/2/6 161/2/6
f 158/2/6 70/2/6 162/2/6
f 161/4/6 158/4/6 162/4/6
f 159/2/6 161/2/6 163/2/6
f 161/2/6 162/2/6 163/2/6
f 163/2/6 162/2/6 164/2/6
f 164/2/6 162/2/6 165/2/6
f 165/2/6 162/2/6 166/2/6
f 164/2/6 165/2/6 167/2/6
f 167/2/6 165/2/6 168/2/6
f 165/4/6 166/4/6 169/4/6
f 168/2/6 165/2/6 169/2/6
f 166/2/6 162/2/6 170/2/6
f 169/4/6 166/4/6 170/4/6
f 167/3/6 168/3/6 171/3/6
f 164/2/6 167/2/6 171/2/6
f 168/2/6 169/2/6 172/2/6
f 171/3/6 168/3/6 172/3/6
f 169/2/6 170/2/6 172/2/6
f 69/2/6 121/2/6 173/2/6
f 121/2/6 159/2/6 173/2/6
f 159/2/6 163/2/6 173/2/6
f 173/2/6 163/2/6 174/2/6
f 174/2/6 163/2/6 175/2/6
f 175/2/6 163/2/6 176/2/6
f 171/2/6 172/2/6 177/2/6
f 164/2/6 171/2/6 177/2/6
f 177/2/6 172/2/6 178/2/6
f 69/2/6 173/2/6 179/2/6
f 173/4/6 174/4/6 179/4/6
f 174/2/6 175/2/6 180/2/6
f 179/4/6 174/4/6 180/4/6
f 175/3/6 176/3/6 181/3/6
f 180/2/6 175/2/6 181/2/6
f 176/2/6 163/2/6 182/2/6
f 181/3/6 176/3/6 182/3/6
f 177/4/6 178/4/6 183/4/6
f 164/2/6 177/2/6 183/2/6
f 178/2/6 172/2/6 184/2/6
f 183/4/6 178/4/6 184/4/6
f 180/2/6 181/2/6 185/2/6
f 163/4/6 164/4/6 185/4/6
f 179/2/6 180/2/6 185/2/6
f 181/2/6 182/2/6 185/2/6
f 182/2/6 163/2/6 185/2/6
f 183/2/6 184/2/6 186/2/6
f 185/4/6 164/4/6 186/4/6
f 164/2/6 183/2/6 186/2/6
f 186/2/6 184/2/6 187/2/6
f 187/2/6 184/2/6 188/2/6
f 172/2/6 170/2/6 189/2/6
f 188/2/6 184/2/6 189/2/6
f 184/2/6 172/2/6 189/2/6
f 170/2/6 162/2/6 189/2/6
f 189/2/6 162/2/6 190/2/6
f 190/2/6 162/2/6 191/2/6
f 191/2/6 162/2/6 192/2/6
f 190/2/6 191/2/6 193/2/6
f 191/4/6 192/4/6 193/4/6
f 192/2/6 162/2/6 194/2/6
f 193/4/6 192/4/6 194/4/6
f 186/2/6 187/2/6 195/2/6
f 185/2/6 186/2/6 195/2/6
f 188/2/6 189/2/6 196/2/6
f 196/2/6 189/2/6 197/2/6
f 193/2/6 194/2/6 198/2/6
f 190/2/6 193/2/6 198/2/6
f 185/2/6 195/2/6 199/2/6
f 197/2/6 198/2/6 199/2/6
f 196/2/6 197/2/6 199/2/6
f 179/2/6 185/2/6 199/2/6
f 69/2/6 179/2/6 199/2/6
f 195/2/6 196/2/6 199/2/6
f 198/2/6 194/2/6 200/2/6
f 199/2/6 198/2/6 200/2/6
f 162/2/6 70/2/6 200/2/6
f 194/2/6 162/2/6 200/2/6
f 201/4/6 202/4/6 205/4/6
f 205/4/6 202/4/6 206/4/6
f 203/4/6 204/4/6 207/4/6
f 207/4/6 204/4/6 208/4/6
