# MagicaVoxel @ Ephtracy

# group
g heco_small_blade

# material
mtllib heco_small_blade.mtl
usemtl palette

# normals
vn -1 0 0
vn 1 0 0
vn 0 0 1
vn 0 0 -1
vn 0 -1 0
vn 0 1 0

# texcoords
vt 0.771484 0.5
vt 0.994141 0.5

# verts
v -5 1 1
v -5 1 -0
v -5 2 1
v -5 2 -0
v -1 0 1
v -1 0 -0
v -1 1 5
v -1 1 3
v -1 1 1
v -1 1 -0
v -1 1 -2
v -1 1 -4
v -1 2 5
v -1 2 3
v -1 2 1
v -1 2 -0
v -1 2 -2
v -1 2 -4
v -1 3 1
v -1 3 -0
v 0 0 1
v 0 0 -0
v 0 1 5
v 0 1 3
v 0 1 1
v 0 1 -0
v 0 1 -2
v 0 1 -4
v 0 2 5
v 0 2 3
v 0 2 1
v 0 2 -0
v 0 2 -2
v 0 2 -4
v 0 3 1
v 0 3 -0
v 4 1 1
v 4 1 -0
v 4 2 1
v 4 2 -0
v -1 1 5
v -1 2 5
v 0 1 5
v 0 2 5
v -5 1 1
v -5 2 1
v -3 1 1
v -3 2 1
v -1 0 1
v -1 1 1
v -1 2 1
v -1 3 1
v 0 0 1
v 0 1 1
v 0 2 1
v 0 3 1
v 2 1 1
v 2 2 1
v 4 1 1
v 4 2 1
v -5 1 -0
v -5 2 -0
v -3 1 -0
v -3 2 -0
v -1 0 -0
v -1 1 -0
v -1 2 -0
v -1 3 -0
v 0 0 -0
v 0 1 -0
v 0 2 -0
v 0 3 -0
v 2 1 -0
v 2 2 -0
v 4 1 -0
v 4 2 -0
v -1 1 -4
v -1 2 -4
v 0 1 -4
v 0 2 -4
v -1 0 1
v 0 0 1
v -1 0 -0
v 0 0 -0
v -1 1 5
v 0 1 5
v -1 1 3
v 0 1 3
v -5 1 1
v -3 1 1
v -1 1 1
v 0 1 1
v 2 1 1
v 4 1 1
v -5 1 -0
v -3 1 -0
v -1 1 -0
v 0 1 -0
v 2 1 -0
v 4 1 -0
v -1 1 -2
v 0 1 -2
v -1 1 -4
v 0 1 -4
v -1 2 5
v 0 2 5
v -1 2 3
v 0 2 3
v -5 2 1
v -3 2 1
v -1 2 1
v 0 2 1
v 2 2 1
v 4 2 1
v -5 2 -0
v -3 2 -0
v -1 2 -0
v 0 2 -0
v 2 2 -0
v 4 2 -0
v -1 2 -2
v 0 2 -2
v -1 2 -4
v 0 2 -4
v -1 3 1
v 0 3 1
v -1 3 -0
v 0 3 -0

# faces
f 3/1/1 2/1/1 1/1/1
f 4/1/1 2/1/1 3/1/1
f 9/2/1 6/2/1 5/2/1
f 10/2/1 6/2/1 9/2/1
f 13/1/1 8/1/1 7/1/1
f 14/2/1 9/2/1 8/2/1
f 14/1/1 8/1/1 13/1/1
f 15/2/1 9/2/1 14/2/1
f 16/2/1 11/2/1 10/2/1
f 17/1/1 12/1/1 11/1/1
f 17/2/1 11/2/1 16/2/1
f 18/1/1 12/1/1 17/1/1
f 19/1/1 16/1/1 15/1/1
f 20/1/1 16/1/1 19/1/1
f 21/2/2 22/2/2 25/2/2
f 25/2/2 22/2/2 26/2/2
f 23/1/2 24/1/2 29/1/2
f 24/2/2 25/2/2 30/2/2
f 29/1/2 24/1/2 30/1/2
f 30/2/2 25/2/2 31/2/2
f 26/2/2 27/2/2 32/2/2
f 27/1/2 28/1/2 33/1/2
f 32/2/2 27/2/2 33/2/2
f 33/1/2 28/1/2 34/1/2
f 31/1/2 32/1/2 35/1/2
f 35/1/2 32/1/2 36/1/2
f 37/1/2 38/1/2 39/1/2
f 39/1/2 38/1/2 40/1/2
f 43/1/3 42/1/3 41/1/3
f 44/1/3 42/1/3 43/1/3
f 47/1/3 46/1/3 45/1/3
f 48/1/3 46/1/3 47/1/3
f 50/2/3 48/2/3 47/2/3
f 51/2/3 48/2/3 50/2/3
f 53/2/3 50/2/3 49/2/3
f 54/2/3 50/2/3 53/2/3
f 55/1/3 52/1/3 51/1/3
f 56/1/3 52/1/3 55/1/3
f 57/2/3 55/2/3 54/2/3
f 58/2/3 55/2/3 57/2/3
f 59/1/3 58/1/3 57/1/3
f 60/1/3 58/1/3 59/1/3
f 61/1/4 62/1/4 63/1/4
f 63/1/4 62/1/4 64/1/4
f 63/2/4 64/2/4 66/2/4
f 66/2/4 64/2/4 67/2/4
f 65/2/4 66/2/4 69/2/4
f 69/2/4 66/2/4 70/2/4
f 67/1/4 68/1/4 71/1/4
f 71/1/4 68/1/4 72/1/4
f 70/2/4 71/2/4 73/2/4
f 73/2/4 71/2/4 74/2/4
f 73/1/4 74/1/4 75/1/4
f 75/1/4 74/1/4 76/1/4
f 77/1/4 78/1/4 79/1/4
f 79/1/4 78/1/4 80/1/4
f 83/2/5 82/2/5 81/2/5
f 84/2/5 82/2/5 83/2/5
f 87/1/5 86/1/5 85/1/5
f 88/1/5 86/1/5 87/1/5
f 91/2/5 88/2/5 87/2/5
f 92/2/5 88/2/5 91/2/5
f 95/1/5 90/1/5 89/1/5
f 96/2/5 91/2/5 90/2/5
f 96/1/5 90/1/5 95/1/5
f 97/2/5 91/2/5 96/2/5
f 98/2/5 93/2/5 92/2/5
f 99/1/5 94/1/5 93/1/5
f 99/2/5 93/2/5 98/2/5
f 100/1/5 94/1/5 99/1/5
f 101/2/5 98/2/5 97/2/5
f 102/2/5 98/2/5 101/2/5
f 103/1/5 102/1/5 101/1/5
f 104/1/5 102/1/5 103/1/5
f 105/1/6 106/1/6 107/1/6
f 107/1/6 106/1/6 108/1/6
f 107/2/6 108/2/6 111/2/6
f 111/2/6 108/2/6 112/2/6
f 109/1/6 110/1/6 115/1/6
f 110/2/6 111/2/6 116/2/6
f 115/1/6 110/1/6 116/1/6
f 116/2/6 111/2/6 117/2/6
f 112/2/6 113/2/6 118/2/6
f 113/1/6 114/1/6 119/1/6
f 118/2/6 113/2/6 119/2/6
f 119/1/6 114/1/6 120/1/6
f 117/2/6 118/2/6 121/2/6
f 121/2/6 118/2/6 122/2/6
f 121/1/6 122/1/6 123/1/6
f 123/1/6 122/1/6 124/1/6
f 125/1/6 126/1/6 127/1/6
f 127/1/6 126/1/6 128/1/6
