# MagicaVoxel @ Ephtracy

# group
g Human

# material
mtllib Human.mtl
usemtl palette

# normals
vn -1 0 0
vn 1 0 0
vn 0 0 1
vn 0 0 -1
vn 0 -1 0
vn 0 1 0

# texcoords
vt 0.00195313 0.5
vt 0.123047 0.5
vt 0.310547 0.5
vt 0.466797 0.5
vt 0.556641 0.5
vt 0.759766 0.5
vt 0.791016 0.5
vt 0.798828 0.5

# verts
v -4 0 4
v -4 0 2
v -4 0 -0
v -4 0 -2
v -4 1 4
v -4 1 2
v -4 1 -0
v -4 1 -2
v -2 4 4
v -2 4 2
v -2 4 -0
v -2 4 -2
v -2 7 2
v -2 7 -0
v -2 9 4
v -2 9 -2
v -2 14 4
v -2 14 -2
v -2 15 3
v -2 15 -1
v -2 16 4
v -2 16 3
v -2 16 2
v -2 16 -0
v -2 16 -1
v -2 16 -2
v -2 17 2
v -2 17 -0
v -2 18 4
v -2 18 3
v -2 18 2
v -2 18 -0
v -2 18 -1
v -2 18 -2
v -2 20 4
v -2 20 3
v -2 20 2
v -2 20 -0
v -2 20 -1
v -2 20 -2
v -2 21 4
v -2 21 3
v -2 21 -1
v -2 21 -2
v -2 22 3
v -2 22 -1
v -1 1 4
v -1 1 2
v -1 1 -0
v -1 1 -2
v -1 4 4
v -1 4 2
v -1 4 -0
v -1 4 -2
v -1 6 2
v -1 6 -0
v -1 7 7
v -1 7 6
v -1 7 5
v -1 7 4
v -1 7 2
v -1 7 -0
v -1 7 -2
v -1 7 -3
v -1 7 -4
v -1 7 -5
v -1 8 6
v -1 8 5
v -1 8 -3
v -1 8 -4
v -1 9 7
v -1 9 6
v -1 9 4
v -1 9 -2
v -1 9 -4
v -1 9 -5
v -1 13 6
v -1 13 5
v -1 13 -3
v -1 13 -4
v -1 14 5
v -1 14 4
v -1 14 3
v -1 14 -1
v -1 14 -2
v -1 14 -3
v -1 15 3
v -1 15 -1
v 0 4 4
v 0 4 2
v 0 4 -0
v 0 4 -2
v 0 6 2
v 0 6 -0
v 0 7 4
v 0 7 -2
v 1 0 4
v 1 0 2
v 1 0 -0
v 1 0 -2
v 1 1 4
v 1 1 2
v 1 1 -0
v 1 1 -2
v 1 4 4
v 1 4 2
v 1 4 -0
v 1 4 -2
v 1 7 7
v 1 7 6
v 1 7 5
v 1 7 4
v 1 7 -2
v 1 7 -3
v 1 7 -4
v 1 7 -5
v 1 8 6
v 1 8 5
v 1 8 -3
v 1 8 -4
v 1 9 7
v 1 9 6
v 1 9 4
v 1 9 -2
v 1 9 -4
v 1 9 -5
v 1 13 6
v 1 13 5
v 1 13 -3
v 1 13 -4
v 1 14 5
v 1 14 4
v 1 14 3
v 1 14 -1
v 1 14 -2
v 1 14 -3
v 1 15 3
v 1 15 2
v 1 15 -0
v 1 15 -1
v 2 9 4
v 2 9 -2
v 2 14 4
v 2 14 -2
v 2 20 4
v 2 20 3
v 2 20 -1
v 2 20 -2
v 2 21 4
v 2 21 3
v 2 21 -1
v 2 21 -2
v 2 22 3
v 2 22 -1
v 3 15 3
v 3 15 -1
v 3 16 4
v 3 16 3
v 3 16 -1
v 3 16 -2
v 3 20 4
v 3 20 3
v 3 20 -1
v 3 20 -2
v 3 21 3
v 3 21 -1
v -1 7 7
v -1 9 7
v 1 7 7
v 1 9 7
v -1 9 6
v -1 13 6
v 1 9 6
v 1 13 6
v -1 7 5
v -1 8 5
v -1 13 5
v -1 14 5
v 1 7 5
v 1 8 5
v 1 13 5
v 1 14 5
v -4 0 4
v -4 1 4
v -2 4 4
v -2 9 4
v -2 14 4
v -2 16 4
v -2 18 4
v -2 20 4
v -2 21 4
v -1 1 4
v -1 4 4
v -1 7 4
v -1 9 4
v -1 14 4
v -1 18 4
v -1 20 4
v 0 4 4
v 0 7 4
v 1 0 4
v 1 1 4
v 1 4 4
v 1 9 4
v 1 14 4
v 2 9 4
v 2 14 4
v 2 16 4
v 2 20 4
v 2 21 4
v 3 16 4
v 3 20 4
v -2 15 3
v -2 16 3
v -2 21 3
v -2 22 3
v -1 14 3
v -1 15 3
v 1 14 3
v 1 15 3
v 2 15 3
v 2 16 3
v 2 20 3
v 2 21 3
v 2 22 3
v 3 15 3
v 3 16 3
v 3 20 3
v 3 21 3
v -4 0 -0
v -4 1 -0
v -2 4 -0
v -2 7 -0
v -1 1 -0
v -1 4 -0
v -1 6 -0
v -1 7 -0
v 0 4 -0
v 0 6 -0
v 1 0 -0
v 1 1 -0
v 1 4 -0
v -1 7 -4
v -1 8 -4
v 1 7 -4
v 1 8 -4
v -1 7 6
v -1 8 6
v 1 7 6
v 1 8 6
v -4 0 2
v -4 1 2
v -2 4 2
v -2 7 2
v -1 1 2
v -1 4 2
v -1 6 2
v -1 7 2
v 0 4 2
v 0 6 2
v 1 0 2
v 1 1 2
v 1 4 2
v -2 15 -1
v -2 16 -1
v -2 21 -1
v -2 22 -1
v -1 14 -1
v -1 15 -1
v 1 14 -1
v 1 15 -1
v 2 15 -1
v 2 16 -1
v 2 20 -1
v 2 21 -1
v 2 22 -1
v 3 15 -1
v 3 16 -1
v 3 20 -1
v 3 21 -1
v -4 0 -2
v -4 1 -2
v -2 4 -2
v -2 9 -2
v -2 14 -2
v -2 16 -2
v -2 18 -2
v -2 20 -2
v -2 21 -2
v -1 1 -2
v -1 4 -2
v -1 7 -2
v -1 9 -2
v -1 14 -2
v -1 18 -2
v -1 20 -2
v 0 4 -2
v 0 7 -2
v 1 0 -2
v 1 1 -2
v 1 4 -2
v 1 9 -2
v 1 14 -2
v 2 9 -2
v 2 14 -2
v 2 16 -2
v 2 20 -2
v 2 21 -2
v 3 16 -2
v 3 20 -2
v -1 7 -3
v -1 8 -3
v -1 13 -3
v -1 14 -3
v 1 7 -3
v 1 8 -3
v 1 13 -3
v 1 14 -3
v -1 9 -4
v -1 13 -4
v 1 9 -4
v 1 13 -4
v -1 7 -5
v -1 9 -5
v 1 7 -5
v 1 9 -5
v -4 0 4
v 1 0 4
v -4 0 2
v 1 0 2
v -4 0 -0
v 1 0 -0
v -4 0 -2
v 1 0 -2
v -2 4 4
v -1 4 4
v -2 4 2
v -1 4 2
v -2 4 -0
v -1 4 -0
v -2 4 -2
v -1 4 -2
v -1 6 2
v 0 6 2
v -1 6 -0
v 0 6 -0
v -1 7 7
v 1 7 7
v -1 7 6
v 1 7 6
v -1 7 5
v 1 7 5
v -1 7 4
v 0 7 4
v 1 7 4
v -2 7 2
v -1 7 2
v -2 7 -0
v -1 7 -0
v -1 7 -2
v 0 7 -2
v 1 7 -2
v -1 7 -3
v 1 7 -3
v -1 7 -4
v 1 7 -4
v -1 7 -5
v 1 7 -5
v -1 8 6
v 1 8 6
v -1 8 5
v 1 8 5
v -1 8 -3
v 1 8 -3
v -1 8 -4
v 1 8 -4
v 1 9 4
v 2 9 4
v 1 9 -2
v 2 9 -2
v -2 15 3
v -1 15 3
v 1 15 3
v 2 15 3
v 3 15 3
v 1 15 2
v 2 15 2
v 1 15 -0
v 2 15 -0
v -2 15 -1
v -1 15 -1
v 1 15 -1
v 2 15 -1
v 3 15 -1
v -2 16 4
v 2 16 4
v 3 16 4
v -2 16 3
v 2 16 3
v 3 16 3
v -2 16 -1
v 2 16 -1
v 3 16 -1
v -2 16 -2
v 2 16 -2
v 3 16 -2
v -4 1 4
v -1 1 4
v -4 1 2
v -1 1 2
v -4 1 -0
v -1 1 -0
v -4 1 -2
v -1 1 -2
v 0 4 4
v 1 4 4
v 0 4 2
v 1 4 2
v 0 4 -0
v 1 4 -0
v 0 4 -2
v 1 4 -2
v -1 9 7
v 1 9 7
v -1 9 6
v 1 9 6
v -1 9 -4
v 1 9 -4
v -1 9 -5
v 1 9 -5
v -1 13 6
v 1 13 6
v -1 13 5
v 1 13 5
v -1 13 -3
v 1 13 -3
v -1 13 -4
v 1 13 -4
v -1 14 5
v 1 14 5
v -2 14 4
v -1 14 4
v 1 14 4
v 2 14 4
v -1 14 3
v 1 14 3
v -1 14 -1
v 1 14 -1
v -2 14 -2
v -1 14 -2
v 1 14 -2
v 2 14 -2
v -1 14 -3
v 1 14 -3
v 2 20 4
v 3 20 4
v 2 20 3
v 3 20 3
v 2 20 -1
v 3 20 -1
v 2 20 -2
v 3 20 -2
v -2 21 4
v 2 21 4
v -2 21 3
v 2 21 3
v 3 21 3
v -2 21 -1
v 2 21 -1
v 3 21 -1
v -2 21 -2
v 2 21 -2
v -2 22 3
v 2 22 3
v -2 22 -1
v 2 22 -1

# faces
f 5/7/1 2/7/1 1/7/1
f 6/7/1 2/7/1 5/7/1
f 7/7/1 4/7/1 3/7/1
f 8/7/1 4/7/1 7/7/1
f 13/8/1 10/8/1 9/8/1
f 14/8/1 12/8/1 11/8/1
f 15/8/1 13/8/1 9/8/1
f 15/8/1 14/8/1 13/8/1
f 16/8/1 12/8/1 14/8/1
f 16/8/1 14/8/1 15/8/1
f 17/5/1 16/5/1 15/5/1
f 18/5/1 16/5/1 17/5/1
f 22/2/1 20/2/1 19/2/1
f 23/2/1 20/2/1 22/2/1
f 24/2/1 20/2/1 23/2/1
f 25/2/1 20/2/1 24/2/1
f 27/2/1 22/2/1 21/2/1
f 27/2/1 23/2/1 22/2/1
f 27/3/1 24/3/1 23/3/1
f 28/2/1 26/2/1 25/2/1
f 28/3/1 24/3/1 27/3/1
f 28/2/1 25/2/1 24/2/1
f 29/2/1 27/2/1 21/2/1
f 29/2/1 28/2/1 27/2/1
f 30/2/1 28/2/1 29/2/1
f 31/2/1 28/2/1 30/2/1
f 32/2/1 26/2/1 28/2/1
f 32/2/1 28/2/1 31/2/1
f 33/2/1 26/2/1 32/2/1
f 34/2/1 26/2/1 33/2/1
f 35/1/1 30/1/1 29/1/1
f 36/6/1 31/6/1 30/6/1
f 36/1/1 30/1/1 35/1/1
f 37/2/1 32/2/1 31/2/1
f 37/6/1 31/6/1 36/6/1
f 38/6/1 33/6/1 32/6/1
f 38/2/1 32/2/1 37/2/1
f 39/1/1 34/1/1 33/1/1
f 39/6/1 33/6/1 38/6/1
f 40/1/1 34/1/1 39/1/1
f 41/3/1 36/3/1 35/3/1
f 42/2/1 37/2/1 36/2/1
f 42/3/1 36/3/1 41/3/1
f 42/2/1 38/2/1 37/2/1
f 42/2/1 39/2/1 38/2/1
f 43/3/1 40/3/1 39/3/1
f 43/2/1 39/2/1 42/2/1
f 44/3/1 40/3/1 43/3/1
f 45/3/1 43/3/1 42/3/1
f 46/3/1 43/3/1 45/3/1
f 51/8/1 48/8/1 47/8/1
f 52/8/1 48/8/1 51/8/1
f 53/8/1 50/8/1 49/8/1
f 54/8/1 50/8/1 53/8/1
f 61/8/1 56/8/1 55/8/1
f 62/8/1 56/8/1 61/8/1
f 67/2/1 58/2/1 57/2/1
f 68/2/1 60/2/1 59/2/1
f 69/2/1 64/2/1 63/2/1
f 70/2/1 66/2/1 65/2/1
f 71/2/1 67/2/1 57/2/1
f 71/2/1 68/2/1 67/2/1
f 72/2/1 68/2/1 71/2/1
f 73/2/1 60/2/1 68/2/1
f 73/2/1 68/2/1 72/2/1
f 74/2/1 69/2/1 63/2/1
f 74/2/1 70/2/1 69/2/1
f 75/2/1 66/2/1 70/2/1
f 75/2/1 70/2/1 74/2/1
f 76/2/1 66/2/1 75/2/1
f 77/2/1 73/2/1 72/2/1
f 78/2/1 73/2/1 77/2/1
f 79/2/1 75/2/1 74/2/1
f 80/2/1 75/2/1 79/2/1
f 81/2/1 73/2/1 78/2/1
f 82/2/1 73/2/1 81/2/1
f 85/2/1 79/2/1 74/2/1
f 86/2/1 79/2/1 85/2/1
f 87/2/1 84/2/1 83/2/1
f 88/2/1 84/2/1 87/2/1
f 89/8/2 90/8/2 93/8/2
f 91/8/2 92/8/2 94/8/2
f 89/8/2 93/8/2 95/8/2
f 93/8/2 94/8/2 95/8/2
f 94/8/2 92/8/2 96/8/2
f 95/8/2 94/8/2 96/8/2
f 97/7/2 98/7/2 101/7/2
f 101/7/2 98/7/2 102/7/2
f 99/7/2 100/7/2 103/7/2
f 103/7/2 100/7/2 104/7/2
f 101/8/2 102/8/2 105/8/2
f 105/8/2 102/8/2 106/8/2
f 103/8/2 104/8/2 107/8/2
f 107/8/2 104/8/2 108/8/2
f 109/2/2 110/2/2 117/2/2
f 111/2/2 112/2/2 118/2/2
f 113/2/2 114/2/2 119/2/2
f 115/2/2 116/2/2 120/2/2
f 109/2/2 117/2/2 121/2/2
f 117/2/2 118/2/2 121/2/2
f 121/2/2 118/2/2 122/2/2
f 112/8/2 113/8/2 123/8/2
f 122/2/2 118/2/2 123/2/2
f 118/2/2 112/2/2 123/2/2
f 119/2/2 120/2/2 124/2/2
f 123/8/2 113/8/2 124/8/2
f 113/2/2 119/2/2 124/2/2
f 120/2/2 116/2/2 125/2/2
f 124/2/2 120/2/2 125/2/2
f 125/2/2 116/2/2 126/2/2
f 122/2/2 123/2/2 127/2/2
f 127/2/2 123/2/2 128/2/2
f 124/2/2 125/2/2 129/2/2
f 129/2/2 125/2/2 130/2/2
f 128/2/2 123/2/2 131/2/2
f 131/2/2 123/2/2 132/2/2
f 124/2/2 129/2/2 135/2/2
f 135/2/2 129/2/2 136/2/2
f 133/2/2 134/2/2 137/2/2
f 137/2/2 134/2/2 138/2/2
f 138/2/2 134/2/2 139/2/2
f 139/2/2 134/2/2 140/2/2
f 141/5/2 142/5/2 143/5/2
f 143/5/2 142/5/2 144/5/2
f 145/3/2 146/3/2 149/3/2
f 149/3/2 146/3/2 150/3/2
f 147/3/2 148/3/2 151/3/2
f 151/3/2 148/3/2 152/3/2
f 150/3/2 151/3/2 153/3/2
f 153/3/2 151/3/2 154/3/2
f 155/3/2 156/3/2 158/3/2
f 158/3/2 156/3/2 159/3/2
f 157/3/2 158/3/2 161/3/2
f 159/3/2 160/3/2 161/3/2
f 158/3/2 159/3/2 161/3/2
f 161/3/2 160/3/2 162/3/2
f 162/3/2 160/3/2 163/3/2
f 163/3/2 160/3/2 164/3/2
f 162/3/2 163/3/2 165/3/2
f 165/3/2 163/3/2 166/3/2
f 169/2/3 168/2/3 167/2/3
f 170/2/3 168/2/3 169/2/3
f 173/2/3 172/2/3 171/2/3
f 174/2/3 172/2/3 173/2/3
f 179/2/3 176/2/3 175/2/3
f 180/2/3 176/2/3 179/2/3
f 181/2/3 178/2/3 177/2/3
f 182/2/3 178/2/3 181/2/3
f 192/7/3 184/7/3 183/7/3
f 193/8/3 186/8/3 185/8/3
f 194/8/3 186/8/3 193/8/3
f 195/5/3 187/5/3 186/5/3
f 195/8/3 186/8/3 194/8/3
f 196/5/3 187/5/3 195/5/3
f 197/2/3 189/2/3 188/2/3
f 197/1/3 190/1/3 189/1/3
f 198/3/3 191/3/3 190/3/3
f 198/1/3 190/1/3 197/1/3
f 199/8/3 194/8/3 193/8/3
f 199/8/3 193/8/3 192/8/3
f 200/8/3 194/8/3 199/8/3
f 201/7/3 192/7/3 183/7/3
f 202/8/3 199/8/3 192/8/3
f 202/7/3 192/7/3 201/7/3
f 203/8/3 199/8/3 202/8/3
f 206/5/3 205/5/3 204/5/3
f 207/5/3 205/5/3 206/5/3
f 208/2/3 197/2/3 188/2/3
f 208/2/3 198/2/3 197/2/3
f 209/3/3 191/3/3 198/3/3
f 209/2/3 198/2/3 208/2/3
f 210/3/3 191/3/3 209/3/3
f 211/3/3 209/3/3 208/3/3
f 212/3/3 209/3/3 211/3/3
f 218/2/3 214/2/3 213/2/3
f 219/2/3 218/2/3 217/2/3
f 220/2/3 214/2/3 218/2/3
f 220/2/3 218/2/3 219/2/3
f 221/2/3 214/2/3 220/2/3
f 222/2/3 214/2/3 221/2/3
f 224/3/3 216/3/3 215/3/3
f 225/3/3 216/3/3 224/3/3
f 226/3/3 222/3/3 221/3/3
f 227/3/3 222/3/3 226/3/3
f 228/3/3 224/3/3 223/3/3
f 229/3/3 224/3/3 228/3/3
f 234/7/3 231/7/3 230/7/3
f 235/8/3 233/8/3 232/8/3
f 236/8/3 233/8/3 235/8/3
f 237/8/3 233/8/3 236/8/3
f 238/8/3 235/8/3 234/8/3
f 238/8/3 236/8/3 235/8/3
f 239/8/3 236/8/3 238/8/3
f 240/7/3 234/7/3 230/7/3
f 241/8/3 238/8/3 234/8/3
f 241/7/3 234/7/3 240/7/3
f 242/8/3 238/8/3 241/8/3
f 245/2/3 244/2/3 243/2/3
f 246/2/3 244/2/3 245/2/3
f 247/2/4 248/2/4 249/2/4
f 249/2/4 248/2/4 250/2/4
f 251/7/4 252/7/4 255/7/4
f 253/8/4 254/8/4 256/8/4
f 256/8/4 254/8/4 257/8/4
f 257/8/4 254/8/4 258/8/4
f 255/8/4 256/8/4 259/8/4
f 256/8/4 257/8/4 259/8/4
f 259/8/4 257/8/4 260/8/4
f 251/7/4 255/7/4 261/7/4
f 255/8/4 259/8/4 262/8/4
f 261/7/4 255/7/4 262/7/4
f 262/8/4 259/8/4 263/8/4
f 264/2/4 265/2/4 269/2/4
f 268/2/4 269/2/4 270/2/4
f 269/2/4 265/2/4 271/2/4
f 270/2/4 269/2/4 271/2/4
f 271/2/4 265/2/4 272/2/4
f 272/2/4 265/2/4 273/2/4
f 266/3/4 267/3/4 275/3/4
f 275/3/4 267/3/4 276/3/4
f 272/3/4 273/3/4 277/3/4
f 277/3/4 273/3/4 278/3/4
f 274/3/4 275/3/4 279/3/4
f 279/3/4 275/3/4 280/3/4
f 281/7/4 282/7/4 290/7/4
f 283/8/4 284/8/4 291/8/4
f 291/8/4 284/8/4 292/8/4
f 284/5/4 285/5/4 293/5/4
f 292/8/4 284/8/4 293/8/4
f 293/5/4 285/5/4 294/5/4
f 286/2/4 287/2/4 295/2/4
f 287/1/4 288/1/4 295/1/4
f 288/3/4 289/3/4 296/3/4
f 295/1/4 288/1/4 296/1/4
f 291/8/4 292/8/4 297/8/4
f 290/8/4 291/8/4 297/8/4
f 297/8/4 292/8/4 298/8/4
f 281/7/4 290/7/4 299/7/4
f 290/8/4 297/8/4 300/8/4
f 299/7/4 290/7/4 300/7/4
f 300/8/4 297/8/4 301/8/4
f 302/5/4 303/5/4 304/5/4
f 304/5/4 303/5/4 305/5/4
f 286/2/4 295/2/4 306/2/4
f 295/2/4 296/2/4 306/2/4
f 296/3/4 289/3/4 307/3/4
f 306/2/4 296/2/4 307/2/4
f 307/3/4 289/3/4 308/3/4
f 306/3/4 307/3/4 309/3/4
f 309/3/4 307/3/4 310/3/4
f 311/2/4 312/2/4 315/2/4
f 315/2/4 312/2/4 316/2/4
f 313/2/4 314/2/4 317/2/4
f 317/2/4 314/2/4 318/2/4
f 319/2/4 320/2/4 321/2/4
f 321/2/4 320/2/4 322/2/4
f 323/2/4 324/2/4 325/2/4
f 325/2/4 324/2/4 326/2/4
f 329/7/5 328/7/5 327/7/5
f 330/7/5 328/7/5 329/7/5
f 333/7/5 332/7/5 331/7/5
f 334/7/5 332/7/5 333/7/5
f 337/8/5 336/8/5 335/8/5
f 338/8/5 336/8/5 337/8/5
f 341/8/5 340/8/5 339/8/5
f 342/8/5 340/8/5 341/8/5
f 345/8/5 344/8/5 343/8/5
f 346/8/5 344/8/5 345/8/5
f 349/2/5 348/2/5 347/2/5
f 350/2/5 348/2/5 349/2/5
f 353/2/5 352/2/5 351/2/5
f 354/2/5 352/2/5 353/2/5
f 355/2/5 352/2/5 354/2/5
f 358/8/5 357/8/5 356/8/5
f 359/8/5 357/8/5 358/8/5
f 361/8/5 355/8/5 354/8/5
f 362/8/5 355/8/5 361/8/5
f 363/2/5 361/2/5 360/2/5
f 363/2/5 362/2/5 361/2/5
f 364/2/5 362/2/5 363/2/5
f 367/2/5 366/2/5 365/2/5
f 368/2/5 366/2/5 367/2/5
f 371/2/5 370/2/5 369/2/5
f 372/2/5 370/2/5 371/2/5
f 375/2/5 374/2/5 373/2/5
f 376/2/5 374/2/5 375/2/5
f 379/5/5 378/5/5 377/5/5
f 380/5/5 378/5/5 379/5/5
f 386/2/5 384/2/5 383/2/5
f 387/3/5 385/3/5 384/3/5
f 387/2/5 384/2/5 386/2/5
f 388/4/5 387/4/5 386/4/5
f 389/3/5 385/3/5 387/3/5
f 389/4/5 387/4/5 388/4/5
f 390/2/5 382/2/5 381/2/5
f 391/2/5 382/2/5 390/2/5
f 392/2/5 389/2/5 388/2/5
f 393/3/5 385/3/5 389/3/5
f 393/2/5 389/2/5 392/2/5
f 394/3/5 385/3/5 393/3/5
f 398/2/5 396/2/5 395/2/5
f 399/3/5 397/3/5 396/3/5
f 399/2/5 396/2/5 398/2/5
f 400/3/5 397/3/5 399/3/5
f 404/2/5 402/2/5 401/2/5
f 405/3/5 403/3/5 402/3/5
f 405/2/5 402/2/5 404/2/5
f 406/3/5 403/3/5 405/3/5
f 407/7/6 408/7/6 409/7/6
f 409/7/6 408/7/6 410/7/6
f 411/7/6 412/7/6 413/7/6
f 413/7/6 412/7/6 414/7/6
f 415/8/6 416/8/6 417/8/6
f 417/8/6 416/8/6 418/8/6
f 419/8/6 420/8/6 421/8/6
f 421/8/6 420/8/6 422/8/6
f 423/2/6 424/2/6 425/2/6
f 425/2/6 424/2/6 426/2/6
f 427/2/6 428/2/6 429/2/6
f 429/2/6 428/2/6 430/2/6
f 431/2/6 432/2/6 433/2/6
f 433/2/6 432/2/6 434/2/6
f 435/2/6 436/2/6 437/2/6
f 437/2/6 436/2/6 438/2/6
f 439/2/6 440/2/6 442/2/6
f 442/2/6 440/2/6 443/2/6
f 441/5/6 442/5/6 445/5/6
f 443/5/6 444/5/6 445/5/6
f 442/5/6 443/5/6 445/5/6
f 445/5/6 444/5/6 446/5/6
f 441/5/6 445/5/6 447/5/6
f 446/5/6 444/5/6 448/5/6
f 441/5/6 447/5/6 449/5/6
f 447/5/6 448/5/6 449/5/6
f 449/5/6 448/5/6 450/5/6
f 448/5/6 444/5/6 451/5/6
f 450/5/6 448/5/6 451/5/6
f 451/5/6 444/5/6 452/5/6
f 450/2/6 451/2/6 453/2/6
f 453/2/6 451/2/6 454/2/6
f 455/3/6 456/3/6 457/3/6
f 457/3/6 456/3/6 458/3/6
f 459/3/6 460/3/6 461/3/6
f 461/3/6 460/3/6 462/3/6
f 463/3/6 464/3/6 465/3/6
f 465/3/6 464/3/6 466/3/6
f 466/3/6 467/3/6 469/3/6
f 469/3/6 467/3/6 470/3/6
f 468/3/6 469/3/6 471/3/6
f 471/3/6 469/3/6 472/3/6
f 473/3/6 474/3/6 475/3/6
f 475/3/6 474/3/6 476/3/6
