# MagicaVoxel @ Ephtracy

# group
g paramedic2

# material
mtllib paramedic2.mtl
usemtl palette

# normals
vn -1 0 0
vn 1 0 0
vn 0 0 1
vn 0 0 -1
vn 0 -1 0
vn 0 1 0

# texcoords
vt 0.0683594 0.5
vt 0.431641 0.5
vt 0.482422 0.5
vt 0.568359 0.5
vt 0.994141 0.5

# verts
v 1 3 -4
v 1 3 -5
v 1 5 -4
v 1 5 -5
v 1 6 -4
v 1 6 -5
v 1 7 -3
v 1 7 -6
v 1 7 -7
v 1 9 -4
v 1 9 -6
v 1 10 -3
v 1 10 -4
v 1 12 -3
v 1 12 -7
v 2 0 -4
v 2 0 -5
v 2 1 -4
v 2 1 -5
v 2 2 -4
v 2 2 -5
v 2 3 -3
v 2 3 -4
v 2 3 -5
v 2 3 -6
v 2 5 -4
v 2 5 -5
v 2 6 -3
v 2 6 -4
v 2 6 -5
v 2 6 -6
v 2 6 -7
v 2 7 -5
v 2 7 -6
v 2 7 -7
v 3 5 -6
v 3 5 -7
v 3 6 -4
v 3 6 -5
v 3 6 -6
v 3 6 -7
v 3 7 -4
v 3 7 -5
v 5 0 -4
v 5 0 -5
v 5 1 -4
v 5 1 -5
v 5 2 -4
v 5 2 -5
v 5 3 -4
v 5 3 -5
v 3 0 -4
v 3 0 -5
v 3 1 -4
v 3 1 -5
v 3 2 -4
v 3 2 -5
v 3 3 -4
v 3 3 -5
v 5 5 -6
v 5 5 -7
v 5 6 -4
v 5 6 -6
v 5 6 -7
v 5 7 -4
v 5 7 -6
v 6 0 -4
v 6 0 -5
v 6 1 -4
v 6 1 -5
v 6 2 -4
v 6 2 -5
v 6 3 -3
v 6 3 -4
v 6 3 -5
v 6 3 -6
v 6 5 -4
v 6 5 -5
v 6 6 -3
v 6 6 -4
v 6 6 -5
v 6 6 -6
v 6 6 -7
v 6 7 -6
v 6 7 -7
v 7 3 -4
v 7 3 -5
v 7 5 -4
v 7 5 -5
v 7 6 -4
v 7 6 -5
v 7 7 -3
v 7 7 -6
v 7 7 -7
v 7 9 -4
v 7 9 -6
v 7 10 -3
v 7 10 -4
v 7 12 -3
v 7 12 -7
v 1 7 -3
v 1 10 -3
v 1 12 -3
v 2 3 -3
v 2 6 -3
v 2 8 -3
v 2 9 -3
v 2 10 -3
v 2 11 -3
v 3 8 -3
v 3 9 -3
v 5 8 -3
v 5 9 -3
v 6 3 -3
v 6 6 -3
v 6 8 -3
v 6 9 -3
v 6 10 -3
v 6 11 -3
v 7 7 -3
v 7 10 -3
v 7 12 -3
v 1 3 -4
v 1 5 -4
v 1 6 -4
v 2 0 -4
v 2 1 -4
v 2 2 -4
v 2 3 -4
v 2 5 -4
v 2 6 -4
v 3 0 -4
v 3 1 -4
v 3 2 -4
v 3 3 -4
v 3 6 -4
v 3 7 -4
v 5 0 -4
v 5 1 -4
v 5 2 -4
v 5 3 -4
v 5 6 -4
v 5 7 -4
v 6 0 -4
v 6 1 -4
v 6 2 -4
v 6 3 -4
v 6 5 -4
v 6 6 -4
v 7 3 -4
v 7 5 -4
v 7 6 -4
v 2 6 -5
v 2 7 -5
v 3 6 -5
v 3 7 -5
v 5 6 -6
v 5 7 -6
v 6 6 -6
v 6 7 -6
v 1 3 -5
v 1 5 -5
v 1 6 -5
v 2 0 -5
v 2 1 -5
v 2 2 -5
v 2 3 -5
v 2 5 -5
v 2 6 -5
v 3 0 -5
v 3 1 -5
v 3 2 -5
v 3 3 -5
v 5 0 -5
v 5 1 -5
v 5 2 -5
v 5 3 -5
v 6 0 -5
v 6 1 -5
v 6 2 -5
v 6 3 -5
v 6 5 -5
v 6 6 -5
v 7 3 -5
v 7 5 -5
v 7 6 -5
v 2 3 -6
v 2 6 -6
v 3 5 -6
v 3 6 -6
v 5 5 -6
v 5 6 -6
v 6 3 -6
v 6 6 -6
v 1 7 -7
v 1 12 -7
v 2 6 -7
v 2 7 -7
v 3 5 -7
v 3 6 -7
v 5 5 -7
v 5 6 -7
v 6 6 -7
v 6 7 -7
v 7 7 -7
v 7 12 -7
v 2 0 -4
v 3 0 -4
v 5 0 -4
v 6 0 -4
v 2 0 -5
v 3 0 -5
v 5 0 -5
v 6 0 -5
v 2 3 -3
v 6 3 -3
v 1 3 -4
v 2 3 -4
v 3 3 -4
v 5 3 -4
v 6 3 -4
v 7 3 -4
v 1 3 -5
v 2 3 -5
v 3 3 -5
v 5 3 -5
v 6 3 -5
v 7 3 -5
v 2 3 -6
v 6 3 -6
v 3 5 -6
v 5 5 -6
v 3 5 -7
v 5 5 -7
v 2 6 -6
v 3 6 -6
v 5 6 -6
v 6 6 -6
v 2 6 -7
v 3 6 -7
v 5 6 -7
v 6 6 -7
v 1 7 -3
v 7 7 -3
v 3 7 -4
v 5 7 -4
v 2 7 -5
v 3 7 -5
v 1 7 -6
v 2 7 -6
v 5 7 -6
v 6 7 -6
v 7 7 -6
v 1 7 -7
v 2 7 -7
v 6 7 -7
v 7 7 -7
v 2 6 -3
v 6 6 -3
v 1 6 -4
v 2 6 -4
v 3 6 -4
v 5 6 -4
v 6 6 -4
v 7 6 -4
v 1 6 -5
v 2 6 -5
v 3 6 -5
v 6 6 -5
v 7 6 -5
v 5 6 -6
v 6 6 -6
v 1 12 -3
v 7 12 -3
v 1 12 -7
v 7 12 -7

# faces
f 3/4/1 2/4/1 1/4/1
f 4/4/1 2/4/1 3/4/1
f 5/3/1 4/3/1 3/3/1
f 6/3/1 4/3/1 5/3/1
f 10/1/1 8/1/1 7/1/1
f 11/2/1 9/2/1 8/2/1
f 11/1/1 8/1/1 10/1/1
f 12/1/1 10/1/1 7/1/1
f 13/2/1 11/2/1 10/2/1
f 13/1/1 10/1/1 12/1/1
f 14/2/1 13/2/1 12/2/1
f 15/2/1 9/2/1 11/2/1
f 15/2/1 13/2/1 14/2/1
f 15/2/1 11/2/1 13/2/1
f 18/5/1 17/5/1 16/5/1
f 19/5/1 17/5/1 18/5/1
f 20/3/1 19/3/1 18/3/1
f 21/3/1 19/3/1 20/3/1
f 23/4/1 21/4/1 20/4/1
f 24/4/1 21/4/1 23/4/1
f 26/4/1 23/4/1 22/4/1
f 27/4/1 25/4/1 24/4/1
f 28/4/1 26/4/1 22/4/1
f 29/4/1 26/4/1 28/4/1
f 30/4/1 25/4/1 27/4/1
f 31/4/1 25/4/1 30/4/1
f 33/2/1 32/2/1 31/2/1
f 33/2/1 31/2/1 30/2/1
f 34/2/1 32/2/1 33/2/1
f 35/2/1 32/2/1 34/2/1
f 40/2/1 37/2/1 36/2/1
f 41/2/1 37/2/1 40/2/1
f 42/1/1 39/1/1 38/1/1
f 43/1/1 39/1/1 42/1/1
f 46/5/1 45/5/1 44/5/1
f 47/5/1 45/5/1 46/5/1
f 48/3/1 47/3/1 46/3/1
f 49/3/1 47/3/1 48/3/1
f 50/4/1 49/4/1 48/4/1
f 51/4/1 49/4/1 50/4/1
f 52/5/2 53/5/2 54/5/2
f 54/5/2 53/5/2 55/5/2
f 54/3/2 55/3/2 56/3/2
f 56/3/2 55/3/2 57/3/2
f 56/4/2 57/4/2 58/4/2
f 58/4/2 57/4/2 59/4/2
f 60/2/2 61/2/2 63/2/2
f 63/2/2 61/2/2 64/2/2
f 62/1/2 63/1/2 65/1/2
f 65/1/2 63/1/2 66/1/2
f 67/5/2 68/5/2 69/5/2
f 69/5/2 68/5/2 70/5/2
f 69/3/2 70/3/2 71/3/2
f 71/3/2 70/3/2 72/3/2
f 71/4/2 72/4/2 74/4/2
f 74/4/2 72/4/2 75/4/2
f 73/4/2 74/4/2 77/4/2
f 75/4/2 76/4/2 78/4/2
f 73/4/2 77/4/2 79/4/2
f 79/4/2 77/4/2 80/4/2
f 78/4/2 76/4/2 81/4/2
f 81/4/2 76/4/2 82/4/2
f 82/2/2 83/2/2 84/2/2
f 84/2/2 83/2/2 85/2/2
f 86/4/2 87/4/2 88/4/2
f 88/4/2 87/4/2 89/4/2
f 88/3/2 89/3/2 90/3/2
f 90/3/2 89/3/2 91/3/2
f 92/1/2 93/1/2 95/1/2
f 93/2/2 94/2/2 96/2/2
f 95/1/2 93/1/2 96/1/2
f 92/1/2 95/1/2 97/1/2
f 95/2/2 96/2/2 98/2/2
f 97/1/2 95/1/2 98/1/2
f 97/2/2 98/2/2 99/2/2
f 96/2/2 94/2/2 100/2/2
f 99/2/2 98/2/2 100/2/2
f 98/2/2 96/2/2 100/2/2
f 106/1/3 102/1/3 101/1/3
f 107/1/3 102/1/3 106/1/3
f 108/2/3 103/2/3 102/2/3
f 108/1/3 102/1/3 107/1/3
f 109/2/3 103/2/3 108/2/3
f 110/5/3 107/5/3 106/5/3
f 110/1/3 106/1/3 101/1/3
f 111/1/3 109/1/3 108/1/3
f 111/5/3 107/5/3 110/5/3
f 111/1/3 108/1/3 107/1/3
f 112/1/3 110/1/3 101/1/3
f 112/1/3 111/1/3 110/1/3
f 113/1/3 109/1/3 111/1/3
f 113/1/3 111/1/3 112/1/3
f 114/4/3 105/4/3 104/4/3
f 115/4/3 105/4/3 114/4/3
f 116/1/3 112/1/3 101/1/3
f 116/5/3 113/5/3 112/5/3
f 117/1/3 109/1/3 113/1/3
f 117/5/3 113/5/3 116/5/3
f 118/1/3 109/1/3 117/1/3
f 119/2/3 103/2/3 109/2/3
f 119/1/3 109/1/3 118/1/3
f 120/1/3 116/1/3 101/1/3
f 120/1/3 118/1/3 117/1/3
f 120/1/3 117/1/3 116/1/3
f 121/2/3 119/2/3 118/2/3
f 121/1/3 118/1/3 120/1/3
f 122/2/3 103/2/3 119/2/3
f 122/2/3 119/2/3 121/2/3
f 129/4/3 124/4/3 123/4/3
f 130/3/3 125/3/3 124/3/3
f 130/4/3 124/4/3 129/4/3
f 131/3/3 125/3/3 130/3/3
f 132/5/3 127/5/3 126/5/3
f 133/3/3 128/3/3 127/3/3
f 133/5/3 127/5/3 132/5/3
f 134/4/3 129/4/3 128/4/3
f 134/3/3 128/3/3 133/3/3
f 135/4/3 129/4/3 134/4/3
f 142/1/3 137/1/3 136/1/3
f 143/1/3 137/1/3 142/1/3
f 144/5/3 139/5/3 138/5/3
f 145/3/3 140/3/3 139/3/3
f 145/5/3 139/5/3 144/5/3
f 146/4/3 141/4/3 140/4/3
f 146/3/3 140/3/3 145/3/3
f 147/4/3 141/4/3 146/4/3
f 150/4/3 148/4/3 147/4/3
f 151/3/3 149/3/3 148/3/3
f 151/4/3 148/4/3 150/4/3
f 152/3/3 149/3/3 151/3/3
f 155/2/3 154/2/3 153/2/3
f 156/2/3 154/2/3 155/2/3
f 159/2/3 158/2/3 157/2/3
f 160/2/3 158/2/3 159/2/3
f 161/4/4 162/4/4 167/4/4
f 162/3/4 163/3/4 168/3/4
f 167/4/4 162/4/4 168/4/4
f 168/3/4 163/3/4 169/3/4
f 164/5/4 165/5/4 170/5/4
f 165/3/4 166/3/4 171/3/4
f 170/5/4 165/5/4 171/5/4
f 166/4/4 167/4/4 172/4/4
f 171/3/4 166/3/4 172/3/4
f 172/4/4 167/4/4 173/4/4
f 174/5/4 175/5/4 178/5/4
f 175/3/4 176/3/4 179/3/4
f 178/5/4 175/5/4 179/5/4
f 176/4/4 177/4/4 180/4/4
f 179/3/4 176/3/4 180/3/4
f 180/4/4 177/4/4 181/4/4
f 181/4/4 182/4/4 184/4/4
f 182/3/4 183/3/4 185/3/4
f 184/4/4 182/4/4 185/4/4
f 185/3/4 183/3/4 186/3/4
f 187/4/4 188/4/4 189/4/4
f 189/4/4 188/4/4 190/4/4
f 187/4/4 189/4/4 191/4/4
f 187/4/4 191/4/4 193/4/4
f 191/4/4 192/4/4 193/4/4
f 193/4/4 192/4/4 194/4/4
f 195/2/4 196/2/4 198/2/4
f 197/2/4 198/2/4 200/2/4
f 199/2/4 200/2/4 201/2/4
f 200/2/4 198/2/4 202/2/4
f 201/2/4 200/2/4 202/2/4
f 202/2/4 198/2/4 203/2/4
f 198/2/4 196/2/4 204/2/4
f 203/2/4 198/2/4 204/2/4
f 204/2/4 196/2/4 205/2/4
f 205/2/4 196/2/4 206/2/4
f 211/5/5 208/5/5 207/5/5
f 212/5/5 208/5/5 211/5/5
f 213/5/5 210/5/5 209/5/5
f 214/5/5 210/5/5 213/5/5
f 218/4/5 216/4/5 215/4/5
f 219/4/5 216/4/5 218/4/5
f 220/4/5 216/4/5 219/4/5
f 221/4/5 216/4/5 220/4/5
f 223/4/5 218/4/5 217/4/5
f 224/4/5 218/4/5 223/4/5
f 225/4/5 220/4/5 219/4/5
f 226/4/5 220/4/5 225/4/5
f 227/4/5 222/4/5 221/4/5
f 228/4/5 222/4/5 227/4/5
f 229/4/5 226/4/5 225/4/5
f 229/4/5 227/4/5 226/4/5
f 229/4/5 225/4/5 224/4/5
f 230/4/5 227/4/5 229/4/5
f 233/2/5 232/2/5 231/2/5
f 234/2/5 232/2/5 233/2/5
f 239/2/5 236/2/5 235/2/5
f 240/2/5 236/2/5 239/2/5
f 241/2/5 238/2/5 237/2/5
f 242/2/5 238/2/5 241/2/5
f 245/1/5 244/1/5 243/1/5
f 246/1/5 244/1/5 245/1/5
f 247/1/5 245/1/5 243/1/5
f 248/1/5 245/1/5 247/1/5
f 249/1/5 247/1/5 243/1/5
f 250/1/5 247/1/5 249/1/5
f 251/1/5 244/1/5 246/1/5
f 252/1/5 244/1/5 251/1/5
f 253/1/5 244/1/5 252/1/5
f 254/2/5 250/2/5 249/2/5
f 255/2/5 250/2/5 254/2/5
f 256/2/5 253/2/5 252/2/5
f 257/2/5 253/2/5 256/2/5
f 258/4/6 259/4/6 261/4/6
f 261/4/6 259/4/6 262/4/6
f 262/4/6 259/4/6 263/4/6
f 263/4/6 259/4/6 264/4/6
f 260/3/6 261/3/6 266/3/6
f 261/4/6 262/4/6 267/4/6
f 266/3/6 261/3/6 267/3/6
f 267/4/6 262/4/6 268/4/6
f 264/3/6 265/3/6 269/3/6
f 263/4/6 264/4/6 269/4/6
f 269/3/6 265/3/6 270/3/6
f 263/4/6 269/4/6 271/4/6
f 271/4/6 269/4/6 272/4/6
f 273/2/6 274/2/6 275/2/6
f 275/2/6 274/2/6 276/2/6
