# MagicaVoxel @ Ephtracy

# group
g park_bench

# material
mtllib park_bench.mtl
usemtl palette

# normals
vn -1 0 0
vn 1 0 0
vn 0 0 1
vn 0 0 -1
vn 0 -1 0
vn 0 1 0

# texcoords
vt 0.279297 0.5
vt 0.306641 0.5

# verts
v -14 7 7
v -14 7 3
v -14 7 2
v -14 7 -2
v -14 7 -3
v -14 7 -7
v -14 8 7
v -14 8 3
v -14 8 2
v -14 8 -2
v -14 8 -3
v -14 8 -7
v -13 1 6
v -13 1 4
v -13 1 -4
v -13 1 -6
v -13 7 6
v -13 7 4
v -13 7 -4
v -13 7 -6
v -13 8 -5
v -13 8 -6
v -13 19 -5
v -13 19 -6
v -10 13 -5
v -10 13 -6
v -10 14 -5
v -10 14 -6
v -9 7 3
v -9 7 2
v -9 7 -2
v -9 7 -3
v -9 8 3
v -9 8 2
v -9 8 -2
v -9 8 -3
v -5 8 -5
v -5 8 -6
v -5 12 -5
v -5 12 -6
v -5 15 -5
v -5 15 -6
v -5 17 -5
v -5 17 -6
v -5 18 -5
v -5 18 -6
v -5 19 -5
v -5 19 -6
v -3 8 -5
v -3 8 -6
v -3 10 -5
v -3 10 -6
v -3 16 -5
v -3 16 -6
v -3 17 -5
v -3 17 -6
v -3 18 -5
v -3 18 -6
v -3 19 -5
v -3 19 -6
v 1 7 3
v 1 7 2
v 1 7 -2
v 1 7 -3
v 1 8 3
v 1 8 2
v 1 8 -2
v 1 8 -3
v 4 1 6
v 4 1 5
v 4 1 -5
v 4 1 -6
v 4 7 6
v 4 7 5
v 4 7 -5
v 4 7 -6
v 4 8 -5
v 4 8 -6
v 4 12 -5
v 4 12 -6
v 4 13 -5
v 4 13 -6
v 4 14 -5
v 4 14 -6
v 4 15 -5
v 4 15 -6
v 4 17 -5
v 4 17 -6
v 4 18 -5
v 4 18 -6
v 4 19 -5
v 4 19 -6
v 5 1 5
v 5 1 4
v 5 1 -4
v 5 1 -5
v 5 7 5
v 5 7 4
v 5 7 -4
v 5 7 -5
v -12 1 5
v -12 1 4
v -12 1 -4
v -12 1 -5
v -12 7 5
v -12 7 4
v -12 7 -4
v -12 7 -5
v -11 1 6
v -11 1 5
v -11 1 -5
v -11 1 -6
v -11 7 6
v -11 7 5
v -11 7 -5
v -11 7 -6
v -11 8 -5
v -11 8 -6
v -11 12 -5
v -11 12 -6
v -11 13 -5
v -11 13 -6
v -11 14 -5
v -11 14 -6
v -11 15 -5
v -11 15 -6
v -11 17 -5
v -11 17 -6
v -11 18 -5
v -11 18 -6
v -11 19 -5
v -11 19 -6
v -7 7 3
v -7 7 2
v -7 7 -2
v -7 7 -3
v -7 8 3
v -7 8 2
v -7 8 -2
v -7 8 -3
v -4 8 -5
v -4 8 -6
v -4 10 -5
v -4 10 -6
v -4 16 -5
v -4 16 -6
v -4 17 -5
v -4 17 -6
v -4 18 -5
v -4 18 -6
v -4 19 -5
v -4 19 -6
v -2 8 -5
v -2 8 -6
v -2 12 -5
v -2 12 -6
v -2 15 -5
v -2 15 -6
v -2 17 -5
v -2 17 -6
v -2 18 -5
v -2 18 -6
v -2 19 -5
v -2 19 -6
v 3 7 3
v 3 7 2
v 3 7 -2
v 3 7 -3
v 3 8 3
v 3 8 2
v 3 8 -2
v 3 8 -3
v 3 13 -5
v 3 13 -6
v 3 14 -5
v 3 14 -6
v 6 1 6
v 6 1 4
v 6 1 -4
v 6 1 -6
v 6 7 6
v 6 7 4
v 6 7 -4
v 6 7 -6
v 6 8 -5
v 6 8 -6
v 6 19 -5
v 6 19 -6
v 7 7 7
v 7 7 3
v 7 7 2
v 7 7 -2
v 7 7 -3
v 7 7 -7
v 7 8 7
v 7 8 3
v 7 8 2
v 7 8 -2
v 7 8 -3
v 7 8 -7
v -14 7 7
v -14 8 7
v 7 7 7
v 7 8 7
v -13 1 6
v -13 7 6
v -11 1 6
v -11 7 6
v 4 1 6
v 4 7 6
v 6 1 6
v 6 7 6
v -14 7 2
v -14 8 2
v -9 7 2
v -9 8 2
v -7 7 2
v -7 8 2
v 1 7 2
v 1 8 2
v 3 7 2
v 3 8 2
v 7 7 2
v 7 8 2
v -14 7 -3
v -14 8 -3
v -9 7 -3
v -9 8 -3
v -7 7 -3
v -7 8 -3
v 1 7 -3
v 1 8 -3
v 3 7 -3
v 3 8 -3
v 7 7 -3
v 7 8 -3
v -13 1 -4
v -13 7 -4
v -12 1 -4
v -12 7 -4
v 5 1 -4
v 5 7 -4
v 6 1 -4
v 6 7 -4
v -13 8 -5
v -13 19 -5
v -12 1 -5
v -12 7 -5
v -11 1 -5
v -11 7 -5
v -11 8 -5
v -11 12 -5
v -11 13 -5
v -11 14 -5
v -11 15 -5
v -11 17 -5
v -11 18 -5
v -11 19 -5
v -10 12 -5
v -10 13 -5
v -10 14 -5
v -10 15 -5
v -5 8 -5
v -5 12 -5
v -5 15 -5
v -5 17 -5
v -5 18 -5
v -5 19 -5
v -4 8 -5
v -4 10 -5
v -4 16 -5
v -4 17 -5
v -4 18 -5
v -4 19 -5
v -3 8 -5
v -3 10 -5
v -3 16 -5
v -3 17 -5
v -3 18 -5
v -3 19 -5
v -2 8 -5
v -2 12 -5
v -2 15 -5
v -2 17 -5
v -2 18 -5
v -2 19 -5
v 3 12 -5
v 3 13 -5
v 3 14 -5
v 3 15 -5
v 4 1 -5
v 4 7 -5
v 4 8 -5
v 4 12 -5
v 4 13 -5
v 4 14 -5
v 4 15 -5
v 4 17 -5
v 4 18 -5
v 4 19 -5
v 5 1 -5
v 5 7 -5
v 6 8 -5
v 6 19 -5
v -12 1 5
v -12 7 5
v -11 1 5
v -11 7 5
v 4 1 5
v 4 7 5
v 5 1 5
v 5 7 5
v -13 1 4
v -13 7 4
v -12 1 4
v -12 7 4
v 5 1 4
v 5 7 4
v 6 1 4
v 6 7 4
v -14 7 3
v -14 8 3
v -9 7 3
v -9 8 3
v -7 7 3
v -7 8 3
v 1 7 3
v 1 8 3
v 3 7 3
v 3 8 3
v 7 7 3
v 7 8 3
v -14 7 -2
v -14 8 -2
v -9 7 -2
v -9 8 -2
v -7 7 -2
v -7 8 -2
v 1 7 -2
v 1 8 -2
v 3 7 -2
v 3 8 -2
v 7 7 -2
v 7 8 -2
v -13 1 -6
v -13 7 -6
v -13 8 -6
v -13 19 -6
v -11 1 -6
v -11 7 -6
v -11 8 -6
v -11 12 -6
v -11 13 -6
v -11 14 -6
v -11 15 -6
v -11 17 -6
v -11 18 -6
v -11 19 -6
v -10 12 -6
v -10 13 -6
v -10 14 -6
v -10 15 -6
v -5 8 -6
v -5 12 -6
v -5 15 -6
v -5 17 -6
v -5 18 -6
v -5 19 -6
v -4 8 -6
v -4 10 -6
v -4 16 -6
v -4 17 -6
v -4 18 -6
v -4 19 -6
v -3 8 -6
v -3 10 -6
v -3 16 -6
v -3 17 -6
v -3 18 -6
v -3 19 -6
v -2 8 -6
v -2 12 -6
v -2 15 -6
v -2 17 -6
v -2 18 -6
v -2 19 -6
v 3 12 -6
v 3 13 -6
v 3 14 -6
v 3 15 -6
v 4 1 -6
v 4 7 -6
v 4 8 -6
v 4 12 -6
v 4 13 -6
v 4 14 -6
v 4 15 -6
v 4 17 -6
v 4 18 -6
v 4 19 -6
v 6 1 -6
v 6 7 -6
v 6 8 -6
v 6 19 -6
v -14 7 -7
v -14 8 -7
v 7 7 -7
v 7 8 -7
v -13 1 6
v -11 1 6
v 4 1 6
v 6 1 6
v -12 1 5
v -11 1 5
v 4 1 5
v 5 1 5
v -13 1 4
v -12 1 4
v 5 1 4
v 6 1 4
v -13 1 -4
v -12 1 -4
v 5 1 -4
v 6 1 -4
v -12 1 -5
v -11 1 -5
v 4 1 -5
v 5 1 -5
v -13 1 -6
v -11 1 -6
v 4 1 -6
v 6 1 -6
v -14 7 7
v 7 7 7
v -13 7 6
v -11 7 6
v 4 7 6
v 6 7 6
v -12 7 5
v -11 7 5
v 4 7 5
v 5 7 5
v -13 7 4
v -12 7 4
v 5 7 4
v 6 7 4
v -14 7 3
v -9 7 3
v -7 7 3
v 1 7 3
v 3 7 3
v 7 7 3
v -14 7 2
v -9 7 2
v -7 7 2
v 1 7 2
v 3 7 2
v 7 7 2
v -14 7 -2
v -9 7 -2
v -7 7 -2
v 1 7 -2
v 3 7 -2
v 7 7 -2
v -14 7 -3
v -9 7 -3
v -7 7 -3
v 1 7 -3
v 3 7 -3
v 7 7 -3
v -13 7 -4
v -12 7 -4
v 5 7 -4
v 6 7 -4
v -12 7 -5
v -11 7 -5
v 4 7 -5
v 5 7 -5
v -13 7 -6
v -11 7 -6
v 4 7 -6
v 6 7 -6
v -14 7 -7
v 7 7 -7
v -4 10 -5
v -3 10 -5
v -4 10 -6
v -3 10 -6
v -11 12 -5
v -10 12 -5
v -5 12 -5
v -2 12 -5
v 3 12 -5
v 4 12 -5
v -11 12 -6
v -10 12 -6
v -5 12 -6
v -2 12 -6
v 3 12 -6
v 4 12 -6
v -11 14 -5
v -10 14 -5
v 3 14 -5
v 4 14 -5
v -11 14 -6
v -10 14 -6
v 3 14 -6
v 4 14 -6
v -11 17 -5
v -5 17 -5
v -4 17 -5
v -3 17 -5
v -2 17 -5
v 4 17 -5
v -11 17 -6
v -5 17 -6
v -4 17 -6
v -3 17 -6
v -2 17 -6
v 4 17 -6
v -14 8 7
v 7 8 7
v -14 8 3
v -9 8 3
v -7 8 3
v 1 8 3
v 3 8 3
v 7 8 3
v -14 8 2
v -9 8 2
v -7 8 2
v 1 8 2
v 3 8 2
v 7 8 2
v -14 8 -2
v -9 8 -2
v -7 8 -2
v 1 8 -2
v 3 8 -2
v 7 8 -2
v -14 8 -3
v -9 8 -3
v -7 8 -3
v 1 8 -3
v 3 8 -3
v 7 8 -3
v -13 8 -5
v -11 8 -5
v -5 8 -5
v -4 8 -5
v -3 8 -5
v -2 8 -5
v 4 8 -5
v 6 8 -5
v -13 8 -6
v -11 8 -6
v -5 8 -6
v -4 8 -6
v -3 8 -6
v -2 8 -6
v 4 8 -6
v 6 8 -6
v -14 8 -7
v 7 8 -7
v -11 13 -5
v -10 13 -5
v 3 13 -5
v 4 13 -5
v -11 13 -6
v -10 13 -6
v 3 13 -6
v 4 13 -6
v -11 15 -5
v -10 15 -5
v -5 15 -5
v -2 15 -5
v 3 15 -5
v 4 15 -5
v -11 15 -6
v -10 15 -6
v -5 15 -6
v -2 15 -6
v 3 15 -6
v 4 15 -6
v -4 16 -5
v -3 16 -5
v -4 16 -6
v -3 16 -6
v -11 18 -5
v -5 18 -5
v -4 18 -5
v -3 18 -5
v -2 18 -5
v 4 18 -5
v -11 18 -6
v -5 18 -6
v -4 18 -6
v -3 18 -6
v -2 18 -6
v 4 18 -6
v -13 19 -5
v -11 19 -5
v -5 19 -5
v -4 19 -5
v -3 19 -5
v -2 19 -5
v 4 19 -5
v 6 19 -5
v -13 19 -6
v -11 19 -6
v -5 19 -6
v -4 19 -6
v -3 19 -6
v -2 19 -6
v 4 19 -6
v 6 19 -6

# faces
f 7/2/1 2/2/1 1/2/1
f 8/2/1 2/2/1 7/2/1
f 9/2/1 4/2/1 3/2/1
f 10/2/1 4/2/1 9/2/1
f 11/2/1 6/2/1 5/2/1
f 12/2/1 6/2/1 11/2/1
f 17/1/1 14/1/1 13/1/1
f 18/1/1 14/1/1 17/1/1
f 19/1/1 16/1/1 15/1/1
f 20/1/1 16/1/1 19/1/1
f 23/2/1 22/2/1 21/2/1
f 24/2/1 22/2/1 23/2/1
f 27/2/1 26/2/1 25/2/1
f 28/2/1 26/2/1 27/2/1
f 33/1/1 30/1/1 29/1/1
f 34/1/1 30/1/1 33/1/1
f 35/1/1 32/1/1 31/1/1
f 36/1/1 32/1/1 35/1/1
f 39/1/1 38/1/1 37/1/1
f 40/1/1 38/1/1 39/1/1
f 43/1/1 42/1/1 41/1/1
f 44/1/1 42/1/1 43/1/1
f 47/1/1 46/1/1 45/1/1
f 48/1/1 46/1/1 47/1/1
f 51/1/1 50/1/1 49/1/1
f 52/1/1 50/1/1 51/1/1
f 55/1/1 54/1/1 53/1/1
f 56/1/1 54/1/1 55/1/1
f 59/1/1 58/1/1 57/1/1
f 60/1/1 58/1/1 59/1/1
f 65/1/1 62/1/1 61/1/1
f 66/1/1 62/1/1 65/1/1
f 67/1/1 64/1/1 63/1/1
f 68/1/1 64/1/1 67/1/1
f 73/1/1 70/1/1 69/1/1
f 74/1/1 70/1/1 73/1/1
f 75/1/1 72/1/1 71/1/1
f 76/1/1 72/1/1 75/1/1
f 79/2/1 78/2/1 77/2/1
f 80/2/1 78/2/1 79/2/1
f 83/2/1 82/2/1 81/2/1
f 84/2/1 82/2/1 83/2/1
f 87/2/1 86/2/1 85/2/1
f 88/2/1 86/2/1 87/2/1
f 91/2/1 90/2/1 89/2/1
f 92/2/1 90/2/1 91/2/1
f 97/1/1 94/1/1 93/1/1
f 98/1/1 94/1/1 97/1/1
f 99/1/1 96/1/1 95/1/1
f 100/1/1 96/1/1 99/1/1
f 101/1/2 102/1/2 105/1/2
f 105/1/2 102/1/2 106/1/2
f 103/1/2 104/1/2 107/1/2
f 107/1/2 104/1/2 108/1/2
f 109/1/2 110/1/2 113/1/2
f 113/1/2 110/1/2 114/1/2
f 111/1/2 112/1/2 115/1/2
f 115/1/2 112/1/2 116/1/2
f 117/2/2 118/2/2 119/2/2
f 119/2/2 118/2/2 120/2/2
f 121/2/2 122/2/2 123/2/2
f 123/2/2 122/2/2 124/2/2
f 125/2/2 126/2/2 127/2/2
f 127/2/2 126/2/2 128/2/2
f 129/2/2 130/2/2 131/2/2
f 131/2/2 130/2/2 132/2/2
f 133/1/2 134/1/2 137/1/2
f 137/1/2 134/1/2 138/1/2
f 135/1/2 136/1/2 139/1/2
f 139/1/2 136/1/2 140/1/2
f 141/1/2 142/1/2 143/1/2
f 143/1/2 142/1/2 144/1/2
f 145/1/2 146/1/2 147/1/2
f 147/1/2 146/1/2 148/1/2
f 149/1/2 150/1/2 151/1/2
f 151/1/2 150/1/2 152/1/2
f 153/1/2 154/1/2 155/1/2
f 155/1/2 154/1/2 156/1/2
f 157/1/2 158/1/2 159/1/2
f 159/1/2 158/1/2 160/1/2
f 161/1/2 162/1/2 163/1/2
f 163/1/2 162/1/2 164/1/2
f 165/1/2 166/1/2 169/1/2
f 169/1/2 166/1/2 170/1/2
f 167/1/2 168/1/2 171/1/2
f 171/1/2 168/1/2 172/1/2
f 173/2/2 174/2/2 175/2/2
f 175/2/2 174/2/2 176/2/2
f 177/1/2 178/1/2 181/1/2
f 181/1/2 178/1/2 182/1/2
f 179/1/2 180/1/2 183/1/2
f 183/1/2 180/1/2 184/1/2
f 185/2/2 186/2/2 187/2/2
f 187/2/2 186/2/2 188/2/2
f 189/2/2 190/2/2 195/2/2
f 195/2/2 190/2/2 196/2/2
f 191/2/2 192/2/2 197/2/2
f 197/2/2 192/2/2 198/2/2
f 193/2/2 194/2/2 199/2/2
f 199/2/2 194/2/2 200/2/2
f 203/2/3 202/2/3 201/2/3
f 204/2/3 202/2/3 203/2/3
f 207/1/3 206/1/3 205/1/3
f 208/1/3 206/1/3 207/1/3
f 211/1/3 210/1/3 209/1/3
f 212/1/3 210/1/3 211/1/3
f 215/2/3 214/2/3 213/2/3
f 216/2/3 214/2/3 215/2/3
f 219/2/3 218/2/3 217/2/3
f 220/2/3 218/2/3 219/2/3
f 223/2/3 222/2/3 221/2/3
f 224/2/3 222/2/3 223/2/3
f 227/2/3 226/2/3 225/2/3
f 228/2/3 226/2/3 227/2/3
f 231/2/3 230/2/3 229/2/3
f 232/2/3 230/2/3 231/2/3
f 235/2/3 234/2/3 233/2/3
f 236/2/3 234/2/3 235/2/3
f 239/1/3 238/1/3 237/1/3
f 240/1/3 238/1/3 239/1/3
f 243/1/3 242/1/3 241/1/3
f 244/1/3 242/1/3 243/1/3
f 249/1/3 248/1/3 247/1/3
f 250/1/3 248/1/3 249/1/3
f 251/2/3 246/2/3 245/2/3
f 252/2/3 246/2/3 251/2/3
f 253/2/3 246/2/3 252/2/3
f 254/2/3 246/2/3 253/2/3
f 255/2/3 246/2/3 254/2/3
f 256/2/3 246/2/3 255/2/3
f 257/2/3 246/2/3 256/2/3
f 258/2/3 246/2/3 257/2/3
f 259/1/3 253/1/3 252/1/3
f 260/1/3 253/1/3 259/1/3
f 261/1/3 255/1/3 254/1/3
f 262/1/3 255/1/3 261/1/3
f 264/2/3 260/2/3 259/2/3
f 264/2/3 261/2/3 260/2/3
f 264/2/3 262/2/3 261/2/3
f 265/2/3 262/2/3 264/2/3
f 266/2/3 257/2/3 256/2/3
f 267/2/3 257/2/3 266/2/3
f 269/1/3 264/1/3 263/1/3
f 270/1/3 264/1/3 269/1/3
f 271/1/3 266/1/3 265/1/3
f 272/2/3 267/2/3 266/2/3
f 272/1/3 266/1/3 271/1/3
f 273/1/3 268/1/3 267/1/3
f 273/2/3 267/2/3 272/2/3
f 274/1/3 268/1/3 273/1/3
f 276/1/3 264/1/3 270/1/3
f 277/1/3 271/1/3 265/1/3
f 278/2/3 273/2/3 272/2/3
f 279/2/3 273/2/3 278/2/3
f 281/1/3 276/1/3 275/1/3
f 282/2/3 265/2/3 264/2/3
f 282/1/3 276/1/3 281/1/3
f 282/1/3 264/1/3 276/1/3
f 283/1/3 277/1/3 265/1/3
f 283/2/3 265/2/3 282/2/3
f 283/1/3 278/1/3 277/1/3
f 284/2/3 279/2/3 278/2/3
f 284/1/3 278/1/3 283/1/3
f 285/1/3 280/1/3 279/1/3
f 285/2/3 279/2/3 284/2/3
f 286/1/3 280/1/3 285/1/3
f 287/2/3 283/2/3 282/2/3
f 288/2/3 283/2/3 287/2/3
f 289/2/3 283/2/3 288/2/3
f 290/2/3 283/2/3 289/2/3
f 294/1/3 288/1/3 287/1/3
f 295/1/3 288/1/3 294/1/3
f 296/1/3 290/1/3 289/1/3
f 297/1/3 290/1/3 296/1/3
f 298/2/3 285/2/3 284/2/3
f 299/2/3 285/2/3 298/2/3
f 301/1/3 292/1/3 291/1/3
f 302/1/3 292/1/3 301/1/3
f 303/2/3 297/2/3 296/2/3
f 303/2/3 300/2/3 299/2/3
f 303/2/3 299/2/3 298/2/3
f 303/2/3 298/2/3 297/2/3
f 303/2/3 296/2/3 295/2/3
f 303/2/3 295/2/3 294/2/3
f 303/2/3 294/2/3 293/2/3
f 304/2/3 300/2/3 303/2/3
f 305/1/4 306/1/4 307/1/4
f 307/1/4 306/1/4 308/1/4
f 309/1/4 310/1/4 311/1/4
f 311/1/4 310/1/4 312/1/4
f 313/1/4 314/1/4 315/1/4
f 315/1/4 314/1/4 316/1/4
f 317/1/4 318/1/4 319/1/4
f 319/1/4 318/1/4 320/1/4
f 321/2/4 322/2/4 323/2/4
f 323/2/4 322/2/4 324/2/4
f 325/2/4 326/2/4 327/2/4
f 327/2/4 326/2/4 328/2/4
f 329/2/4 330/2/4 331/2/4
f 331/2/4 330/2/4 332/2/4
f 333/2/4 334/2/4 335/2/4
f 335/2/4 334/2/4 336/2/4
f 337/2/4 338/2/4 339/2/4
f 339/2/4 338/2/4 340/2/4
f 341/2/4 342/2/4 343/2/4
f 343/2/4 342/2/4 344/2/4
f 345/1/4 346/1/4 349/1/4
f 349/1/4 346/1/4 350/1/4
f 347/2/4 348/2/4 351/2/4
f 351/2/4 348/2/4 352/2/4
f 352/2/4 348/2/4 353/2/4
f 353/2/4 348/2/4 354/2/4
f 354/2/4 348/2/4 355/2/4
f 355/2/4 348/2/4 356/2/4
f 356/2/4 348/2/4 357/2/4
f 357/2/4 348/2/4 358/2/4
f 352/1/4 353/1/4 359/1/4
f 359/1/4 353/1/4 360/1/4
f 354/1/4 355/1/4 361/1/4
f 361/1/4 355/1/4 362/1/4
f 359/2/4 360/2/4 364/2/4
f 360/2/4 361/2/4 364/2/4
f 361/2/4 362/2/4 364/2/4
f 364/2/4 362/2/4 365/2/4
f 356/2/4 357/2/4 366/2/4
f 366/2/4 357/2/4 367/2/4
f 363/1/4 364/1/4 369/1/4
f 369/1/4 364/1/4 370/1/4
f 365/1/4 366/1/4 371/1/4
f 366/2/4 367/2/4 372/2/4
f 371/1/4 366/1/4 372/1/4
f 367/1/4 368/1/4 373/1/4
f 372/2/4 367/2/4 373/2/4
f 373/1/4 368/1/4 374/1/4
f 370/1/4 364/1/4 376/1/4
f 365/1/4 371/1/4 377/1/4
f 372/2/4 373/2/4 378/2/4
f 378/2/4 373/2/4 379/2/4
f 375/1/4 376/1/4 381/1/4
f 364/2/4 365/2/4 382/2/4
f 381/1/4 376/1/4 382/1/4
f 376/1/4 364/1/4 382/1/4
f 365/1/4 377/1/4 383/1/4
f 382/2/4 365/2/4 383/2/4
f 377/1/4 378/1/4 383/1/4
f 378/2/4 379/2/4 384/2/4
f 383/1/4 378/1/4 384/1/4
f 379/1/4 380/1/4 385/1/4
f 384/2/4 379/2/4 385/2/4
f 385/1/4 380/1/4 386/1/4
f 382/2/4 383/2/4 387/2/4
f 387/2/4 383/2/4 388/2/4
f 388/2/4 383/2/4 389/2/4
f 389/2/4 383/2/4 390/2/4
f 387/1/4 388/1/4 394/1/4
f 394/1/4 388/1/4 395/1/4
f 389/1/4 390/1/4 396/1/4
f 396/1/4 390/1/4 397/1/4
f 384/2/4 385/2/4 398/2/4
f 398/2/4 385/2/4 399/2/4
f 391/1/4 392/1/4 401/1/4
f 401/1/4 392/1/4 402/1/4
f 396/2/4 397/2/4 403/2/4
f 399/2/4 400/2/4 403/2/4
f 395/2/4 396/2/4 403/2/4
f 398/2/4 399/2/4 403/2/4
f 397/2/4 398/2/4 403/2/4
f 394/2/4 395/2/4 403/2/4
f 393/2/4 394/2/4 403/2/4
f 403/2/4 400/2/4 404/2/4
f 405/2/4 406/2/4 407/2/4
f 407/2/4 406/2/4 408/2/4
f 413/1/5 410/1/5 409/1/5
f 414/1/5 410/1/5 413/1/5
f 415/1/5 412/1/5 411/1/5
f 416/1/5 412/1/5 415/1/5
f 417/1/5 413/1/5 409/1/5
f 418/1/5 413/1/5 417/1/5
f 419/1/5 412/1/5 416/1/5
f 420/1/5 412/1/5 419/1/5
f 425/1/5 422/1/5 421/1/5
f 428/1/5 424/1/5 423/1/5
f 429/1/5 426/1/5 425/1/5
f 429/1/5 425/1/5 421/1/5
f 430/1/5 426/1/5 429/1/5
f 431/1/5 428/1/5 427/1/5
f 432/1/5 424/1/5 428/1/5
f 432/1/5 428/1/5 431/1/5
f 435/2/5 434/2/5 433/2/5
f 436/2/5 434/2/5 435/2/5
f 437/2/5 434/2/5 436/2/5
f 438/2/5 434/2/5 437/2/5
f 440/2/5 437/2/5 436/2/5
f 441/2/5 437/2/5 440/2/5
f 443/2/5 435/2/5 433/2/5
f 444/2/5 442/2/5 441/2/5
f 444/2/5 440/2/5 439/2/5
f 444/2/5 441/2/5 440/2/5
f 445/2/5 442/2/5 444/2/5
f 446/2/5 434/2/5 438/2/5
f 447/2/5 443/2/5 433/2/5
f 447/2/5 446/2/5 445/2/5
f 447/2/5 445/2/5 444/2/5
f 447/2/5 444/2/5 443/2/5
f 448/2/5 446/2/5 447/2/5
f 449/2/5 446/2/5 448/2/5
f 450/2/5 446/2/5 449/2/5
f 451/2/5 446/2/5 450/2/5
f 452/2/5 434/2/5 446/2/5
f 452/2/5 446/2/5 451/2/5
f 454/1/5 449/1/5 448/1/5
f 455/1/5 449/1/5 454/1/5
f 456/1/5 451/1/5 450/1/5
f 457/1/5 451/1/5 456/1/5
f 459/2/5 455/2/5 454/2/5
f 459/2/5 458/2/5 457/2/5
f 459/2/5 457/2/5 456/2/5
f 459/2/5 456/2/5 455/2/5
f 459/2/5 454/2/5 453/2/5
f 460/2/5 458/2/5 459/2/5
f 461/2/5 458/2/5 460/2/5
f 462/2/5 458/2/5 461/2/5
f 463/2/5 458/2/5 462/2/5
f 464/2/5 458/2/5 463/2/5
f 466/1/5 461/1/5 460/1/5
f 467/1/5 461/1/5 466/1/5
f 468/1/5 463/1/5 462/1/5
f 469/1/5 463/1/5 468/1/5
f 471/2/5 467/2/5 466/2/5
f 471/2/5 470/2/5 469/2/5
f 471/2/5 469/2/5 468/2/5
f 471/2/5 468/2/5 467/2/5
f 471/2/5 466/2/5 465/2/5
f 472/2/5 470/2/5 471/2/5
f 473/2/5 470/2/5 472/2/5
f 474/2/5 470/2/5 473/2/5
f 475/2/5 473/2/5 472/2/5
f 476/2/5 473/2/5 475/2/5
f 477/2/5 473/2/5 476/2/5
f 478/2/5 473/2/5 477/2/5
f 479/2/5 471/2/5 465/2/5
f 480/2/5 477/2/5 476/2/5
f 481/2/5 477/2/5 480/2/5
f 482/2/5 470/2/5 474/2/5
f 483/2/5 481/2/5 480/2/5
f 483/2/5 482/2/5 481/2/5
f 483/2/5 480/2/5 479/2/5
f 483/2/5 479/2/5 465/2/5
f 484/2/5 470/2/5 482/2/5
f 484/2/5 482/2/5 483/2/5
f 487/1/5 486/1/5 485/1/5
f 488/1/5 486/1/5 487/1/5
f 495/1/5 490/1/5 489/1/5
f 496/2/5 491/2/5 490/2/5
f 496/1/5 490/1/5 495/1/5
f 497/2/5 491/2/5 496/2/5
f 498/2/5 493/2/5 492/2/5
f 499/1/5 494/1/5 493/1/5
f 499/2/5 493/2/5 498/2/5
f 500/1/5 494/1/5 499/1/5
f 505/1/5 502/1/5 501/1/5
f 506/1/5 502/1/5 505/1/5
f 507/1/5 504/1/5 503/1/5
f 508/1/5 504/1/5 507/1/5
f 515/2/5 510/2/5 509/2/5
f 516/2/5 510/2/5 515/2/5
f 517/2/5 512/2/5 511/2/5
f 518/2/5 512/2/5 517/2/5
f 519/2/5 514/2/5 513/2/5
f 520/2/5 514/2/5 519/2/5
f 521/2/6 522/2/6 523/2/6
f 523/2/6 522/2/6 524/2/6
f 524/2/6 522/2/6 525/2/6
f 525/2/6 522/2/6 526/2/6
f 526/2/6 522/2/6 527/2/6
f 527/2/6 522/2/6 528/2/6
f 524/1/6 525/1/6 530/1/6
f 530/1/6 525/1/6 531/1/6
f 526/1/6 527/1/6 532/1/6
f 532/1/6 527/1/6 533/1/6
f 530/2/6 531/2/6 535/2/6
f 533/2/6 534/2/6 535/2/6
f 532/2/6 533/2/6 535/2/6
f 531/2/6 532/2/6 535/2/6
f 529/2/6 530/2/6 535/2/6
f 535/2/6 534/2/6 536/2/6
f 536/2/6 534/2/6 537/2/6
f 537/2/6 534/2/6 538/2/6
f 538/2/6 534/2/6 539/2/6
f 539/2/6 534/2/6 540/2/6
f 536/1/6 537/1/6 542/1/6
f 542/1/6 537/1/6 543/1/6
f 538/1/6 539/1/6 544/1/6
f 544/1/6 539/1/6 545/1/6
f 542/2/6 543/2/6 547/2/6
f 545/2/6 546/2/6 547/2/6
f 544/2/6 545/2/6 547/2/6
f 543/2/6 544/2/6 547/2/6
f 541/2/6 542/2/6 547/2/6
f 547/2/6 546/2/6 548/2/6
f 548/2/6 546/2/6 549/2/6
f 549/2/6 546/2/6 550/2/6
f 550/2/6 546/2/6 551/2/6
f 551/2/6 546/2/6 552/2/6
f 552/2/6 546/2/6 553/2/6
f 553/2/6 546/2/6 554/2/6
f 541/2/6 547/2/6 555/2/6
f 548/2/6 549/2/6 556/2/6
f 556/2/6 549/2/6 557/2/6
f 550/2/6 551/2/6 558/2/6
f 558/2/6 551/2/6 559/2/6
f 552/2/6 553/2/6 560/2/6
f 560/2/6 553/2/6 561/2/6
f 554/2/6 546/2/6 562/2/6
f 560/2/6 561/2/6 563/2/6
f 561/2/6 562/2/6 563/2/6
f 558/2/6 559/2/6 563/2/6
f 541/2/6 555/2/6 563/2/6
f 559/2/6 560/2/6 563/2/6
f 556/2/6 557/2/6 563/2/6
f 557/2/6 558/2/6 563/2/6
f 555/2/6 556/2/6 563/2/6
f 562/2/6 546/2/6 564/2/6
f 563/2/6 562/2/6 564/2/6
f 565/1/6 566/1/6 569/1/6
f 569/1/6 566/1/6 570/1/6
f 567/1/6 568/1/6 571/1/6
f 571/1/6 568/1/6 572/1/6
f 573/1/6 574/1/6 579/1/6
f 574/2/6 575/2/6 580/2/6
f 579/1/6 574/1/6 580/1/6
f 580/2/6 575/2/6 581/2/6
f 576/2/6 577/2/6 582/2/6
f 577/1/6 578/1/6 583/1/6
f 582/2/6 577/2/6 583/2/6
f 583/1/6 578/1/6 584/1/6
f 585/1/6 586/1/6 587/1/6
f 587/1/6 586/1/6 588/1/6
f 589/2/6 590/2/6 595/2/6
f 595/2/6 590/2/6 596/2/6
f 591/2/6 592/2/6 597/2/6
f 597/2/6 592/2/6 598/2/6
f 593/2/6 594/2/6 599/2/6
f 599/2/6 594/2/6 600/2/6
f 601/2/6 602/2/6 609/2/6
f 609/2/6 602/2/6 610/2/6
f 603/1/6 604/1/6 611/1/6
f 611/1/6 604/1/6 612/1/6
f 605/1/6 606/1/6 613/1/6
f 613/1/6 606/1/6 614/1/6
f 607/2/6 608/2/6 615/2/6
f 615/2/6 608/2/6 616/2/6
