# MagicaVoxel @ Ephtracy

# group
g RoadTee

# material
mtllib RoadTee.mtl
usemtl palette

# normals
vn -1 0 0
vn 1 0 0
vn 0 0 1
vn 0 0 -1
vn 0 -1 0
vn 0 1 0

# texcoords
vt 0.681641 0.5
vt 0.712891 0.5
vt 0.912109 0.5

# verts
v -32 0 32
v -32 0 16
v -32 0 2
v -32 0 -2
v -32 0 -16
v -32 0 -32
v -32 1 16
v -32 1 2
v -32 1 -2
v -32 1 -16
v -32 3 32
v -32 3 16
v -32 3 -16
v -32 3 -32
v 16 1 32
v 16 1 16
v 16 3 32
v 16 3 16
v -16 1 32
v -16 1 16
v -16 3 32
v -16 3 16
v 32 0 32
v 32 0 16
v 32 0 2
v 32 0 -2
v 32 0 -16
v 32 0 -32
v 32 1 16
v 32 1 2
v 32 1 -2
v 32 1 -16
v 32 3 32
v 32 3 16
v 32 3 -16
v 32 3 -32
v -32 0 32
v -32 3 32
v -16 0 32
v -16 1 32
v -16 3 32
v -2 0 32
v -2 1 32
v 2 0 32
v 2 1 32
v 16 0 32
v 16 1 32
v 16 3 32
v 32 0 32
v 32 3 32
v -32 1 -16
v -32 3 -16
v 32 1 -16
v 32 3 -16
v -32 1 16
v -32 3 16
v -16 1 16
v -16 3 16
v 16 1 16
v 16 3 16
v 32 1 16
v 32 3 16
v -32 0 -32
v -32 3 -32
v 32 0 -32
v 32 3 -32
v -32 0 32
v -16 0 32
v -2 0 32
v 2 0 32
v 16 0 32
v 32 0 32
v -2 0 24
v 2 0 24
v -32 0 16
v -16 0 16
v 16 0 16
v 32 0 16
v -2 0 8
v 2 0 8
v -32 0 2
v -24 0 2
v -8 0 2
v -2 0 2
v 2 0 2
v 8 0 2
v 24 0 2
v 32 0 2
v -32 0 -2
v -24 0 -2
v -8 0 -2
v 8 0 -2
v 24 0 -2
v 32 0 -2
v -32 0 -16
v 32 0 -16
v -32 0 -32
v 32 0 -32
v -16 1 32
v -2 1 32
v 2 1 32
v 16 1 32
v -2 1 24
v 2 1 24
v -32 1 16
v -16 1 16
v 16 1 16
v 32 1 16
v -2 1 8
v 2 1 8
v -32 1 2
v -24 1 2
v -8 1 2
v -2 1 2
v 2 1 2
v 8 1 2
v 24 1 2
v 32 1 2
v -32 1 -2
v -24 1 -2
v -8 1 -2
v 8 1 -2
v 24 1 -2
v 32 1 -2
v -32 1 -16
v 32 1 -16
v -32 3 32
v -16 3 32
v 16 3 32
v 32 3 32
v -32 3 16
v -16 3 16
v 16 3 16
v 32 3 16
v -32 3 -16
v 32 3 -16
v -32 3 -32
v 32 3 -32

# faces
f 7/1/1 2/1/1 1/1/1
f 7/2/1 3/2/1 2/2/1
f 8/3/1 4/3/1 3/3/1
f 8/2/1 3/2/1 7/2/1
f 9/2/1 5/2/1 4/2/1
f 9/3/1 4/3/1 8/3/1
f 10/1/1 6/1/1 5/1/1
f 10/2/1 5/2/1 9/2/1
f 11/1/1 7/1/1 1/1/1
f 12/1/1 7/1/1 11/1/1
f 13/1/1 6/1/1 10/1/1
f 14/1/1 6/1/1 13/1/1
f 17/1/1 16/1/1 15/1/1
f 18/1/1 16/1/1 17/1/1
f 19/1/2 20/1/2 21/1/2
f 21/1/2 20/1/2 22/1/2
f 23/1/2 24/1/2 29/1/2
f 24/2/2 25/2/2 29/2/2
f 25/3/2 26/3/2 30/3/2
f 29/2/2 25/2/2 30/2/2
f 26/2/2 27/2/2 31/2/2
f 30/3/2 26/3/2 31/3/2
f 27/1/2 28/1/2 32/1/2
f 31/2/2 27/2/2 32/2/2
f 23/1/2 29/1/2 33/1/2
f 33/1/2 29/1/2 34/1/2
f 32/1/2 28/1/2 35/1/2
f 35/1/2 28/1/2 36/1/2
f 39/1/3 38/1/3 37/1/3
f 40/1/3 38/1/3 39/1/3
f 41/1/3 38/1/3 40/1/3
f 42/2/3 40/2/3 39/2/3
f 43/2/3 40/2/3 42/2/3
f 44/3/3 43/3/3 42/3/3
f 45/3/3 43/3/3 44/3/3
f 46/2/3 45/2/3 44/2/3
f 47/2/3 45/2/3 46/2/3
f 49/1/3 47/1/3 46/1/3
f 49/1/3 48/1/3 47/1/3
f 50/1/3 48/1/3 49/1/3
f 53/1/3 52/1/3 51/1/3
f 54/1/3 52/1/3 53/1/3
f 55/1/4 56/1/4 57/1/4
f 57/1/4 56/1/4 58/1/4
f 59/1/4 60/1/4 61/1/4
f 61/1/4 60/1/4 62/1/4
f 63/1/4 64/1/4 65/1/4
f 65/1/4 64/1/4 66/1/4
f 73/2/5 69/2/5 68/2/5
f 73/3/5 70/3/5 69/3/5
f 74/2/5 71/2/5 70/2/5
f 74/3/5 70/3/5 73/3/5
f 75/1/5 68/1/5 67/1/5
f 76/2/5 73/2/5 68/2/5
f 76/1/5 68/1/5 75/1/5
f 76/2/5 74/2/5 73/2/5
f 77/2/5 71/2/5 74/2/5
f 77/2/5 74/2/5 76/2/5
f 77/1/5 72/1/5 71/1/5
f 78/1/5 72/1/5 77/1/5
f 79/2/5 76/2/5 75/2/5
f 79/2/5 77/2/5 76/2/5
f 79/2/5 78/2/5 77/2/5
f 80/2/5 78/2/5 79/2/5
f 81/2/5 79/2/5 75/2/5
f 82/2/5 79/2/5 81/2/5
f 83/2/5 79/2/5 82/2/5
f 84/3/5 80/3/5 79/3/5
f 84/2/5 79/2/5 83/2/5
f 85/2/5 78/2/5 80/2/5
f 85/3/5 80/3/5 84/3/5
f 86/2/5 78/2/5 85/2/5
f 87/2/5 78/2/5 86/2/5
f 88/2/5 78/2/5 87/2/5
f 89/3/5 82/3/5 81/3/5
f 90/2/5 83/2/5 82/2/5
f 90/3/5 82/3/5 89/3/5
f 91/3/5 84/3/5 83/3/5
f 91/2/5 83/2/5 90/2/5
f 91/3/5 85/3/5 84/3/5
f 91/3/5 86/3/5 85/3/5
f 92/2/5 87/2/5 86/2/5
f 92/3/5 86/3/5 91/3/5
f 93/3/5 88/3/5 87/3/5
f 93/2/5 87/2/5 92/2/5
f 94/3/5 88/3/5 93/3/5
f 95/2/5 90/2/5 89/2/5
f 95/2/5 92/2/5 91/2/5
f 95/2/5 94/2/5 93/2/5
f 95/2/5 93/2/5 92/2/5
f 95/2/5 91/2/5 90/2/5
f 96/2/5 94/2/5 95/2/5
f 97/1/5 96/1/5 95/1/5
f 98/1/5 96/1/5 97/1/5
f 99/2/6 100/2/6 103/2/6
f 100/3/6 101/3/6 103/3/6
f 101/2/6 102/2/6 104/2/6
f 103/3/6 101/3/6 104/3/6
f 99/2/6 103/2/6 106/2/6
f 103/2/6 104/2/6 106/2/6
f 104/2/6 102/2/6 107/2/6
f 106/2/6 104/2/6 107/2/6
f 105/2/6 106/2/6 109/2/6
f 107/2/6 108/2/6 109/2/6
f 106/2/6 107/2/6 109/2/6
f 109/2/6 108/2/6 110/2/6
f 105/2/6 109/2/6 111/2/6
f 111/2/6 109/2/6 112/2/6
f 112/2/6 109/2/6 113/2/6
f 109/3/6 110/3/6 114/3/6
f 113/2/6 109/2/6 114/2/6
f 110/2/6 108/2/6 115/2/6
f 114/3/6 110/3/6 115/3/6
f 115/2/6 108/2/6 116/2/6
f 116/2/6 108/2/6 117/2/6
f 117/2/6 108/2/6 118/2/6
f 111/3/6 112/3/6 119/3/6
f 112/2/6 113/2/6 120/2/6
f 119/3/6 112/3/6 120/3/6
f 113/3/6 114/3/6 121/3/6
f 120/2/6 113/2/6 121/2/6
f 114/3/6 115/3/6 121/3/6
f 115/3/6 116/3/6 121/3/6
f 116/2/6 117/2/6 122/2/6
f 121/3/6 116/3/6 122/3/6
f 117/3/6 118/3/6 123/3/6
f 122/2/6 117/2/6 123/2/6
f 123/3/6 118/3/6 124/3/6
f 119/2/6 120/2/6 125/2/6
f 121/2/6 122/2/6 125/2/6
f 123/2/6 124/2/6 125/2/6
f 122/2/6 123/2/6 125/2/6
f 120/2/6 121/2/6 125/2/6
f 125/2/6 124/2/6 126/2/6
f 127/1/6 128/1/6 131/1/6
f 131/1/6 128/1/6 132/1/6
f 129/1/6 130/1/6 133/1/6
f 133/1/6 130/1/6 134/1/6
f 135/1/6 136/1/6 137/1/6
f 137/1/6 136/1/6 138/1/6
