# MagicaVoxel @ Ephtracy

# group
g SeaCurve

# material
mtllib SeaCurve.mtl
usemtl palette

# normals
vn -1 0 0
vn 1 0 0
vn 0 0 1
vn 0 0 -1
vn 0 -1 0
vn 0 1 0

# texcoords
vt 0.404297 0.5
vt 0.689453 0.5

# verts
v -32 0 32
v -32 0 -32
v -32 2 32
v -32 2 -32
v -31 1 32
v -31 1 31
v -31 2 32
v -31 2 31
v -29 1 31
v -29 1 29
v -29 2 31
v -29 2 29
v -28 1 29
v -28 1 28
v -28 2 29
v -28 2 28
v -27 1 28
v -27 1 27
v -27 2 28
v -27 2 27
v -26 1 27
v -26 1 26
v -26 2 27
v -26 2 26
v -24 1 26
v -24 1 25
v -24 2 26
v -24 2 25
v -23 1 25
v -23 1 24
v -23 2 25
v -23 2 24
v -22 1 24
v -22 1 23
v -22 2 24
v -22 2 23
v -20 1 23
v -20 1 22
v -20 2 23
v -20 2 22
v -18 1 22
v -18 1 21
v -18 2 22
v -18 2 21
v -15 1 21
v -15 1 20
v -15 2 21
v -15 2 20
v -12 1 20
v -12 1 19
v -12 2 20
v -12 2 19
v -10 1 19
v -10 1 18
v -10 2 19
v -10 2 18
v -9 1 18
v -9 1 17
v -9 2 18
v -9 2 17
v -8 1 17
v -8 1 16
v -8 2 17
v -8 2 16
v -6 1 16
v -6 1 15
v -6 2 16
v -6 2 15
v -5 1 15
v -5 1 13
v -5 2 15
v -5 2 13
v -3 1 13
v -3 1 11
v -3 2 13
v -3 2 11
v -1 1 11
v -1 1 10
v -1 2 11
v -1 2 10
v 0 1 10
v 0 1 8
v 0 2 10
v 0 2 8
v 1 1 8
v 1 1 7
v 1 2 8
v 1 2 7
v 2 1 7
v 2 1 6
v 2 2 7
v 2 2 6
v 3 1 6
v 3 1 4
v 3 2 6
v 3 2 4
v 4 1 4
v 4 1 3
v 4 2 4
v 4 2 3
v 5 1 3
v 5 1 1
v 5 2 3
v 5 2 1
v 7 1 1
v 7 1 -1
v 7 2 1
v 7 2 -1
v 8 1 -1
v 8 1 -2
v 8 2 -1
v 8 2 -2
v 10 1 -2
v 10 1 -3
v 10 2 -2
v 10 2 -3
v 11 1 -3
v 11 1 -4
v 11 2 -3
v 11 2 -4
v 12 1 -4
v 12 1 -5
v 12 2 -4
v 12 2 -5
v 13 1 -5
v 13 1 -6
v 13 2 -5
v 13 2 -6
v 14 1 -6
v 14 1 -7
v 14 2 -6
v 14 2 -7
v 15 1 -7
v 15 1 -8
v 15 2 -7
v 15 2 -8
v 16 1 -8
v 16 1 -9
v 16 2 -8
v 16 2 -9
v 17 1 -9
v 17 1 -10
v 17 2 -9
v 17 2 -10
v 19 1 -10
v 19 1 -11
v 19 2 -10
v 19 2 -11
v 20 1 -11
v 20 1 -12
v 20 2 -11
v 20 2 -12
v 23 1 -12
v 23 1 -13
v 23 2 -12
v 23 2 -13
v 25 1 -13
v 25 1 -14
v 25 2 -13
v 25 2 -14
v 31 1 -14
v 31 1 -15
v 31 2 -14
v 31 2 -15
v 32 0 32
v 32 0 -15
v 32 0 -32
v 32 1 32
v 32 1 -15
v 32 2 -15
v 32 2 -32
v -32 0 32
v -32 2 32
v -31 0 32
v -31 1 32
v -31 2 32
v 32 0 32
v 32 1 32
v -31 1 31
v -31 2 31
v -29 1 31
v -29 2 31
v -29 1 29
v -29 2 29
v -28 1 29
v -28 2 29
v -28 1 28
v -28 2 28
v -27 1 28
v -27 2 28
v -27 1 27
v -27 2 27
v -26 1 27
v -26 2 27
v -26 1 26
v -26 2 26
v -24 1 26
v -24 2 26
v -24 1 25
v -24 2 25
v -23 1 25
v -23 2 25
v -23 1 24
v -23 2 24
v -22 1 24
v -22 2 24
v -22 1 23
v -22 2 23
v -20 1 23
v -20 2 23
v -20 1 22
v -20 2 22
v -18 1 22
v -18 2 22
v -18 1 21
v -18 2 21
v -15 1 21
v -15 2 21
v -15 1 20
v -15 2 20
v -12 1 20
v -12 2 20
v -12 1 19
v -12 2 19
v -10 1 19
v -10 2 19
v -10 1 18
v -10 2 18
v -9 1 18
v -9 2 18
v -9 1 17
v -9 2 17
v -8 1 17
v -8 2 17
v -8 1 16
v -8 2 16
v -6 1 16
v -6 2 16
v -6 1 15
v -6 2 15
v -5 1 15
v -5 2 15
v -5 1 13
v -5 2 13
v -3 1 13
v -3 2 13
v -3 1 11
v -3 2 11
v -1 1 11
v -1 2 11
v -1 1 10
v -1 2 10
v 0 1 10
v 0 2 10
v 0 1 8
v 0 2 8
v 1 1 8
v 1 2 8
v 1 1 7
v 1 2 7
v 2 1 7
v 2 2 7
v 2 1 6
v 2 2 6
v 3 1 6
v 3 2 6
v 3 1 4
v 3 2 4
v 4 1 4
v 4 2 4
v 4 1 3
v 4 2 3
v 5 1 3
v 5 2 3
v 5 1 1
v 5 2 1
v 7 1 1
v 7 2 1
v 7 1 -1
v 7 2 -1
v 8 1 -1
v 8 2 -1
v 8 1 -2
v 8 2 -2
v 10 1 -2
v 10 2 -2
v 10 1 -3
v 10 2 -3
v 11 1 -3
v 11 2 -3
v 11 1 -4
v 11 2 -4
v 12 1 -4
v 12 2 -4
v 12 1 -5
v 12 2 -5
v 13 1 -5
v 13 2 -5
v 13 1 -6
v 13 2 -6
v 14 1 -6
v 14 2 -6
v 14 1 -7
v 14 2 -7
v 15 1 -7
v 15 2 -7
v 15 1 -8
v 15 2 -8
v 16 1 -8
v 16 2 -8
v 16 1 -9
v 16 2 -9
v 17 1 -9
v 17 2 -9
v 17 1 -10
v 17 2 -10
v 19 1 -10
v 19 2 -10
v 19 1 -11
v 19 2 -11
v 20 1 -11
v 20 2 -11
v 20 1 -12
v 20 2 -12
v 23 1 -12
v 23 2 -12
v 23 1 -13
v 23 2 -13
v 25 1 -13
v 25 2 -13
v 25 1 -14
v 25 2 -14
v 31 1 -14
v 31 2 -14
v 31 1 -15
v 31 2 -15
v 32 1 -15
v 32 2 -15
v -32 0 -32
v -32 2 -32
v 32 0 -32
v 32 2 -32
v -32 0 32
v -31 0 32
v 32 0 32
v -31 0 31
v -29 0 31
v -29 0 29
v -28 0 29
v -28 0 28
v -27 0 28
v -27 0 27
v -26 0 27
v -26 0 26
v -24 0 26
v -24 0 25
v -23 0 25
v -23 0 24
v -22 0 24
v -22 0 23
v -20 0 23
v -20 0 22
v -18 0 22
v -18 0 21
v -15 0 21
v -15 0 20
v -12 0 20
v -12 0 19
v -10 0 19
v -10 0 18
v -9 0 18
v -9 0 17
v -8 0 17
v -8 0 16
v -6 0 16
v -6 0 15
v -5 0 15
v -5 0 13
v -3 0 13
v -3 0 11
v -1 0 11
v -1 0 10
v 0 0 10
v 0 0 8
v 1 0 8
v 1 0 7
v 2 0 7
v 2 0 6
v 3 0 6
v 3 0 4
v 4 0 4
v 4 0 3
v 5 0 3
v 5 0 1
v 7 0 1
v 7 0 -1
v 8 0 -1
v 8 0 -2
v 10 0 -2
v 10 0 -3
v 11 0 -3
v 11 0 -4
v 12 0 -4
v 12 0 -5
v 13 0 -5
v 13 0 -6
v 14 0 -6
v 14 0 -7
v 15 0 -7
v 15 0 -8
v 16 0 -8
v 16 0 -9
v 17 0 -9
v 17 0 -10
v 19 0 -10
v 19 0 -11
v 20 0 -11
v 20 0 -12
v 23 0 -12
v 23 0 -13
v 25 0 -13
v 25 0 -14
v 31 0 -14
v 31 0 -15
v 32 0 -15
v -32 0 -32
v 32 0 -32
v -31 1 32
v 32 1 32
v -31 1 31
v -29 1 31
v -29 1 29
v -28 1 29
v -28 1 28
v -27 1 28
v -27 1 27
v -26 1 27
v -26 1 26
v -24 1 26
v -24 1 25
v -23 1 25
v -23 1 24
v -22 1 24
v -22 1 23
v -20 1 23
v -20 1 22
v -18 1 22
v -18 1 21
v -15 1 21
v -15 1 20
v -12 1 20
v -12 1 19
v -10 1 19
v -10 1 18
v -9 1 18
v -9 1 17
v -8 1 17
v -8 1 16
v -6 1 16
v -6 1 15
v -5 1 15
v -5 1 13
v -3 1 13
v -3 1 11
v -1 1 11
v -1 1 10
v 0 1 10
v 0 1 8
v 1 1 8
v 1 1 7
v 2 1 7
v 2 1 6
v 3 1 6
v 3 1 4
v 4 1 4
v 4 1 3
v 5 1 3
v 5 1 1
v 7 1 1
v 7 1 -1
v 8 1 -1
v 8 1 -2
v 10 1 -2
v 10 1 -3
v 11 1 -3
v 11 1 -4
v 12 1 -4
v 12 1 -5
v 13 1 -5
v 13 1 -6
v 14 1 -6
v 14 1 -7
v 15 1 -7
v 15 1 -8
v 16 1 -8
v 16 1 -9
v 17 1 -9
v 17 1 -10
v 19 1 -10
v 19 1 -11
v 20 1 -11
v 20 1 -12
v 23 1 -12
v 23 1 -13
v 25 1 -13
v 25 1 -14
v 31 1 -14
v 31 1 -15
v 32 1 -15
v -32 2 32
v -31 2 32
v -31 2 31
v -29 2 31
v -29 2 29
v -28 2 29
v -28 2 28
v -27 2 28
v -27 2 27
v -26 2 27
v -26 2 26
v -24 2 26
v -24 2 25
v -23 2 25
v -23 2 24
v -22 2 24
v -22 2 23
v -20 2 23
v -20 2 22
v -18 2 22
v -18 2 21
v -15 2 21
v -15 2 20
v -12 2 20
v -12 2 19
v -10 2 19
v -10 2 18
v -9 2 18
v -9 2 17
v -8 2 17
v -8 2 16
v -6 2 16
v -6 2 15
v -5 2 15
v -5 2 13
v -3 2 13
v -3 2 11
v -1 2 11
v -1 2 10
v 0 2 10
v 0 2 8
v 1 2 8
v 1 2 7
v 2 2 7
v 2 2 6
v 3 2 6
v 3 2 4
v 4 2 4
v 4 2 3
v 5 2 3
v 5 2 1
v 7 2 1
v 7 2 -1
v 8 2 -1
v 8 2 -2
v 10 2 -2
v 10 2 -3
v 11 2 -3
v 11 2 -4
v 12 2 -4
v 12 2 -5
v 13 2 -5
v 13 2 -6
v 14 2 -6
v 14 2 -7
v 15 2 -7
v 15 2 -8
v 16 2 -8
v 16 2 -9
v 17 2 -9
v 17 2 -10
v 19 2 -10
v 19 2 -11
v 20 2 -11
v 20 2 -12
v 23 2 -12
v 23 2 -13
v 25 2 -13
v 25 2 -14
v 31 2 -14
v 31 2 -15
v 32 2 -15
v -32 2 -32
v 32 2 -32

# faces
f 3/1/1 2/1/1 1/1/1
f 4/1/1 2/1/1 3/1/1
f 5/1/2 6/1/2 7/1/2
f 7/1/2 6/1/2 8/1/2
f 9/1/2 10/1/2 11/1/2
f 11/1/2 10/1/2 12/1/2
f 13/1/2 14/1/2 15/1/2
f 15/1/2 14/1/2 16/1/2
f 17/1/2 18/1/2 19/1/2
f 19/1/2 18/1/2 20/1/2
f 21/1/2 22/1/2 23/1/2
f 23/1/2 22/1/2 24/1/2
f 25/1/2 26/1/2 27/1/2
f 27/1/2 26/1/2 28/1/2
f 29/1/2 30/1/2 31/1/2
f 31/1/2 30/1/2 32/1/2
f 33/1/2 34/1/2 35/1/2
f 35/1/2 34/1/2 36/1/2
f 37/1/2 38/1/2 39/1/2
f 39/1/2 38/1/2 40/1/2
f 41/1/2 42/1/2 43/1/2
f 43/1/2 42/1/2 44/1/2
f 45/1/2 46/1/2 47/1/2
f 47/1/2 46/1/2 48/1/2
f 49/1/2 50/1/2 51/1/2
f 51/1/2 50/1/2 52/1/2
f 53/1/2 54/1/2 55/1/2
f 55/1/2 54/1/2 56/1/2
f 57/1/2 58/1/2 59/1/2
f 59/1/2 58/1/2 60/1/2
f 61/1/2 62/1/2 63/1/2
f 63/1/2 62/1/2 64/1/2
f 65/1/2 66/1/2 67/1/2
f 67/1/2 66/1/2 68/1/2
f 69/1/2 70/1/2 71/1/2
f 71/1/2 70/1/2 72/1/2
f 73/1/2 74/1/2 75/1/2
f 75/1/2 74/1/2 76/1/2
f 77/1/2 78/1/2 79/1/2
f 79/1/2 78/1/2 80/1/2
f 81/1/2 82/1/2 83/1/2
f 83/1/2 82/1/2 84/1/2
f 85/1/2 86/1/2 87/1/2
f 87/1/2 86/1/2 88/1/2
f 89/1/2 90/1/2 91/1/2
f 91/1/2 90/1/2 92/1/2
f 93/1/2 94/1/2 95/1/2
f 95/1/2 94/1/2 96/1/2
f 97/1/2 98/1/2 99/1/2
f 99/1/2 98/1/2 100/1/2
f 101/1/2 102/1/2 103/1/2
f 103/1/2 102/1/2 104/1/2
f 105/1/2 106/1/2 107/1/2
f 107/1/2 106/1/2 108/1/2
f 109/1/2 110/1/2 111/1/2
f 111/1/2 110/1/2 112/1/2
f 113/1/2 114/1/2 115/1/2
f 115/1/2 114/1/2 116/1/2
f 117/1/2 118/1/2 119/1/2
f 119/1/2 118/1/2 120/1/2
f 121/1/2 122/1/2 123/1/2
f 123/1/2 122/1/2 124/1/2
f 125/1/2 126/1/2 127/1/2
f 127/1/2 126/1/2 128/1/2
f 129/1/2 130/1/2 131/1/2
f 131/1/2 130/1/2 132/1/2
f 133/1/2 134/1/2 135/1/2
f 135/1/2 134/1/2 136/1/2
f 137/1/2 138/1/2 139/1/2
f 139/1/2 138/1/2 140/1/2
f 141/1/2 142/1/2 143/1/2
f 143/1/2 142/1/2 144/1/2
f 145/1/2 146/1/2 147/1/2
f 147/1/2 146/1/2 148/1/2
f 149/1/2 150/1/2 151/1/2
f 151/1/2 150/1/2 152/1/2
f 153/1/2 154/1/2 155/1/2
f 155/1/2 154/1/2 156/1/2
f 157/1/2 158/1/2 159/1/2
f 159/1/2 158/1/2 160/1/2
f 161/1/2 162/1/2 163/1/2
f 163/1/2 162/1/2 164/1/2
f 165/2/2 166/2/2 168/2/2
f 166/1/2 167/1/2 169/1/2
f 168/2/2 166/2/2 169/2/2
f 169/1/2 167/1/2 170/1/2
f 170/1/2 167/1/2 171/1/2
f 174/1/3 173/1/3 172/1/3
f 175/1/3 173/1/3 174/1/3
f 176/1/3 173/1/3 175/1/3
f 177/2/3 175/2/3 174/2/3
f 178/2/3 175/2/3 177/2/3
f 181/1/3 180/1/3 179/1/3
f 182/1/3 180/1/3 181/1/3
f 185/1/3 184/1/3 183/1/3
f 186/1/3 184/1/3 185/1/3
f 189/1/3 188/1/3 187/1/3
f 190/1/3 188/1/3 189/1/3
f 193/1/3 192/1/3 191/1/3
f 194/1/3 192/1/3 193/1/3
f 197/1/3 196/1/3 195/1/3
f 198/1/3 196/1/3 197/1/3
f 201/1/3 200/1/3 199/1/3
f 202/1/3 200/1/3 201/1/3
f 205/1/3 204/1/3 203/1/3
f 206/1/3 204/1/3 205/1/3
f 209/1/3 208/1/3 207/1/3
f 210/1/3 208/1/3 209/1/3
f 213/1/3 212/1/3 211/1/3
f 214/1/3 212/1/3 213/1/3
f 217/1/3 216/1/3 215/1/3
f 218/1/3 216/1/3 217/1/3
f 221/1/3 220/1/3 219/1/3
f 222/1/3 220/1/3 221/1/3
f 225/1/3 224/1/3 223/1/3
f 226/1/3 224/1/3 225/1/3
f 229/1/3 228/1/3 227/1/3
f 230/1/3 228/1/3 229/1/3
f 233/1/3 232/1/3 231/1/3
f 234/1/3 232/1/3 233/1/3
f 237/1/3 236/1/3 235/1/3
f 238/1/3 236/1/3 237/1/3
f 241/1/3 240/1/3 239/1/3
f 242/1/3 240/1/3 241/1/3
f 245/1/3 244/1/3 243/1/3
f 246/1/3 244/1/3 245/1/3
f 249/1/3 248/1/3 247/1/3
f 250/1/3 248/1/3 249/1/3
f 253/1/3 252/1/3 251/1/3
f 254/1/3 252/1/3 253/1/3
f 257/1/3 256/1/3 255/1/3
f 258/1/3 256/1/3 257/1/3
f 261/1/3 260/1/3 259/1/3
f 262/1/3 260/1/3 261/1/3
f 265/1/3 264/1/3 263/1/3
f 266/1/3 264/1/3 265/1/3
f 269/1/3 268/1/3 267/1/3
f 270/1/3 268/1/3 269/1/3
f 273/1/3 272/1/3 271/1/3
f 274/1/3 272/1/3 273/1/3
f 277/1/3 276/1/3 275/1/3
f 278/1/3 276/1/3 277/1/3
f 281/1/3 280/1/3 279/1/3
f 282/1/3 280/1/3 281/1/3
f 285/1/3 284/1/3 283/1/3
f 286/1/3 284/1/3 285/1/3
f 289/1/3 288/1/3 287/1/3
f 290/1/3 288/1/3 289/1/3
f 293/1/3 292/1/3 291/1/3
f 294/1/3 292/1/3 293/1/3
f 297/1/3 296/1/3 295/1/3
f 298/1/3 296/1/3 297/1/3
f 301/1/3 300/1/3 299/1/3
f 302/1/3 300/1/3 301/1/3
f 305/1/3 304/1/3 303/1/3
f 306/1/3 304/1/3 305/1/3
f 309/1/3 308/1/3 307/1/3
f 310/1/3 308/1/3 309/1/3
f 313/1/3 312/1/3 311/1/3
f 314/1/3 312/1/3 313/1/3
f 317/1/3 316/1/3 315/1/3
f 318/1/3 316/1/3 317/1/3
f 321/1/3 320/1/3 319/1/3
f 322/1/3 320/1/3 321/1/3
f 325/1/3 324/1/3 323/1/3
f 326/1/3 324/1/3 325/1/3
f 329/1/3 328/1/3 327/1/3
f 330/1/3 328/1/3 329/1/3
f 333/1/3 332/1/3 331/1/3
f 334/1/3 332/1/3 333/1/3
f 337/1/3 336/1/3 335/1/3
f 338/1/3 336/1/3 337/1/3
f 339/1/4 340/1/4 341/1/4
f 341/1/4 340/1/4 342/1/4
f 346/1/5 344/1/5 343/1/5
f 346/2/5 345/2/5 344/2/5
f 347/2/5 345/2/5 346/2/5
f 348/1/5 347/1/5 346/1/5
f 348/2/5 345/2/5 347/2/5
f 349/2/5 345/2/5 348/2/5
f 350/1/5 349/1/5 348/1/5
f 350/2/5 345/2/5 349/2/5
f 351/2/5 345/2/5 350/2/5
f 352/1/5 351/1/5 350/1/5
f 352/2/5 345/2/5 351/2/5
f 353/2/5 345/2/5 352/2/5
f 354/1/5 353/1/5 352/1/5
f 354/2/5 345/2/5 353/2/5
f 355/2/5 345/2/5 354/2/5
f 356/1/5 355/1/5 354/1/5
f 356/2/5 345/2/5 355/2/5
f 357/2/5 345/2/5 356/2/5
f 358/1/5 357/1/5 356/1/5
f 358/2/5 345/2/5 357/2/5
f 359/2/5 345/2/5 358/2/5
f 360/1/5 359/1/5 358/1/5
f 360/2/5 345/2/5 359/2/5
f 361/2/5 345/2/5 360/2/5
f 362/1/5 361/1/5 360/1/5
f 362/2/5 345/2/5 361/2/5
f 363/2/5 345/2/5 362/2/5
f 364/1/5 363/1/5 362/1/5
f 364/2/5 345/2/5 363/2/5
f 365/2/5 345/2/5 364/2/5
f 366/1/5 365/1/5 364/1/5
f 366/2/5 345/2/5 365/2/5
f 367/2/5 345/2/5 366/2/5
f 368/1/5 367/1/5 366/1/5
f 368/2/5 345/2/5 367/2/5
f 369/2/5 345/2/5 368/2/5
f 370/1/5 369/1/5 368/1/5
f 370/2/5 345/2/5 369/2/5
f 371/2/5 345/2/5 370/2/5
f 372/1/5 371/1/5 370/1/5
f 372/2/5 345/2/5 371/2/5
f 373/2/5 345/2/5 372/2/5
f 374/1/5 373/1/5 372/1/5
f 374/2/5 345/2/5 373/2/5
f 375/2/5 345/2/5 374/2/5
f 376/1/5 375/1/5 374/1/5
f 376/2/5 345/2/5 375/2/5
f 377/2/5 345/2/5 376/2/5
f 378/1/5 377/1/5 376/1/5
f 378/2/5 345/2/5 377/2/5
f 379/2/5 345/2/5 378/2/5
f 380/1/5 379/1/5 378/1/5
f 380/2/5 345/2/5 379/2/5
f 381/2/5 345/2/5 380/2/5
f 382/1/5 381/1/5 380/1/5
f 382/2/5 345/2/5 381/2/5
f 383/2/5 345/2/5 382/2/5
f 384/1/5 383/1/5 382/1/5
f 384/2/5 345/2/5 383/2/5
f 385/2/5 345/2/5 384/2/5
f 386/1/5 385/1/5 384/1/5
f 386/2/5 345/2/5 385/2/5
f 387/2/5 345/2/5 386/2/5
f 388/1/5 387/1/5 386/1/5
f 388/2/5 345/2/5 387/2/5
f 389/2/5 345/2/5 388/2/5
f 390/1/5 389/1/5 388/1/5
f 390/2/5 345/2/5 389/2/5
f 391/2/5 345/2/5 390/2/5
f 392/1/5 391/1/5 390/1/5
f 392/2/5 345/2/5 391/2/5
f 393/2/5 345/2/5 392/2/5
f 394/1/5 393/1/5 392/1/5
f 394/2/5 345/2/5 393/2/5
f 395/2/5 345/2/5 394/2/5
f 396/1/5 395/1/5 394/1/5
f 396/2/5 345/2/5 395/2/5
f 397/2/5 345/2/5 396/2/5
f 398/1/5 397/1/5 396/1/5
f 398/2/5 345/2/5 397/2/5
f 399/2/5 345/2/5 398/2/5
f 400/1/5 399/1/5 398/1/5
f 400/2/5 345/2/5 399/2/5
f 401/2/5 345/2/5 400/2/5
f 402/1/5 401/1/5 400/1/5
f 402/2/5 345/2/5 401/2/5
f 403/2/5 345/2/5 402/2/5
f 404/1/5 403/1/5 402/1/5
f 404/2/5 345/2/5 403/2/5
f 405/2/5 345/2/5 404/2/5
f 406/1/5 405/1/5 404/1/5
f 406/2/5 345/2/5 405/2/5
f 407/2/5 345/2/5 406/2/5
f 408/1/5 407/1/5 406/1/5
f 408/2/5 345/2/5 407/2/5
f 409/2/5 345/2/5 408/2/5
f 410/1/5 409/1/5 408/1/5
f 410/2/5 345/2/5 409/2/5
f 411/2/5 345/2/5 410/2/5
f 412/1/5 411/1/5 410/1/5
f 412/2/5 345/2/5 411/2/5
f 413/2/5 345/2/5 412/2/5
f 414/1/5 413/1/5 412/1/5
f 414/2/5 345/2/5 413/2/5
f 415/2/5 345/2/5 414/2/5
f 416/1/5 415/1/5 414/1/5
f 416/2/5 345/2/5 415/2/5
f 417/2/5 345/2/5 416/2/5
f 418/1/5 417/1/5 416/1/5
f 418/2/5 345/2/5 417/2/5
f 419/2/5 345/2/5 418/2/5
f 420/1/5 419/1/5 418/1/5
f 420/2/5 345/2/5 419/2/5
f 421/2/5 345/2/5 420/2/5
f 422/1/5 421/1/5 420/1/5
f 422/2/5 345/2/5 421/2/5
f 423/2/5 345/2/5 422/2/5
f 424/1/5 423/1/5 422/1/5
f 424/2/5 345/2/5 423/2/5
f 425/2/5 345/2/5 424/2/5
f 426/1/5 346/1/5 343/1/5
f 426/1/5 348/1/5 346/1/5
f 426/1/5 425/1/5 424/1/5
f 426/1/5 424/1/5 422/1/5
f 426/1/5 422/1/5 420/1/5
f 426/1/5 420/1/5 418/1/5
f 426/1/5 418/1/5 416/1/5
f 426/1/5 416/1/5 414/1/5
f 426/1/5 414/1/5 412/1/5
f 426/1/5 412/1/5 410/1/5
f 426/1/5 410/1/5 408/1/5
f 426/1/5 408/1/5 406/1/5
f 426/1/5 406/1/5 404/1/5
f 426/1/5 404/1/5 402/1/5
f 426/1/5 402/1/5 400/1/5
f 426/1/5 400/1/5 398/1/5
f 426/1/5 398/1/5 396/1/5
f 426/1/5 396/1/5 394/1/5
f 426/1/5 394/1/5 392/1/5
f 426/1/5 392/1/5 390/1/5
f 426/1/5 390/1/5 388/1/5
f 426/1/5 388/1/5 386/1/5
f 426/1/5 386/1/5 384/1/5
f 426/1/5 384/1/5 382/1/5
f 426/1/5 382/1/5 380/1/5
f 426/1/5 380/1/5 378/1/5
f 426/1/5 378/1/5 376/1/5
f 426/1/5 376/1/5 374/1/5
f 426/1/5 374/1/5 372/1/5
f 426/1/5 372/1/5 370/1/5
f 426/1/5 370/1/5 368/1/5
f 426/1/5 368/1/5 366/1/5
f 426/1/5 366/1/5 364/1/5
f 426/1/5 364/1/5 362/1/5
f 426/1/5 362/1/5 360/1/5
f 426/1/5 360/1/5 358/1/5
f 426/1/5 358/1/5 356/1/5
f 426/1/5 356/1/5 354/1/5
f 426/1/5 354/1/5 352/1/5
f 426/1/5 352/1/5 350/1/5
f 426/1/5 350/1/5 348/1/5
f 427/1/5 425/1/5 426/1/5
f 428/2/6 429/2/6 430/2/6
f 430/2/6 429/2/6 431/2/6
f 431/2/6 429/2/6 432/2/6
f 432/2/6 429/2/6 433/2/6
f 433/2/6 429/2/6 434/2/6
f 434/2/6 429/2/6 435/2/6
f 435/2/6 429/2/6 436/2/6
f 436/2/6 429/2/6 437/2/6
f 437/2/6 429/2/6 438/2/6
f 438/2/6 429/2/6 439/2/6
f 439/2/6 429/2/6 440/2/6
f 440/2/6 429/2/6 441/2/6
f 441/2/6 429/2/6 442/2/6
f 442/2/6 429/2/6 443/2/6
f 443/2/6 429/2/6 444/2/6
f 444/2/6 429/2/6 445/2/6
f 445/2/6 429/2/6 446/2/6
f 446/2/6 429/2/6 447/2/6
f 447/2/6 429/2/6 448/2/6
f 448/2/6 429/2/6 449/2/6
f 449/2/6 429/2/6 450/2/6
f 450/2/6 429/2/6 451/2/6
f 451/2/6 429/2/6 452/2/6
f 452/2/6 429/2/6 453/2/6
f 453/2/6 429/2/6 454/2/6
f 454/2/6 429/2/6 455/2/6
f 455/2/6 429/2/6 456/2/6
f 456/2/6 429/2/6 457/2/6
f 457/2/6 429/2/6 458/2/6
f 458/2/6 429/2/6 459/2/6
f 459/2/6 429/2/6 460/2/6
f 460/2/6 429/2/6 461/2/6
f 461/2/6 429/2/6 462/2/6
f 462/2/6 429/2/6 463/2/6
f 463/2/6 429/2/6 464/2/6
f 464/2/6 429/2/6 465/2/6
f 465/2/6 429/2/6 466/2/6
f 466/2/6 429/2/6 467/2/6
f 467/2/6 429/2/6 468/2/6
f 468/2/6 429/2/6 469/2/6
f 469/2/6 429/2/6 470/2/6
f 470/2/6 429/2/6 471/2/6
f 471/2/6 429/2/6 472/2/6
f 472/2/6 429/2/6 473/2/6
f 473/2/6 429/2/6 474/2/6
f 474/2/6 429/2/6 475/2/6
f 475/2/6 429/2/6 476/2/6
f 476/2/6 429/2/6 477/2/6
f 477/2/6 429/2/6 478/2/6
f 478/2/6 429/2/6 479/2/6
f 479/2/6 429/2/6 480/2/6
f 480/2/6 429/2/6 481/2/6
f 481/2/6 429/2/6 482/2/6
f 482/2/6 429/2/6 483/2/6
f 483/2/6 429/2/6 484/2/6
f 484/2/6 429/2/6 485/2/6
f 485/2/6 429/2/6 486/2/6
f 486/2/6 429/2/6 487/2/6
f 487/2/6 429/2/6 488/2/6
f 488/2/6 429/2/6 489/2/6
f 489/2/6 429/2/6 490/2/6
f 490/2/6 429/2/6 491/2/6
f 491/2/6 429/2/6 492/2/6
f 492/2/6 429/2/6 493/2/6
f 493/2/6 429/2/6 494/2/6
f 494/2/6 429/2/6 495/2/6
f 495/2/6 429/2/6 496/2/6
f 496/2/6 429/2/6 497/2/6
f 497/2/6 429/2/6 498/2/6
f 498/2/6 429/2/6 499/2/6
f 499/2/6 429/2/6 500/2/6
f 500/2/6 429/2/6 501/2/6
f 501/2/6 429/2/6 502/2/6
f 502/2/6 429/2/6 503/2/6
f 503/2/6 429/2/6 504/2/6
f 504/2/6 429/2/6 505/2/6
f 505/2/6 429/2/6 506/2/6
f 506/2/6 429/2/6 507/2/6
f 507/2/6 429/2/6 508/2/6
f 508/2/6 429/2/6 509/2/6
f 510/1/6 511/1/6 512/1/6
f 512/1/6 513/1/6 514/1/6
f 514/1/6 515/1/6 516/1/6
f 516/1/6 517/1/6 518/1/6
f 518/1/6 519/1/6 520/1/6
f 520/1/6 521/1/6 522/1/6
f 522/1/6 523/1/6 524/1/6
f 524/1/6 525/1/6 526/1/6
f 526/1/6 527/1/6 528/1/6
f 528/1/6 529/1/6 530/1/6
f 530/1/6 531/1/6 532/1/6
f 532/1/6 533/1/6 534/1/6
f 534/1/6 535/1/6 536/1/6
f 536/1/6 537/1/6 538/1/6
f 538/1/6 539/1/6 540/1/6
f 540/1/6 541/1/6 542/1/6
f 542/1/6 543/1/6 544/1/6
f 544/1/6 545/1/6 546/1/6
f 546/1/6 547/1/6 548/1/6
f 548/1/6 549/1/6 550/1/6
f 550/1/6 551/1/6 552/1/6
f 552/1/6 553/1/6 554/1/6
f 554/1/6 555/1/6 556/1/6
f 556/1/6 557/1/6 558/1/6
f 558/1/6 559/1/6 560/1/6
f 560/1/6 561/1/6 562/1/6
f 562/1/6 563/1/6 564/1/6
f 564/1/6 565/1/6 566/1/6
f 566/1/6 567/1/6 568/1/6
f 568/1/6 569/1/6 570/1/6
f 570/1/6 571/1/6 572/1/6
f 572/1/6 573/1/6 574/1/6
f 574/1/6 575/1/6 576/1/6
f 576/1/6 577/1/6 578/1/6
f 578/1/6 579/1/6 580/1/6
f 580/1/6 581/1/6 582/1/6
f 582/1/6 583/1/6 584/1/6
f 584/1/6 585/1/6 586/1/6
f 586/1/6 587/1/6 588/1/6
f 588/1/6 589/1/6 590/1/6
f 510/1/6 512/1/6 592/1/6
f 590/1/6 591/1/6 592/1/6
f 588/1/6 590/1/6 592/1/6
f 586/1/6 588/1/6 592/1/6
f 584/1/6 586/1/6 592/1/6
f 582/1/6 584/1/6 592/1/6
f 580/1/6 582/1/6 592/1/6
f 578/1/6 580/1/6 592/1/6
f 576/1/6 578/1/6 592/1/6
f 574/1/6 576/1/6 592/1/6
f 572/1/6 574/1/6 592/1/6
f 570/1/6 572/1/6 592/1/6
f 568/1/6 570/1/6 592/1/6
f 566/1/6 568/1/6 592/1/6
f 564/1/6 566/1/6 592/1/6
f 562/1/6 564/1/6 592/1/6
f 560/1/6 562/1/6 592/1/6
f 558/1/6 560/1/6 592/1/6
f 556/1/6 558/1/6 592/1/6
f 554/1/6 556/1/6 592/1/6
f 552/1/6 554/1/6 592/1/6
f 550/1/6 552/1/6 592/1/6
f 548/1/6 550/1/6 592/1/6
f 546/1/6 548/1/6 592/1/6
f 544/1/6 546/1/6 592/1/6
f 542/1/6 544/1/6 592/1/6
f 540/1/6 542/1/6 592/1/6
f 538/1/6 540/1/6 592/1/6
f 536/1/6 538/1/6 592/1/6
f 534/1/6 536/1/6 592/1/6
f 532/1/6 534/1/6 592/1/6
f 530/1/6 532/1/6 592/1/6
f 528/1/6 530/1/6 592/1/6
f 526/1/6 528/1/6 592/1/6
f 524/1/6 526/1/6 592/1/6
f 522/1/6 524/1/6 592/1/6
f 520/1/6 522/1/6 592/1/6
f 518/1/6 520/1/6 592/1/6
f 516/1/6 518/1/6 592/1/6
f 514/1/6 516/1/6 592/1/6
f 512/1/6 514/1/6 592/1/6
f 592/1/6 591/1/6 593/1/6
