# MagicaVoxel @ Ephtracy

# group
g smallship

# material
mtllib smallship.mtl
usemtl palette

# normals
vn -1 0 0
vn 1 0 0
vn 0 0 1
vn 0 0 -1
vn 0 -1 0
vn 0 1 0

# texcoords
vt 0.748047 0.5
vt 0.892578 0.5
vt 0.916016 0.5

# verts
v -14 2 1
v -14 2 -1
v -14 3 1
v -14 3 -1
v -14 4 1
v -14 4 -1
v -13 1 2
v -13 1 -2
v -13 2 1
v -13 2 -1
v -13 3 2
v -13 3 1
v -13 3 -1
v -13 3 -2
v -13 4 2
v -13 4 1
v -13 4 -1
v -13 4 -2
v -12 0 2
v -12 0 -2
v -12 1 3
v -12 1 2
v -12 1 -2
v -12 1 -3
v -12 3 3
v -12 3 2
v -12 3 -2
v -12 3 -3
v -12 4 3
v -12 4 2
v -12 4 -2
v -12 4 -3
v -11 0 4
v -11 0 2
v -11 0 -2
v -11 0 -4
v -11 1 3
v -11 1 2
v -11 1 -2
v -11 1 -3
v -11 3 4
v -11 3 3
v -11 3 -3
v -11 3 -4
v -11 4 4
v -11 4 3
v -11 4 -3
v -11 4 -4
v -10 0 5
v -10 0 4
v -10 0 -4
v -10 0 -5
v -10 3 5
v -10 3 4
v -10 3 -4
v -10 3 -5
v -10 4 5
v -10 4 4
v -10 4 -4
v -10 4 -5
v -9 0 6
v -9 0 5
v -9 0 -5
v -9 0 -6
v -9 3 6
v -9 3 5
v -9 3 -5
v -9 3 -6
v -9 4 6
v -9 4 5
v -9 4 -5
v -9 4 -6
v -3 2 3
v -3 2 -3
v -3 6 3
v -3 6 -3
v -3 7 3
v -3 7 -3
v -1 0 7
v -1 0 6
v -1 0 -6
v -1 0 -7
v -1 3 7
v -1 3 6
v -1 3 -6
v -1 3 -7
v -1 4 7
v -1 4 6
v -1 4 -6
v -1 4 -7
v 0 2 4
v 0 2 3
v 0 2 -3
v 0 2 -4
v 0 7 3
v 0 7 -3
v 0 8 3
v 0 8 -3
v 0 12 3
v 0 12 -3
v 0 13 4
v 0 13 -4
v 12 2 6
v 12 2 5
v 12 2 -5
v 12 2 -6
v 12 3 6
v 12 3 -6
v 12 4 6
v 12 4 5
v 12 4 -5
v 12 4 -6
v 13 2 5
v 13 2 -5
v 13 4 5
v 13 4 -5
v -11 2 3
v -11 2 -3
v -11 3 3
v -11 3 2
v -11 3 -2
v -11 3 -3
v -11 4 3
v -11 4 2
v -11 4 -2
v -11 4 -3
v -8 2 4
v -8 2 3
v -8 2 -3
v -8 2 -4
v -8 4 4
v -8 4 3
v -8 4 -3
v -8 4 -4
v -7 2 5
v -7 2 4
v -7 2 -4
v -7 2 -5
v -7 3 5
v -7 3 -5
v -7 4 5
v -7 4 4
v -7 4 -4
v -7 4 -5
v 0 2 6
v 0 2 5
v 0 2 -5
v 0 2 -6
v 0 3 6
v 0 3 5
v 0 3 -5
v 0 3 -6
v 0 4 6
v 0 4 5
v 0 4 -5
v 0 4 -6
v 1 8 3
v 1 8 -3
v 1 12 3
v 1 12 -3
v 3 12 4
v 3 12 3
v 3 12 -3
v 3 12 -4
v 3 13 4
v 3 13 -4
v 4 11 4
v 4 11 3
v 4 11 -3
v 4 11 -4
v 4 12 4
v 4 12 3
v 4 12 -3
v 4 12 -4
v 5 10 4
v 5 10 3
v 5 10 -3
v 5 10 -4
v 5 11 4
v 5 11 3
v 5 11 -3
v 5 11 -4
v 6 8 4
v 6 8 3
v 6 8 -3
v 6 8 -4
v 6 10 4
v 6 10 3
v 6 10 -3
v 6 10 -4
v 11 2 4
v 11 2 -4
v 11 7 4
v 11 7 -4
v 11 8 4
v 11 8 -4
v 13 0 7
v 13 0 6
v 13 0 -6
v 13 0 -7
v 13 3 7
v 13 3 6
v 13 3 -6
v 13 3 -7
v 13 4 7
v 13 4 6
v 13 4 -6
v 13 4 -7
v 14 0 6
v 14 0 5
v 14 0 -5
v 14 0 -6
v 14 3 6
v 14 3 5
v 14 3 -5
v 14 3 -6
v 14 4 6
v 14 4 5
v 14 4 -5
v 14 4 -6
v 15 0 5
v 15 0 -5
v 15 3 5
v 15 3 -5
v 15 4 5
v 15 4 -5
v -1 0 7
v -1 3 7
v -1 4 7
v 13 0 7
v 13 3 7
v 13 4 7
v -9 0 6
v -9 3 6
v -9 4 6
v -1 0 6
v -1 3 6
v -1 4 6
v 13 0 6
v 13 3 6
v 13 4 6
v 14 0 6
v 14 3 6
v 14 4 6
v -10 0 5
v -10 3 5
v -10 4 5
v -9 0 5
v -9 3 5
v -9 4 5
v 14 0 5
v 14 3 5
v 14 4 5
v 15 0 5
v 15 3 5
v 15 4 5
v -11 0 4
v -11 3 4
v -11 4 4
v -10 0 4
v -10 3 4
v -10 4 4
v 0 2 4
v 0 13 4
v 1 8 4
v 1 12 4
v 2 11 4
v 2 12 4
v 3 10 4
v 3 11 4
v 3 12 4
v 3 13 4
v 4 9 4
v 4 10 4
v 4 11 4
v 4 12 4
v 5 8 4
v 5 9 4
v 5 10 4
v 5 11 4
v 6 8 4
v 6 10 4
v 10 7 4
v 10 8 4
v 11 2 4
v 11 7 4
v 11 8 4
v -12 1 3
v -12 3 3
v -12 4 3
v -11 1 3
v -11 3 3
v -11 4 3
v -3 2 3
v -3 6 3
v -3 7 3
v -1 6 3
v -1 7 3
v 0 2 3
v 0 7 3
v -13 1 2
v -13 3 2
v -13 4 2
v -12 0 2
v -12 1 2
v -12 3 2
v -12 4 2
v -11 0 2
v -11 1 2
v -14 2 1
v -14 3 1
v -14 4 1
v -13 2 1
v -13 3 1
v -13 4 1
v -11 2 -3
v -11 3 -3
v -11 4 -3
v -10 3 -3
v -10 4 -3
v -8 2 -3
v -8 4 -3
v 1 8 -3
v 1 12 -3
v 2 11 -3
v 2 12 -3
v 3 10 -3
v 3 11 -3
v 3 12 -3
v 4 9 -3
v 4 10 -3
v 4 11 -3
v 4 12 -3
v 5 8 -3
v 5 9 -3
v 5 10 -3
v 5 11 -3
v 6 8 -3
v 6 10 -3
v -8 2 -4
v -8 4 -4
v -7 2 -4
v -7 4 -4
v -7 2 -5
v -7 3 -5
v -7 4 -5
v 0 2 -5
v 0 3 -5
v 0 4 -5
v 12 2 -5
v 12 4 -5
v 13 2 -5
v 13 4 -5
v 0 2 -6
v 0 3 -6
v 0 4 -6
v 12 2 -6
v 12 3 -6
v 12 4 -6
v 0 2 6
v 0 3 6
v 0 4 6
v 12 2 6
v 12 3 6
v 12 4 6
v -7 2 5
v -7 3 5
v -7 4 5
v 0 2 5
v 0 3 5
v 0 4 5
v 12 2 5
v 12 4 5
v 13 2 5
v 13 4 5
v -8 2 4
v -8 4 4
v -7 2 4
v -7 4 4
v -11 2 3
v -11 3 3
v -11 4 3
v -10 3 3
v -10 4 3
v -8 2 3
v -8 4 3
v 1 8 3
v 1 12 3
v 2 11 3
v 2 12 3
v 3 10 3
v 3 11 3
v 3 12 3
v 4 9 3
v 4 10 3
v 4 11 3
v 4 12 3
v 5 8 3
v 5 9 3
v 5 10 3
v 5 11 3
v 6 8 3
v 6 10 3
v -14 2 -1
v -14 3 -1
v -14 4 -1
v -13 2 -1
v -13 3 -1
v -13 4 -1
v -13 1 -2
v -13 3 -2
v -13 4 -2
v -12 0 -2
v -12 1 -2
v -12 3 -2
v -12 4 -2
v -11 0 -2
v -11 1 -2
v -12 1 -3
v -12 3 -3
v -12 4 -3
v -11 1 -3
v -11 3 -3
v -11 4 -3
v -3 2 -3
v -3 6 -3
v -3 7 -3
v -1 6 -3
v -1 7 -3
v 0 2 -3
v 0 7 -3
v -11 0 -4
v -11 3 -4
v -11 4 -4
v -10 0 -4
v -10 3 -4
v -10 4 -4
v 0 2 -4
v 0 13 -4
v 1 8 -4
v 1 12 -4
v 2 11 -4
v 2 12 -4
v 3 10 -4
v 3 11 -4
v 3 12 -4
v 3 13 -4
v 4 9 -4
v 4 10 -4
v 4 11 -4
v 4 12 -4
v 5 8 -4
v 5 9 -4
v 5 10 -4
v 5 11 -4
v 6 8 -4
v 6 10 -4
v 10 7 -4
v 10 8 -4
v 11 2 -4
v 11 7 -4
v 11 8 -4
v -10 0 -5
v -10 3 -5
v -10 4 -5
v -9 0 -5
v -9 3 -5
v -9 4 -5
v 14 0 -5
v 14 3 -5
v 14 4 -5
v 15 0 -5
v 15 3 -5
v 15 4 -5
v -9 0 -6
v -9 3 -6
v -9 4 -6
v -1 0 -6
v -1 3 -6
v -1 4 -6
v 13 0 -6
v 13 3 -6
v 13 4 -6
v 14 0 -6
v 14 3 -6
v 14 4 -6
v -1 0 -7
v -1 3 -7
v -1 4 -7
v 13 0 -7
v 13 3 -7
v 13 4 -7
v -1 0 7
v 13 0 7
v -9 0 6
v -1 0 6
v 13 0 6
v 14 0 6
v -10 0 5
v -9 0 5
v 14 0 5
v 15 0 5
v -11 0 4
v -10 0 4
v -12 0 2
v -11 0 2
v -12 0 -2
v -11 0 -2
v -11 0 -4
v -10 0 -4
v -10 0 -5
v -9 0 -5
v 14 0 -5
v 15 0 -5
v -9 0 -6
v -1 0 -6
v 13 0 -6
v 14 0 -6
v -1 0 -7
v 13 0 -7
v -12 1 3
v -11 1 3
v -13 1 2
v -12 1 2
v -11 1 2
v -13 1 -2
v -12 1 -2
v -11 1 -2
v -12 1 -3
v -11 1 -3
v -14 2 1
v -13 2 1
v -14 2 -1
v -13 2 -1
v 1 12 3
v 2 12 3
v 3 12 3
v 1 12 -3
v 2 12 -3
v 3 12 -3
v 0 2 6
v 12 2 6
v -7 2 5
v 0 2 5
v 12 2 5
v 13 2 5
v -8 2 4
v -7 2 4
v 0 2 4
v 11 2 4
v -11 2 3
v -8 2 3
v -3 2 3
v 0 2 3
v -11 2 -3
v -8 2 -3
v -3 2 -3
v 0 2 -3
v -8 2 -4
v -7 2 -4
v 0 2 -4
v 11 2 -4
v -7 2 -5
v 0 2 -5
v 12 2 -5
v 13 2 -5
v 0 2 -6
v 12 2 -6
v -1 4 7
v 13 4 7
v -9 4 6
v -1 4 6
v 0 4 6
v 12 4 6
v 13 4 6
v 14 4 6
v -10 4 5
v -9 4 5
v -7 4 5
v 0 4 5
v 12 4 5
v 13 4 5
v 14 4 5
v 15 4 5
v -11 4 4
v -10 4 4
v -9 4 4
v -8 4 4
v -7 4 4
v -12 4 3
v -11 4 3
v -10 4 3
v -8 4 3
v -13 4 2
v -12 4 2
v -11 4 2
v -14 4 1
v -13 4 1
v -12 4 1
v -14 4 -1
v -13 4 -1
v -12 4 -1
v -13 4 -2
v -12 4 -2
v -11 4 -2
v -12 4 -3
v -11 4 -3
v -10 4 -3
v -8 4 -3
v -11 4 -4
v -10 4 -4
v -9 4 -4
v -8 4 -4
v -7 4 -4
v -10 4 -5
v -9 4 -5
v -7 4 -5
v 0 4 -5
v 12 4 -5
v 13 4 -5
v 14 4 -5
v 15 4 -5
v -9 4 -6
v -1 4 -6
v 0 4 -6
v 12 4 -6
v 13 4 -6
v 14 4 -6
v -1 4 -7
v 13 4 -7
v -3 7 3
v -1 7 3
v 0 7 3
v -3 7 -3
v -1 7 -3
v 0 7 -3
v 6 8 4
v 10 8 4
v 11 8 4
v 1 8 3
v 5 8 3
v 6 8 3
v 1 8 -3
v 5 8 -3
v 6 8 -3
v 6 8 -4
v 10 8 -4
v 11 8 -4
v 5 10 4
v 6 10 4
v 5 10 3
v 6 10 3
v 5 10 -3
v 6 10 -3
v 5 10 -4
v 6 10 -4
v 4 11 4
v 5 11 4
v 4 11 3
v 5 11 3
v 4 11 -3
v 5 11 -3
v 4 11 -4
v 5 11 -4
v 3 12 4
v 4 12 4
v 3 12 3
v 4 12 3
v 3 12 -3
v 4 12 -3
v 3 12 -4
v 4 12 -4
v 0 13 4
v 3 13 4
v 0 13 -4
v 3 13 -4

# faces
f 3/3/1 2/3/1 1/3/1
f 4/3/1 2/3/1 3/3/1
f 5/2/1 4/2/1 3/2/1
f 6/2/1 4/2/1 5/2/1
f 9/3/1 8/3/1 7/3/1
f 10/3/1 8/3/1 9/3/1
f 11/3/1 9/3/1 7/3/1
f 12/3/1 9/3/1 11/3/1
f 13/3/1 8/3/1 10/3/1
f 14/3/1 8/3/1 13/3/1
f 15/2/1 12/2/1 11/2/1
f 16/2/1 12/2/1 15/2/1
f 17/2/1 14/2/1 13/2/1
f 18/2/1 14/2/1 17/2/1
f 22/3/1 20/3/1 19/3/1
f 23/3/1 20/3/1 22/3/1
f 25/3/1 22/3/1 21/3/1
f 26/3/1 22/3/1 25/3/1
f 27/3/1 24/3/1 23/3/1
f 28/3/1 24/3/1 27/3/1
f 29/2/1 26/2/1 25/2/1
f 30/2/1 26/2/1 29/2/1
f 31/2/1 28/2/1 27/2/1
f 32/2/1 28/2/1 31/2/1
f 37/3/1 34/3/1 33/3/1
f 38/3/1 34/3/1 37/3/1
f 39/3/1 36/3/1 35/3/1
f 40/3/1 36/3/1 39/3/1
f 41/3/1 37/3/1 33/3/1
f 42/3/1 37/3/1 41/3/1
f 43/3/1 36/3/1 40/3/1
f 44/3/1 36/3/1 43/3/1
f 45/2/1 42/2/1 41/2/1
f 46/2/1 42/2/1 45/2/1
f 47/2/1 44/2/1 43/2/1
f 48/2/1 44/2/1 47/2/1
f 53/3/1 50/3/1 49/3/1
f 54/3/1 50/3/1 53/3/1
f 55/3/1 52/3/1 51/3/1
f 56/3/1 52/3/1 55/3/1
f 57/2/1 54/2/1 53/2/1
f 58/2/1 54/2/1 57/2/1
f 59/2/1 56/2/1 55/2/1
f 60/2/1 56/2/1 59/2/1
f 65/3/1 62/3/1 61/3/1
f 66/3/1 62/3/1 65/3/1
f 67/3/1 64/3/1 63/3/1
f 68/3/1 64/3/1 67/3/1
f 69/2/1 66/2/1 65/2/1
f 70/2/1 66/2/1 69/2/1
f 71/2/1 68/2/1 67/2/1
f 72/2/1 68/2/1 71/2/1
f 75/3/1 74/3/1 73/3/1
f 76/3/1 74/3/1 75/3/1
f 77/2/1 76/2/1 75/2/1
f 78/2/1 76/2/1 77/2/1
f 83/3/1 80/3/1 79/3/1
f 84/3/1 80/3/1 83/3/1
f 85/3/1 82/3/1 81/3/1
f 86/3/1 82/3/1 85/3/1
f 87/2/1 84/2/1 83/2/1
f 88/2/1 84/2/1 87/2/1
f 89/2/1 86/2/1 85/2/1
f 90/2/1 86/2/1 89/2/1
f 95/3/1 92/3/1 91/3/1
f 96/3/1 94/3/1 93/3/1
f 97/3/1 95/3/1 91/3/1
f 97/3/1 96/3/1 95/3/1
f 98/3/1 94/3/1 96/3/1
f 98/3/1 96/3/1 97/3/1
f 99/3/1 97/3/1 91/3/1
f 99/1/1 98/1/1 97/1/1
f 100/3/1 94/3/1 98/3/1
f 100/1/1 98/1/1 99/1/1
f 101/3/1 99/3/1 91/3/1
f 101/3/1 100/3/1 99/3/1
f 102/3/1 94/3/1 100/3/1
f 102/3/1 100/3/1 101/3/1
f 107/3/1 104/3/1 103/3/1
f 108/3/1 106/3/1 105/3/1
f 109/3/1 104/3/1 107/3/1
f 110/3/1 104/3/1 109/3/1
f 111/3/1 108/3/1 105/3/1
f 112/3/1 108/3/1 111/3/1
f 115/3/1 114/3/1 113/3/1
f 116/3/1 114/3/1 115/3/1
f 117/3/2 118/3/2 119/3/2
f 119/3/2 118/3/2 120/3/2
f 120/3/2 118/3/2 121/3/2
f 121/3/2 118/3/2 122/3/2
f 119/2/2 120/2/2 123/2/2
f 120/3/2 121/3/2 124/3/2
f 123/2/2 120/2/2 124/2/2
f 121/2/2 122/2/2 125/2/2
f 124/3/2 121/3/2 125/3/2
f 125/2/2 122/2/2 126/2/2
f 127/3/2 128/3/2 131/3/2
f 131/3/2 128/3/2 132/3/2
f 129/3/2 130/3/2 133/3/2
f 133/3/2 130/3/2 134/3/2
f 135/3/2 136/3/2 139/3/2
f 137/3/2 138/3/2 140/3/2
f 139/3/2 136/3/2 141/3/2
f 141/3/2 136/3/2 142/3/2
f 137/3/2 140/3/2 143/3/2
f 143/3/2 140/3/2 144/3/2
f 145/3/2 146/3/2 149/3/2
f 149/3/2 146/3/2 150/3/2
f 147/3/2 148/3/2 151/3/2
f 151/3/2 148/3/2 152/3/2
f 149/2/2 150/2/2 153/2/2
f 153/2/2 150/2/2 154/2/2
f 151/2/2 152/2/2 155/2/2
f 155/2/2 152/2/2 156/2/2
f 157/1/2 158/1/2 159/1/2
f 159/1/2 158/1/2 160/1/2
f 161/3/2 162/3/2 165/3/2
f 163/3/2 164/3/2 165/3/2
f 162/3/2 163/3/2 165/3/2
f 165/3/2 164/3/2 166/3/2
f 167/3/2 168/3/2 171/3/2
f 171/3/2 168/3/2 172/3/2
f 169/3/2 170/3/2 173/3/2
f 173/3/2 170/3/2 174/3/2
f 175/3/2 176/3/2 179/3/2
f 179/3/2 176/3/2 180/3/2
f 177/3/2 178/3/2 181/3/2
f 181/3/2 178/3/2 182/3/2
f 183/3/2 184/3/2 187/3/2
f 187/3/2 184/3/2 188/3/2
f 185/3/2 186/3/2 189/3/2
f 189/3/2 186/3/2 190/3/2
f 191/3/2 192/3/2 193/3/2
f 193/3/2 192/3/2 194/3/2
f 193/2/2 194/2/2 195/2/2
f 195/2/2 194/2/2 196/2/2
f 197/3/2 198/3/2 201/3/2
f 201/3/2 198/3/2 202/3/2
f 199/3/2 200/3/2 203/3/2
f 203/3/2 200/3/2 204/3/2
f 201/2/2 202/2/2 205/2/2
f 205/2/2 202/2/2 206/2/2
f 203/2/2 204/2/2 207/2/2
f 207/2/2 204/2/2 208/2/2
f 209/3/2 210/3/2 213/3/2
f 213/3/2 210/3/2 214/3/2
f 211/3/2 212/3/2 215/3/2
f 215/3/2 212/3/2 216/3/2
f 213/2/2 214/2/2 217/2/2
f 217/2/2 214/2/2 218/2/2
f 215/2/2 216/2/2 219/2/2
f 219/2/2 216/2/2 220/2/2
f 221/3/2 222/3/2 223/3/2
f 223/3/2 222/3/2 224/3/2
f 223/2/2 224/2/2 225/2/2
f 225/2/2 224/2/2 226/2/2
f 230/3/3 228/3/3 227/3/3
f 231/2/3 229/2/3 228/2/3
f 231/3/3 228/3/3 230/3/3
f 232/2/3 229/2/3 231/2/3
f 236/3/3 234/3/3 233/3/3
f 237/2/3 235/2/3 234/2/3
f 237/3/3 234/3/3 236/3/3
f 238/2/3 235/2/3 237/2/3
f 242/3/3 240/3/3 239/3/3
f 243/2/3 241/2/3 240/2/3
f 243/3/3 240/3/3 242/3/3
f 244/2/3 241/2/3 243/2/3
f 248/3/3 246/3/3 245/3/3
f 249/2/3 247/2/3 246/2/3
f 249/3/3 246/3/3 248/3/3
f 250/2/3 247/2/3 249/2/3
f 254/3/3 252/3/3 251/3/3
f 255/2/3 253/2/3 252/2/3
f 255/3/3 252/3/3 254/3/3
f 256/2/3 253/2/3 255/2/3
f 260/3/3 258/3/3 257/3/3
f 261/2/3 259/2/3 258/2/3
f 261/3/3 258/3/3 260/3/3
f 262/2/3 259/2/3 261/2/3
f 265/3/3 264/3/3 263/3/3
f 266/3/3 264/3/3 265/3/3
f 267/1/3 266/1/3 265/1/3
f 268/3/3 264/3/3 266/3/3
f 268/1/3 266/1/3 267/1/3
f 269/1/3 267/1/3 265/1/3
f 270/3/3 268/3/3 267/3/3
f 270/1/3 267/1/3 269/1/3
f 271/3/3 264/3/3 268/3/3
f 271/3/3 268/3/3 270/3/3
f 272/3/3 264/3/3 271/3/3
f 273/1/3 269/1/3 265/1/3
f 274/3/3 270/3/3 269/3/3
f 274/1/3 269/1/3 273/1/3
f 274/3/3 271/3/3 270/3/3
f 275/3/3 271/3/3 274/3/3
f 276/3/3 271/3/3 275/3/3
f 277/3/3 265/3/3 263/3/3
f 277/1/3 273/1/3 265/1/3
f 278/3/3 275/3/3 274/3/3
f 278/1/3 273/1/3 277/1/3
f 278/3/3 274/3/3 273/3/3
f 279/3/3 275/3/3 278/3/3
f 280/3/3 275/3/3 279/3/3
f 281/3/3 277/3/3 263/3/3
f 281/3/3 278/3/3 277/3/3
f 281/3/3 279/3/3 278/3/3
f 282/3/3 279/3/3 281/3/3
f 283/3/3 281/3/3 263/3/3
f 284/3/3 281/3/3 283/3/3
f 285/3/3 283/3/3 263/3/3
f 286/2/3 284/2/3 283/2/3
f 286/3/3 283/3/3 285/3/3
f 287/2/3 284/2/3 286/2/3
f 291/3/3 289/3/3 288/3/3
f 292/2/3 290/2/3 289/2/3
f 292/3/3 289/3/3 291/3/3
f 293/2/3 290/2/3 292/2/3
f 297/3/3 295/3/3 294/3/3
f 297/2/3 296/2/3 295/2/3
f 298/2/3 296/2/3 297/2/3
f 299/3/3 297/3/3 294/3/3
f 299/3/3 298/3/3 297/3/3
f 300/3/3 298/3/3 299/3/3
f 305/3/3 302/3/3 301/3/3
f 306/2/3 303/2/3 302/2/3
f 306/3/3 302/3/3 305/3/3
f 307/2/3 303/2/3 306/2/3
f 308/3/3 305/3/3 304/3/3
f 309/3/3 305/3/3 308/3/3
f 313/3/3 311/3/3 310/3/3
f 314/2/3 312/2/3 311/2/3
f 314/3/3 311/3/3 313/3/3
f 315/2/3 312/2/3 314/2/3
f 319/3/3 317/3/3 316/3/3
f 319/2/3 318/2/3 317/2/3
f 320/2/3 318/2/3 319/2/3
f 321/3/3 319/3/3 316/3/3
f 321/3/3 320/3/3 319/3/3
f 322/3/3 320/3/3 321/3/3
f 325/1/3 324/1/3 323/1/3
f 326/1/3 324/1/3 325/1/3
f 327/1/3 325/1/3 323/1/3
f 328/3/3 326/3/3 325/3/3
f 328/1/3 325/1/3 327/1/3
f 329/3/3 326/3/3 328/3/3
f 330/1/3 327/1/3 323/1/3
f 331/3/3 328/3/3 327/3/3
f 331/1/3 327/1/3 330/1/3
f 331/3/3 329/3/3 328/3/3
f 332/3/3 329/3/3 331/3/3
f 333/3/3 329/3/3 332/3/3
f 334/1/3 330/1/3 323/1/3
f 335/3/3 331/3/3 330/3/3
f 335/1/3 330/1/3 334/1/3
f 335/3/3 332/3/3 331/3/3
f 336/3/3 332/3/3 335/3/3
f 337/3/3 332/3/3 336/3/3
f 338/3/3 335/3/3 334/3/3
f 338/3/3 336/3/3 335/3/3
f 339/3/3 336/3/3 338/3/3
f 342/3/3 341/3/3 340/3/3
f 343/3/3 341/3/3 342/3/3
f 347/3/3 345/3/3 344/3/3
f 348/2/3 346/2/3 345/2/3
f 348/3/3 345/3/3 347/3/3
f 349/2/3 346/2/3 348/2/3
f 352/3/3 351/3/3 350/3/3
f 353/3/3 351/3/3 352/3/3
f 357/3/3 355/3/3 354/3/3
f 358/2/3 356/2/3 355/2/3
f 358/3/3 355/3/3 357/3/3
f 359/2/3 356/2/3 358/2/3
f 360/3/4 361/3/4 363/3/4
f 361/2/4 362/2/4 364/2/4
f 363/3/4 361/3/4 364/3/4
f 364/2/4 362/2/4 365/2/4
f 366/3/4 367/3/4 369/3/4
f 367/2/4 368/2/4 370/2/4
f 369/3/4 367/3/4 370/3/4
f 370/2/4 368/2/4 371/2/4
f 372/3/4 373/3/4 374/3/4
f 374/3/4 373/3/4 375/3/4
f 376/3/4 377/3/4 378/3/4
f 378/3/4 377/3/4 379/3/4
f 380/3/4 381/3/4 383/3/4
f 381/2/4 382/2/4 383/2/4
f 383/2/4 382/2/4 384/2/4
f 380/3/4 383/3/4 385/3/4
f 383/3/4 384/3/4 385/3/4
f 385/3/4 384/3/4 386/3/4
f 387/1/4 388/1/4 389/1/4
f 389/1/4 388/1/4 390/1/4
f 387/1/4 389/1/4 391/1/4
f 389/3/4 390/3/4 392/3/4
f 391/1/4 389/1/4 392/1/4
f 392/3/4 390/3/4 393/3/4
f 387/1/4 391/1/4 394/1/4
f 391/3/4 392/3/4 395/3/4
f 394/1/4 391/1/4 395/1/4
f 392/3/4 393/3/4 395/3/4
f 395/3/4 393/3/4 396/3/4
f 396/3/4 393/3/4 397/3/4
f 387/1/4 394/1/4 398/1/4
f 394/3/4 395/3/4 399/3/4
f 398/1/4 394/1/4 399/1/4
f 395/3/4 396/3/4 399/3/4
f 399/3/4 396/3/4 400/3/4
f 400/3/4 396/3/4 401/3/4
f 398/3/4 399/3/4 402/3/4
f 399/3/4 400/3/4 402/3/4
f 402/3/4 400/3/4 403/3/4
f 404/3/4 405/3/4 407/3/4
f 405/2/4 406/2/4 408/2/4
f 407/3/4 405/3/4 408/3/4
f 408/2/4 406/2/4 409/2/4
f 410/3/4 411/3/4 414/3/4
f 411/2/4 412/2/4 415/2/4
f 414/3/4 411/3/4 415/3/4
f 415/2/4 412/2/4 416/2/4
f 413/3/4 414/3/4 417/3/4
f 417/3/4 414/3/4 418/3/4
f 419/3/4 420/3/4 422/3/4
f 420/2/4 421/2/4 423/2/4
f 422/3/4 420/3/4 423/3/4
f 423/2/4 421/2/4 424/2/4
f 425/3/4 426/3/4 428/3/4
f 426/2/4 427/2/4 428/2/4
f 428/2/4 427/2/4 429/2/4
f 425/3/4 428/3/4 430/3/4
f 428/3/4 429/3/4 430/3/4
f 430/3/4 429/3/4 431/3/4
f 432/3/4 433/3/4 435/3/4
f 433/2/4 434/2/4 436/2/4
f 435/3/4 433/3/4 436/3/4
f 436/2/4 434/2/4 437/2/4
f 438/3/4 439/3/4 440/3/4
f 440/3/4 439/3/4 441/3/4
f 440/1/4 441/1/4 442/1/4
f 441/3/4 439/3/4 443/3/4
f 442/1/4 441/1/4 443/1/4
f 440/1/4 442/1/4 444/1/4
f 442/3/4 443/3/4 445/3/4
f 444/1/4 442/1/4 445/1/4
f 443/3/4 439/3/4 446/3/4
f 445/3/4 443/3/4 446/3/4
f 446/3/4 439/3/4 447/3/4
f 440/1/4 444/1/4 448/1/4
f 444/3/4 445/3/4 449/3/4
f 448/1/4 444/1/4 449/1/4
f 445/3/4 446/3/4 449/3/4
f 449/3/4 446/3/4 450/3/4
f 450/3/4 446/3/4 451/3/4
f 438/3/4 440/3/4 452/3/4
f 440/1/4 448/1/4 452/1/4
f 449/3/4 450/3/4 453/3/4
f 452/1/4 448/1/4 453/1/4
f 448/3/4 449/3/4 453/3/4
f 453/3/4 450/3/4 454/3/4
f 454/3/4 450/3/4 455/3/4
f 438/3/4 452/3/4 456/3/4
f 452/3/4 453/3/4 456/3/4
f 453/3/4 454/3/4 456/3/4
f 456/3/4 454/3/4 457/3/4
f 438/3/4 456/3/4 458/3/4
f 458/3/4 456/3/4 459/3/4
f 438/3/4 458/3/4 460/3/4
f 458/2/4 459/2/4 461/2/4
f 460/3/4 458/3/4 461/3/4
f 461/2/4 459/2/4 462/2/4
f 463/3/4 464/3/4 466/3/4
f 464/2/4 465/2/4 467/2/4
f 466/3/4 464/3/4 467/3/4
f 467/2/4 465/2/4 468/2/4
f 469/3/4 470/3/4 472/3/4
f 470/2/4 471/2/4 473/2/4
f 472/3/4 470/3/4 473/3/4
f 473/2/4 471/2/4 474/2/4
f 475/3/4 476/3/4 478/3/4
f 476/2/4 477/2/4 479/2/4
f 478/3/4 476/3/4 479/3/4
f 479/2/4 477/2/4 480/2/4
f 481/3/4 482/3/4 484/3/4
f 482/2/4 483/2/4 485/2/4
f 484/3/4 482/3/4 485/3/4
f 485/2/4 483/2/4 486/2/4
f 487/3/4 488/3/4 490/3/4
f 488/2/4 489/2/4 491/2/4
f 490/3/4 488/3/4 491/3/4
f 491/2/4 489/2/4 492/2/4
f 496/3/5 494/3/5 493/3/5
f 497/3/5 494/3/5 496/3/5
f 500/3/5 496/3/5 495/3/5
f 500/3/5 498/3/5 497/3/5
f 500/3/5 497/3/5 496/3/5
f 501/3/5 498/3/5 500/3/5
f 504/3/5 500/3/5 499/3/5
f 504/3/5 502/3/5 501/3/5
f 504/3/5 501/3/5 500/3/5
f 506/3/5 504/3/5 503/3/5
f 507/3/5 506/3/5 505/3/5
f 508/3/5 504/3/5 506/3/5
f 508/3/5 506/3/5 507/3/5
f 509/3/5 504/3/5 508/3/5
f 510/3/5 502/3/5 504/3/5
f 510/3/5 504/3/5 509/3/5
f 511/3/5 502/3/5 510/3/5
f 512/3/5 502/3/5 511/3/5
f 513/3/5 502/3/5 512/3/5
f 514/3/5 502/3/5 513/3/5
f 515/3/5 513/3/5 512/3/5
f 516/3/5 513/3/5 515/3/5
f 517/3/5 513/3/5 516/3/5
f 518/3/5 513/3/5 517/3/5
f 519/3/5 517/3/5 516/3/5
f 520/3/5 517/3/5 519/3/5
f 524/3/5 522/3/5 521/3/5
f 525/3/5 522/3/5 524/3/5
f 526/3/5 524/3/5 523/3/5
f 527/3/5 524/3/5 526/3/5
f 529/3/5 528/3/5 527/3/5
f 530/3/5 528/3/5 529/3/5
f 533/3/5 532/3/5 531/3/5
f 534/3/5 532/3/5 533/3/5
f 538/3/5 536/3/5 535/3/5
f 538/3/5 537/3/5 536/3/5
f 539/3/5 537/3/5 538/3/5
f 540/3/5 537/3/5 539/3/5
f 541/3/6 542/3/6 544/3/6
f 544/3/6 542/3/6 545/3/6
f 543/3/6 544/3/6 548/3/6
f 545/3/6 546/3/6 548/3/6
f 544/3/6 545/3/6 548/3/6
f 548/3/6 546/3/6 549/3/6
f 549/3/6 546/3/6 550/3/6
f 547/3/6 548/3/6 552/3/6
f 548/3/6 549/3/6 552/3/6
f 552/3/6 549/3/6 553/3/6
f 553/3/6 549/3/6 554/3/6
f 551/3/6 552/3/6 555/3/6
f 552/3/6 553/3/6 555/3/6
f 555/3/6 553/3/6 556/3/6
f 556/3/6 553/3/6 557/3/6
f 557/3/6 558/3/6 559/3/6
f 556/3/6 557/3/6 559/3/6
f 559/3/6 558/3/6 560/3/6
f 560/3/6 558/3/6 561/3/6
f 550/3/6 546/3/6 562/3/6
f 560/3/6 561/3/6 563/3/6
f 561/3/6 562/3/6 563/3/6
f 563/3/6 562/3/6 564/3/6
f 562/3/6 546/3/6 565/3/6
f 564/3/6 562/3/6 565/3/6
f 565/3/6 546/3/6 566/3/6
f 564/3/6 565/3/6 567/3/6
f 567/3/6 565/3/6 568/3/6
f 569/2/6 570/2/6 572/2/6
f 572/2/6 570/2/6 573/2/6
f 573/2/6 570/2/6 574/2/6
f 574/2/6 570/2/6 575/2/6
f 571/2/6 572/2/6 578/2/6
f 572/2/6 573/2/6 578/2/6
f 578/2/6 573/2/6 579/2/6
f 579/2/6 573/2/6 580/2/6
f 574/3/6 575/3/6 581/3/6
f 575/2/6 576/2/6 582/2/6
f 581/3/6 575/3/6 582/3/6
f 582/2/6 576/2/6 583/2/6
f 577/2/6 578/2/6 586/2/6
f 578/3/6 579/3/6 587/3/6
f 586/2/6 578/2/6 587/2/6
f 587/3/6 579/3/6 588/3/6
f 588/3/6 579/3/6 589/3/6
f 585/2/6 586/2/6 591/2/6
f 586/3/6 587/3/6 592/3/6
f 587/3/6 588/3/6 592/3/6
f 591/2/6 586/2/6 592/2/6
f 592/3/6 588/3/6 593/3/6
f 590/2/6 591/2/6 595/2/6
f 595/2/6 591/2/6 596/2/6
f 594/2/6 595/2/6 598/2/6
f 595/3/6 596/3/6 599/3/6
f 598/2/6 595/2/6 599/2/6
f 597/2/6 598/2/6 600/2/6
f 598/3/6 599/3/6 601/3/6
f 600/2/6 598/2/6 601/2/6
f 599/3/6 596/3/6 602/3/6
f 601/3/6 599/3/6 602/3/6
f 601/2/6 602/2/6 603/2/6
f 602/3/6 596/3/6 604/3/6
f 603/2/6 602/2/6 604/2/6
f 604/3/6 596/3/6 605/3/6
f 604/2/6 605/2/6 606/2/6
f 606/2/6 605/2/6 607/2/6
f 607/2/6 608/2/6 610/2/6
f 608/3/6 609/3/6 611/3/6
f 610/2/6 608/2/6 611/2/6
f 611/3/6 609/3/6 612/3/6
f 612/3/6 609/3/6 613/3/6
f 611/2/6 612/2/6 615/2/6
f 612/3/6 613/3/6 616/3/6
f 615/2/6 612/2/6 616/2/6
f 613/3/6 614/3/6 616/3/6
f 616/3/6 614/3/6 617/3/6
f 582/3/6 583/3/6 620/3/6
f 583/2/6 584/2/6 621/2/6
f 620/3/6 583/3/6 621/3/6
f 621/2/6 584/2/6 622/2/6
f 617/2/6 618/2/6 623/2/6
f 616/2/6 617/2/6 623/2/6
f 623/2/6 618/2/6 624/2/6
f 624/2/6 618/2/6 625/2/6
f 619/3/6 620/3/6 626/3/6
f 620/2/6 621/2/6 627/2/6
f 626/3/6 620/3/6 627/3/6
f 627/2/6 621/2/6 628/2/6
f 624/2/6 625/2/6 629/2/6
f 625/2/6 626/2/6 629/2/6
f 626/2/6 627/2/6 629/2/6
f 629/2/6 627/2/6 630/2/6
f 631/2/6 632/2/6 634/2/6
f 632/3/6 633/3/6 635/3/6
f 634/2/6 632/2/6 635/2/6
f 635/3/6 633/3/6 636/3/6
f 637/3/6 638/3/6 642/3/6
f 640/3/6 641/3/6 643/3/6
f 641/3/6 642/3/6 643/3/6
f 643/3/6 642/3/6 644/3/6
f 642/3/6 638/3/6 645/3/6
f 644/3/6 642/3/6 645/3/6
f 645/3/6 638/3/6 646/3/6
f 638/2/6 639/2/6 647/2/6
f 646/3/6 638/3/6 647/3/6
f 647/2/6 639/2/6 648/2/6
f 649/3/6 650/3/6 651/3/6
f 651/3/6 650/3/6 652/3/6
f 653/3/6 654/3/6 655/3/6
f 655/3/6 654/3/6 656/3/6
f 657/3/6 658/3/6 659/3/6
f 659/3/6 658/3/6 660/3/6
f 661/3/6 662/3/6 663/3/6
f 663/3/6 662/3/6 664/3/6
f 665/3/6 666/3/6 667/3/6
f 667/3/6 666/3/6 668/3/6
f 669/3/6 670/3/6 671/3/6
f 671/3/6 670/3/6 672/3/6
f 673/3/6 674/3/6 675/3/6
f 675/3/6 674/3/6 676/3/6
