# MagicaVoxel @ Ephtracy

# group
g Streetlamp

# material
mtllib Streetlamp.mtl
usemtl palette

# normals
vn -1 0 0
vn 1 0 0
vn 0 0 1
vn 0 0 -1
vn 0 -1 0
vn 0 1 0

# texcoords
vt 0.306641 0.5
vt 0.416016 0.5
vt 0.982422 0.5
vt 0.994141 0.5

# verts
v -4 0 2
v -4 0 -2
v -4 1 2
v -4 1 -2
v -4 24 2
v -4 24 -2
v -4 28 2
v -4 28 -2
v -3 0 3
v -3 0 2
v -3 0 -2
v -3 0 -3
v -3 1 3
v -3 1 2
v -3 1 -2
v -3 1 -3
v -3 2 2
v -3 2 -2
v -3 23 2
v -3 23 -2
v -3 24 3
v -3 24 2
v -3 24 -2
v -3 24 -3
v -3 28 3
v -3 28 2
v -3 28 -2
v -3 28 -3
v -3 29 2
v -3 29 -2
v -2 0 4
v -2 0 3
v -2 0 -3
v -2 0 -4
v -2 1 4
v -2 1 3
v -2 1 2
v -2 1 -2
v -2 1 -3
v -2 1 -4
v -2 2 3
v -2 2 2
v -2 2 -2
v -2 2 -3
v -2 3 2
v -2 3 1
v -2 3 -1
v -2 3 -2
v -2 4 1
v -2 4 -1
v -2 22 2
v -2 22 -2
v -2 23 3
v -2 23 2
v -2 23 -2
v -2 23 -3
v -2 24 4
v -2 24 3
v -2 24 2
v -2 24 -2
v -2 24 -3
v -2 24 -4
v -2 28 4
v -2 28 3
v -2 28 2
v -2 28 -2
v -2 28 -3
v -2 28 -4
v -2 29 3
v -2 29 2
v -2 29 -2
v -2 29 -3
v -2 30 2
v -2 30 -2
v -1 3 2
v -1 3 1
v -1 3 -1
v -1 3 -2
v -1 4 2
v -1 4 1
v -1 4 -1
v -1 4 -2
v -1 22 1
v -1 22 -1
v 1 3 2
v 1 3 1
v 1 3 -1
v 1 3 -2
v 1 4 2
v 1 4 1
v 1 4 -1
v 1 4 -2
v 1 22 1
v 1 22 -1
v 2 0 4
v 2 0 3
v 2 0 -3
v 2 0 -4
v 2 1 4
v 2 1 3
v 2 1 2
v 2 1 -2
v 2 1 -3
v 2 1 -4
v 2 2 3
v 2 2 2
v 2 2 -2
v 2 2 -3
v 2 3 2
v 2 3 1
v 2 3 -1
v 2 3 -2
v 2 4 1
v 2 4 -1
v 2 22 2
v 2 22 -2
v 2 23 3
v 2 23 2
v 2 23 -2
v 2 23 -3
v 2 24 4
v 2 24 3
v 2 24 2
v 2 24 -2
v 2 24 -3
v 2 24 -4
v 2 28 4
v 2 28 3
v 2 28 2
v 2 28 -2
v 2 28 -3
v 2 28 -4
v 2 29 3
v 2 29 2
v 2 29 -2
v 2 29 -3
v 2 30 2
v 2 30 -2
v 3 0 3
v 3 0 2
v 3 0 -2
v 3 0 -3
v 3 1 3
v 3 1 2
v 3 1 -2
v 3 1 -3
v 3 2 2
v 3 2 -2
v 3 23 2
v 3 23 -2
v 3 24 3
v 3 24 2
v 3 24 -2
v 3 24 -3
v 3 28 3
v 3 28 2
v 3 28 -2
v 3 28 -3
v 3 29 2
v 3 29 -2
v 4 0 2
v 4 0 -2
v 4 1 2
v 4 1 -2
v 4 24 2
v 4 24 -2
v 4 28 2
v 4 28 -2
v -2 0 4
v -2 1 4
v -2 24 4
v -2 28 4
v 2 0 4
v 2 1 4
v 2 24 4
v 2 28 4
v -3 0 3
v -3 1 3
v -3 24 3
v -3 28 3
v -2 0 3
v -2 1 3
v -2 2 3
v -2 23 3
v -2 24 3
v -2 28 3
v -2 29 3
v 2 0 3
v 2 1 3
v 2 2 3
v 2 23 3
v 2 24 3
v 2 28 3
v 2 29 3
v 3 0 3
v 3 1 3
v 3 24 3
v 3 28 3
v -4 0 2
v -4 1 2
v -4 24 2
v -4 28 2
v -3 0 2
v -3 1 2
v -3 2 2
v -3 23 2
v -3 24 2
v -3 28 2
v -3 29 2
v -2 1 2
v -2 2 2
v -2 3 2
v -2 22 2
v -2 23 2
v -2 24 2
v -2 28 2
v -2 29 2
v -2 30 2
v -1 3 2
v -1 4 2
v 1 3 2
v 1 4 2
v 2 1 2
v 2 2 2
v 2 3 2
v 2 22 2
v 2 23 2
v 2 24 2
v 2 28 2
v 2 29 2
v 2 30 2
v 3 0 2
v 3 1 2
v 3 2 2
v 3 23 2
v 3 24 2
v 3 28 2
v 3 29 2
v 4 0 2
v 4 1 2
v 4 24 2
v 4 28 2
v -2 3 1
v -2 4 1
v -1 3 1
v -1 4 1
v -1 22 1
v 1 3 1
v 1 4 1
v 1 22 1
v 2 3 1
v 2 4 1
v -2 3 -1
v -2 4 -1
v -1 3 -1
v -1 4 -1
v -1 22 -1
v 1 3 -1
v 1 4 -1
v 1 22 -1
v 2 3 -1
v 2 4 -1
v -4 0 -2
v -4 1 -2
v -4 24 -2
v -4 28 -2
v -3 0 -2
v -3 1 -2
v -3 2 -2
v -3 23 -2
v -3 24 -2
v -3 28 -2
v -3 29 -2
v -2 1 -2
v -2 2 -2
v -2 3 -2
v -2 22 -2
v -2 23 -2
v -2 24 -2
v -2 28 -2
v -2 29 -2
v -2 30 -2
v -1 3 -2
v -1 4 -2
v 1 3 -2
v 1 4 -2
v 2 1 -2
v 2 2 -2
v 2 3 -2
v 2 22 -2
v 2 23 -2
v 2 24 -2
v 2 28 -2
v 2 29 -2
v 2 30 -2
v 3 0 -2
v 3 1 -2
v 3 2 -2
v 3 23 -2
v 3 24 -2
v 3 28 -2
v 3 29 -2
v 4 0 -2
v 4 1 -2
v 4 24 -2
v 4 28 -2
v -3 0 -3
v -3 1 -3
v -3 24 -3
v -3 28 -3
v -2 0 -3
v -2 1 -3
v -2 2 -3
v -2 23 -3
v -2 24 -3
v -2 28 -3
v -2 29 -3
v 2 0 -3
v 2 1 -3
v 2 2 -3
v 2 23 -3
v 2 24 -3
v 2 28 -3
v 2 29 -3
v 3 0 -3
v 3 1 -3
v 3 24 -3
v 3 28 -3
v -2 0 -4
v -2 1 -4
v -2 24 -4
v -2 28 -4
v 2 0 -4
v 2 1 -4
v 2 24 -4
v 2 28 -4
v -2 0 4
v 2 0 4
v -3 0 3
v -2 0 3
v 2 0 3
v 3 0 3
v -4 0 2
v -3 0 2
v -2 0 2
v 2 0 2
v 3 0 2
v 4 0 2
v -4 0 -2
v -3 0 -2
v -2 0 -2
v 2 0 -2
v 3 0 -2
v 4 0 -2
v -3 0 -3
v -2 0 -3
v 2 0 -3
v 3 0 -3
v -2 0 -4
v 2 0 -4
v -2 22 2
v 2 22 2
v -1 22 1
v 1 22 1
v -1 22 -1
v 1 22 -1
v -2 22 -2
v 2 22 -2
v -2 23 3
v 2 23 3
v -3 23 2
v -2 23 2
v 2 23 2
v 3 23 2
v -3 23 -2
v -2 23 -2
v 2 23 -2
v 3 23 -2
v -2 23 -3
v 2 23 -3
v -2 24 4
v 2 24 4
v -3 24 3
v -2 24 3
v 2 24 3
v 3 24 3
v -4 24 2
v -3 24 2
v -2 24 2
v 2 24 2
v 3 24 2
v 4 24 2
v -4 24 -2
v -3 24 -2
v -2 24 -2
v 2 24 -2
v 3 24 -2
v 4 24 -2
v -3 24 -3
v -2 24 -3
v 2 24 -3
v 3 24 -3
v -2 24 -4
v 2 24 -4
v -2 1 4
v 2 1 4
v -3 1 3
v -2 1 3
v 2 1 3
v 3 1 3
v -4 1 2
v -3 1 2
v -2 1 2
v 2 1 2
v 3 1 2
v 4 1 2
v -4 1 -2
v -3 1 -2
v -2 1 -2
v 2 1 -2
v 3 1 -2
v 4 1 -2
v -3 1 -3
v -2 1 -3
v 2 1 -3
v 3 1 -3
v -2 1 -4
v 2 1 -4
v -2 2 3
v 2 2 3
v -3 2 2
v -2 2 2
v 2 2 2
v 3 2 2
v -3 2 -2
v -2 2 -2
v 2 2 -2
v 3 2 -2
v -2 2 -3
v 2 2 -3
v -2 3 2
v -1 3 2
v 1 3 2
v 2 3 2
v -2 3 1
v -1 3 1
v 1 3 1
v 2 3 1
v -2 3 -1
v -1 3 -1
v 1 3 -1
v 2 3 -1
v -2 3 -2
v -1 3 -2
v 1 3 -2
v 2 3 -2
v -1 4 2
v 1 4 2
v -2 4 1
v -1 4 1
v 1 4 1
v 2 4 1
v -2 4 -1
v -1 4 -1
v 1 4 -1
v 2 4 -1
v -1 4 -2
v 1 4 -2
v -2 28 4
v 2 28 4
v -3 28 3
v -2 28 3
v 2 28 3
v 3 28 3
v -4 28 2
v -3 28 2
v -2 28 2
v 2 28 2
v 3 28 2
v 4 28 2
v -4 28 -2
v -3 28 -2
v -2 28 -2
v 2 28 -2
v 3 28 -2
v 4 28 -2
v -3 28 -3
v -2 28 -3
v 2 28 -3
v 3 28 -3
v -2 28 -4
v 2 28 -4
v -2 29 3
v 2 29 3
v -3 29 2
v -2 29 2
v 2 29 2
v 3 29 2
v -3 29 -2
v -2 29 -2
v 2 29 -2
v 3 29 -2
v -2 29 -3
v 2 29 -3
v -2 30 2
v 2 30 2
v -2 30 -2
v 2 30 -2

# faces
f 3/3/1 2/3/1 1/3/1
f 4/3/1 2/3/1 3/3/1
f 7/2/1 6/2/1 5/2/1
f 8/2/1 6/2/1 7/2/1
f 13/3/1 10/3/1 9/3/1
f 14/3/1 10/3/1 13/3/1
f 15/3/1 12/3/1 11/3/1
f 16/3/1 12/3/1 15/3/1
f 17/4/1 15/4/1 14/4/1
f 18/4/1 15/4/1 17/4/1
f 22/2/1 20/2/1 19/2/1
f 23/2/1 20/2/1 22/2/1
f 25/2/1 22/2/1 21/2/1
f 26/2/1 22/2/1 25/2/1
f 27/2/1 24/2/1 23/2/1
f 28/2/1 24/2/1 27/2/1
f 29/2/1 27/2/1 26/2/1
f 30/2/1 27/2/1 29/2/1
f 35/3/1 32/3/1 31/3/1
f 36/3/1 32/3/1 35/3/1
f 39/3/1 34/3/1 33/3/1
f 40/3/1 34/3/1 39/3/1
f 41/4/1 37/4/1 36/4/1
f 42/4/1 37/4/1 41/4/1
f 43/4/1 39/4/1 38/4/1
f 44/4/1 39/4/1 43/4/1
f 45/4/1 43/4/1 42/4/1
f 46/4/1 43/4/1 45/4/1
f 47/4/1 43/4/1 46/4/1
f 48/4/1 43/4/1 47/4/1
f 49/4/1 47/4/1 46/4/1
f 50/4/1 47/4/1 49/4/1
f 54/2/1 52/2/1 51/2/1
f 55/2/1 52/2/1 54/2/1
f 58/2/1 54/2/1 53/2/1
f 59/2/1 54/2/1 58/2/1
f 60/2/1 56/2/1 55/2/1
f 61/2/1 56/2/1 60/2/1
f 63/2/1 58/2/1 57/2/1
f 64/2/1 58/2/1 63/2/1
f 67/2/1 62/2/1 61/2/1
f 68/2/1 62/2/1 67/2/1
f 69/2/1 65/2/1 64/2/1
f 70/2/1 65/2/1 69/2/1
f 71/2/1 67/2/1 66/2/1
f 72/2/1 67/2/1 71/2/1
f 73/2/1 71/2/1 70/2/1
f 74/2/1 71/2/1 73/2/1
f 79/4/1 76/4/1 75/4/1
f 80/4/1 76/4/1 79/4/1
f 81/4/1 78/4/1 77/4/1
f 82/4/1 78/4/1 81/4/1
f 83/4/1 81/4/1 80/4/1
f 84/4/1 81/4/1 83/4/1
f 85/4/2 86/4/2 89/4/2
f 89/4/2 86/4/2 90/4/2
f 87/4/2 88/4/2 91/4/2
f 91/4/2 88/4/2 92/4/2
f 90/4/2 91/4/2 93/4/2
f 93/4/2 91/4/2 94/4/2
f 95/3/2 96/3/2 99/3/2
f 99/3/2 96/3/2 100/3/2
f 97/3/2 98/3/2 103/3/2
f 103/3/2 98/3/2 104/3/2
f 100/4/2 101/4/2 105/4/2
f 105/4/2 101/4/2 106/4/2
f 102/4/2 103/4/2 107/4/2
f 107/4/2 103/4/2 108/4/2
f 106/4/2 107/4/2 109/4/2
f 109/4/2 107/4/2 110/4/2
f 110/4/2 107/4/2 111/4/2
f 111/4/2 107/4/2 112/4/2
f 110/4/2 111/4/2 113/4/2
f 113/4/2 111/4/2 114/4/2
f 115/2/2 116/2/2 118/2/2
f 118/2/2 116/2/2 119/2/2
f 117/2/2 118/2/2 122/2/2
f 122/2/2 118/2/2 123/2/2
f 119/2/2 120/2/2 124/2/2
f 124/2/2 120/2/2 125/2/2
f 121/2/2 122/2/2 127/2/2
f 127/2/2 122/2/2 128/2/2
f 125/2/2 126/2/2 131/2/2
f 131/2/2 126/2/2 132/2/2
f 128/2/2 129/2/2 133/2/2
f 133/2/2 129/2/2 134/2/2
f 130/2/2 131/2/2 135/2/2
f 135/2/2 131/2/2 136/2/2
f 134/2/2 135/2/2 137/2/2
f 137/2/2 135/2/2 138/2/2
f 139/3/2 140/3/2 143/3/2
f 143/3/2 140/3/2 144/3/2
f 141/3/2 142/3/2 145/3/2
f 145/3/2 142/3/2 146/3/2
f 144/4/2 145/4/2 147/4/2
f 147/4/2 145/4/2 148/4/2
f 149/2/2 150/2/2 152/2/2
f 152/2/2 150/2/2 153/2/2
f 151/2/2 152/2/2 155/2/2
f 155/2/2 152/2/2 156/2/2
f 153/2/2 154/2/2 157/2/2
f 157/2/2 154/2/2 158/2/2
f 156/2/2 157/2/2 159/2/2
f 159/2/2 157/2/2 160/2/2
f 161/3/2 162/3/2 163/3/2
f 163/3/2 162/3/2 164/3/2
f 165/2/2 166/2/2 167/2/2
f 167/2/2 166/2/2 168/2/2
f 173/3/3 170/3/3 169/3/3
f 174/3/3 170/3/3 173/3/3
f 175/2/3 172/2/3 171/2/3
f 176/2/3 172/2/3 175/2/3
f 181/3/3 178/3/3 177/3/3
f 182/3/3 178/3/3 181/3/3
f 185/2/3 180/2/3 179/2/3
f 186/2/3 180/2/3 185/2/3
f 189/4/3 183/4/3 182/4/3
f 190/4/3 183/4/3 189/4/3
f 191/2/3 185/2/3 184/2/3
f 192/2/3 185/2/3 191/2/3
f 193/2/3 187/2/3 186/2/3
f 194/2/3 187/2/3 193/2/3
f 195/3/3 189/3/3 188/3/3
f 196/3/3 189/3/3 195/3/3
f 197/2/3 193/2/3 192/2/3
f 198/2/3 193/2/3 197/2/3
f 203/3/3 200/3/3 199/3/3
f 204/3/3 200/3/3 203/3/3
f 207/2/3 202/2/3 201/2/3
f 208/2/3 202/2/3 207/2/3
f 210/4/3 205/4/3 204/4/3
f 211/4/3 205/4/3 210/4/3
f 214/2/3 207/2/3 206/2/3
f 215/2/3 207/2/3 214/2/3
f 216/2/3 209/2/3 208/2/3
f 217/2/3 209/2/3 216/2/3
f 219/4/3 212/4/3 211/4/3
f 221/4/3 219/4/3 211/4/3
f 221/4/3 220/4/3 219/4/3
f 222/4/3 220/4/3 221/4/3
f 224/4/3 221/4/3 211/4/3
f 225/4/3 221/4/3 224/4/3
f 226/2/3 214/2/3 213/2/3
f 227/2/3 214/2/3 226/2/3
f 230/2/3 218/2/3 217/2/3
f 231/2/3 218/2/3 230/2/3
f 233/4/3 224/4/3 223/4/3
f 234/4/3 224/4/3 233/4/3
f 235/2/3 228/2/3 227/2/3
f 236/2/3 228/2/3 235/2/3
f 237/2/3 230/2/3 229/2/3
f 238/2/3 230/2/3 237/2/3
f 239/3/3 233/3/3 232/3/3
f 240/3/3 233/3/3 239/3/3
f 241/2/3 237/2/3 236/2/3
f 242/2/3 237/2/3 241/2/3
f 245/4/3 244/4/3 243/4/3
f 246/4/3 244/4/3 245/4/3
f 249/4/3 247/4/3 246/4/3
f 250/4/3 247/4/3 249/4/3
f 251/4/3 249/4/3 248/4/3
f 252/4/3 249/4/3 251/4/3
f 253/4/4 254/4/4 255/4/4
f 255/4/4 254/4/4 256/4/4
f 256/4/4 257/4/4 259/4/4
f 259/4/4 257/4/4 260/4/4
f 258/4/4 259/4/4 261/4/4
f 261/4/4 259/4/4 262/4/4
f 263/3/4 264/3/4 267/3/4
f 267/3/4 264/3/4 268/3/4
f 265/2/4 266/2/4 271/2/4
f 271/2/4 266/2/4 272/2/4
f 268/4/4 269/4/4 274/4/4
f 274/4/4 269/4/4 275/4/4
f 270/2/4 271/2/4 278/2/4
f 278/2/4 271/2/4 279/2/4
f 272/2/4 273/2/4 280/2/4
f 280/2/4 273/2/4 281/2/4
f 275/4/4 276/4/4 283/4/4
f 275/4/4 283/4/4 285/4/4
f 283/4/4 284/4/4 285/4/4
f 285/4/4 284/4/4 286/4/4
f 275/4/4 285/4/4 288/4/4
f 288/4/4 285/4/4 289/4/4
f 277/2/4 278/2/4 290/2/4
f 290/2/4 278/2/4 291/2/4
f 281/2/4 282/2/4 294/2/4
f 294/2/4 282/2/4 295/2/4
f 287/4/4 288/4/4 297/4/4
f 297/4/4 288/4/4 298/4/4
f 291/2/4 292/2/4 299/2/4
f 299/2/4 292/2/4 300/2/4
f 293/2/4 294/2/4 301/2/4
f 301/2/4 294/2/4 302/2/4
f 296/3/4 297/3/4 303/3/4
f 303/3/4 297/3/4 304/3/4
f 300/2/4 301/2/4 305/2/4
f 305/2/4 301/2/4 306/2/4
f 307/3/4 308/3/4 311/3/4
f 311/3/4 308/3/4 312/3/4
f 309/2/4 310/2/4 315/2/4
f 315/2/4 310/2/4 316/2/4
f 312/4/4 313/4/4 319/4/4
f 319/4/4 313/4/4 320/4/4
f 314/2/4 315/2/4 321/2/4
f 321/2/4 315/2/4 322/2/4
f 316/2/4 317/2/4 323/2/4
f 323/2/4 317/2/4 324/2/4
f 318/3/4 319/3/4 325/3/4
f 325/3/4 319/3/4 326/3/4
f 322/2/4 323/2/4 327/2/4
f 327/2/4 323/2/4 328/2/4
f 329/3/4 330/3/4 333/3/4
f 333/3/4 330/3/4 334/3/4
f 331/2/4 332/2/4 335/2/4
f 335/2/4 332/2/4 336/2/4
f 340/3/5 338/3/5 337/3/5
f 341/3/5 338/3/5 340/3/5
f 344/3/5 340/3/5 339/3/5
f 345/1/5 341/1/5 340/1/5
f 345/3/5 340/3/5 344/3/5
f 346/3/5 342/3/5 341/3/5
f 346/1/5 341/1/5 345/1/5
f 347/3/5 342/3/5 346/3/5
f 349/3/5 344/3/5 343/3/5
f 350/1/5 345/1/5 344/1/5
f 350/3/5 344/3/5 349/3/5
f 350/1/5 346/1/5 345/1/5
f 350/1/5 347/1/5 346/1/5
f 351/1/5 347/1/5 350/1/5
f 352/1/5 347/1/5 351/1/5
f 353/3/5 348/3/5 347/3/5
f 353/1/5 347/1/5 352/1/5
f 354/3/5 348/3/5 353/3/5
f 355/3/5 351/3/5 350/3/5
f 356/1/5 352/1/5 351/1/5
f 356/3/5 351/3/5 355/3/5
f 357/3/5 353/3/5 352/3/5
f 357/1/5 352/1/5 356/1/5
f 358/3/5 353/3/5 357/3/5
f 359/3/5 357/3/5 356/3/5
f 360/3/5 357/3/5 359/3/5
f 363/2/5 362/2/5 361/2/5
f 364/2/5 362/2/5 363/2/5
f 365/2/5 363/2/5 361/2/5
f 366/2/5 362/2/5 364/2/5
f 367/2/5 365/2/5 361/2/5
f 367/2/5 366/2/5 365/2/5
f 368/2/5 362/2/5 366/2/5
f 368/2/5 366/2/5 367/2/5
f 372/2/5 370/2/5 369/2/5
f 373/2/5 370/2/5 372/2/5
f 375/2/5 372/2/5 371/2/5
f 376/2/5 372/2/5 375/2/5
f 377/2/5 374/2/5 373/2/5
f 378/2/5 374/2/5 377/2/5
f 379/2/5 377/2/5 376/2/5
f 380/2/5 377/2/5 379/2/5
f 384/2/5 382/2/5 381/2/5
f 385/2/5 382/2/5 384/2/5
f 388/2/5 384/2/5 383/2/5
f 389/2/5 384/2/5 388/2/5
f 390/2/5 386/2/5 385/2/5
f 391/2/5 386/2/5 390/2/5
f 393/2/5 388/2/5 387/2/5
f 394/2/5 388/2/5 393/2/5
f 397/2/5 392/2/5 391/2/5
f 398/2/5 392/2/5 397/2/5
f 399/2/5 395/2/5 394/2/5
f 400/2/5 395/2/5 399/2/5
f 401/2/5 397/2/5 396/2/5
f 402/2/5 397/2/5 401/2/5
f 403/2/5 401/2/5 400/2/5
f 404/2/5 401/2/5 403/2/5
f 405/3/6 406/3/6 408/3/6
f 408/3/6 406/3/6 409/3/6
f 407/3/6 408/3/6 412/3/6
f 412/3/6 408/3/6 413/3/6
f 409/3/6 410/3/6 414/3/6
f 414/3/6 410/3/6 415/3/6
f 411/3/6 412/3/6 417/3/6
f 417/3/6 412/3/6 418/3/6
f 415/3/6 416/3/6 421/3/6
f 421/3/6 416/3/6 422/3/6
f 418/3/6 419/3/6 423/3/6
f 423/3/6 419/3/6 424/3/6
f 420/3/6 421/3/6 425/3/6
f 425/3/6 421/3/6 426/3/6
f 424/3/6 425/3/6 427/3/6
f 427/3/6 425/3/6 428/3/6
f 429/4/6 430/4/6 432/4/6
f 432/4/6 430/4/6 433/4/6
f 431/4/6 432/4/6 435/4/6
f 435/4/6 432/4/6 436/4/6
f 433/4/6 434/4/6 437/4/6
f 437/4/6 434/4/6 438/4/6
f 436/4/6 437/4/6 439/4/6
f 439/4/6 437/4/6 440/4/6
f 441/4/6 442/4/6 445/4/6
f 445/4/6 442/4/6 446/4/6
f 443/4/6 444/4/6 447/4/6
f 447/4/6 444/4/6 448/4/6
f 449/4/6 450/4/6 453/4/6
f 453/4/6 450/4/6 454/4/6
f 451/4/6 452/4/6 455/4/6
f 455/4/6 452/4/6 456/4/6
f 457/4/6 458/4/6 460/4/6
f 460/4/6 458/4/6 461/4/6
f 459/4/6 460/4/6 463/4/6
f 463/4/6 460/4/6 464/4/6
f 461/4/6 462/4/6 465/4/6
f 465/4/6 462/4/6 466/4/6
f 464/4/6 465/4/6 467/4/6
f 467/4/6 465/4/6 468/4/6
f 469/2/6 470/2/6 472/2/6
f 472/2/6 470/2/6 473/2/6
f 471/2/6 472/2/6 476/2/6
f 476/2/6 472/2/6 477/2/6
f 473/2/6 474/2/6 478/2/6
f 478/2/6 474/2/6 479/2/6
f 475/2/6 476/2/6 481/2/6
f 481/2/6 476/2/6 482/2/6
f 479/2/6 480/2/6 485/2/6
f 485/2/6 480/2/6 486/2/6
f 482/2/6 483/2/6 487/2/6
f 487/2/6 483/2/6 488/2/6
f 484/2/6 485/2/6 489/2/6
f 489/2/6 485/2/6 490/2/6
f 488/2/6 489/2/6 491/2/6
f 491/2/6 489/2/6 492/2/6
f 493/2/6 494/2/6 496/2/6
f 496/2/6 494/2/6 497/2/6
f 495/2/6 496/2/6 499/2/6
f 499/2/6 496/2/6 500/2/6
f 497/2/6 498/2/6 501/2/6
f 501/2/6 498/2/6 502/2/6
f 500/2/6 501/2/6 503/2/6
f 503/2/6 501/2/6 504/2/6
f 505/2/6 506/2/6 507/2/6
f 507/2/6 506/2/6 508/2/6
