# MagicaVoxel @ Ephtracy

# group
g tolppa

# material
mtllib tolppa.mtl
usemtl palette

# normals
vn -1 0 0
vn 1 0 0
vn 0 0 1
vn 0 0 -1
vn 0 -1 0
vn 0 1 0

# texcoords
vt 0.00195313 0.5
vt 0.146484 0.5
vt 0.427734 0.5
vt 0.583984 0.5
vt 0.923828 0.5
vt 0.994141 0.5

# verts
v -2 45 9
v -2 45 -1
v -2 46 8
v -2 46 -0
v -2 47 8
v -2 47 -0
v -2 48 9
v -2 48 -1
v -1 0 1
v -1 0 -1
v -1 23 -2
v -1 23 -8
v -1 24 -1
v -1 24 -2
v -1 24 -3
v -1 24 -4
v -1 24 -5
v -1 24 -6
v -1 25 -3
v -1 25 -4
v -1 25 -5
v -1 25 -6
v -1 25 -7
v -1 26 -1
v -1 26 -2
v -1 26 -4
v -1 26 -5
v -1 26 -6
v -1 26 -7
v -1 27 9
v -1 27 2
v -1 27 -2
v -1 27 -8
v -1 28 8
v -1 28 3
v -1 28 2
v -1 28 1
v -1 29 8
v -1 29 3
v -1 29 2
v -1 29 1
v -1 30 9
v -1 30 2
v -1 34 2
v -1 34 1
v -1 34 -1
v -1 34 -9
v -1 36 2
v -1 36 1
v -1 36 -1
v -1 36 -9
v -1 45 1
v -1 45 -1
v -1 48 1
v -1 48 -1
v -1 50 1
v -1 50 -1
v 0 0 1
v 0 0 -1
v 0 23 -2
v 0 23 -8
v 0 24 -1
v 0 24 -2
v 0 24 -3
v 0 24 -4
v 0 24 -5
v 0 24 -6
v 0 25 -3
v 0 25 -4
v 0 25 -5
v 0 25 -6
v 0 25 -7
v 0 26 -1
v 0 26 -2
v 0 26 -4
v 0 26 -5
v 0 26 -6
v 0 26 -7
v 0 27 9
v 0 27 2
v 0 27 -2
v 0 27 -8
v 0 28 8
v 0 28 3
v 0 28 2
v 0 28 1
v 0 29 8
v 0 29 3
v 0 29 2
v 0 29 1
v 0 30 9
v 0 30 2
v 0 34 1
v 0 34 -0
v 0 34 -1
v 0 36 1
v 0 36 -1
v 0 45 9
v 0 45 1
v 0 46 8
v 0 46 2
v 0 47 8
v 0 47 2
v 0 48 9
v 0 48 1
v 0 50 1
v 0 50 -1
v 1 34 2
v 1 34 -0
v 1 34 -1
v 1 34 -3
v 1 34 -4
v 1 34 -7
v 1 34 -8
v 1 34 -9
v 1 35 -0
v 1 35 -1
v 1 35 -2
v 1 35 -3
v 1 35 -4
v 1 35 -5
v 1 35 -6
v 1 35 -7
v 1 35 -8
v 1 36 2
v 1 36 -1
v 1 36 -2
v 1 36 -5
v 1 36 -6
v 1 36 -9
v -2 45 9
v -2 48 9
v -1 27 9
v -1 30 9
v 0 27 9
v 0 30 9
v 0 45 9
v 0 48 9
v -1 34 2
v -1 36 2
v 1 34 2
v 1 36 2
v -1 0 1
v -1 28 1
v -1 29 1
v -1 34 1
v -1 36 1
v -1 45 1
v -1 48 1
v -1 50 1
v 0 0 1
v 0 28 1
v 0 29 1
v 0 34 1
v 0 36 1
v 0 45 1
v 0 48 1
v 0 50 1
v -1 23 -2
v -1 24 -2
v -1 26 -2
v -1 27 -2
v 0 23 -2
v 0 24 -2
v 0 26 -2
v 0 27 -2
v -1 27 2
v -1 28 2
v -1 29 2
v -1 30 2
v 0 27 2
v 0 28 2
v 0 29 2
v 0 30 2
v -2 45 -1
v -2 48 -1
v -1 0 -1
v -1 24 -1
v -1 26 -1
v -1 34 -1
v -1 36 -1
v -1 45 -1
v -1 48 -1
v -1 50 -1
v 0 0 -1
v 0 24 -1
v 0 26 -1
v 0 34 -1
v 0 36 -1
v 0 50 -1
v -1 23 -8
v -1 27 -8
v 0 23 -8
v 0 27 -8
v -1 34 -9
v -1 36 -9
v 1 34 -9
v 1 36 -9
v -1 0 1
v 0 0 1
v -1 0 -1
v 0 0 -1
v -1 23 -2
v 0 23 -2
v -1 23 -8
v 0 23 -8
v -1 24 -1
v 0 24 -1
v -1 24 -2
v 0 24 -2
v -1 27 9
v 0 27 9
v -1 27 2
v 0 27 2
v -1 28 2
v 0 28 2
v -1 28 1
v 0 28 1
v -1 34 2
v 1 34 2
v -1 34 1
v 0 34 1
v 0 34 -0
v 1 34 -0
v -1 34 -1
v 0 34 -1
v 1 34 -1
v 0 34 -3
v 1 34 -3
v 0 34 -4
v 1 34 -4
v 0 34 -7
v 1 34 -7
v 0 34 -8
v 1 34 -8
v -1 34 -9
v 1 34 -9
v -2 45 9
v 0 45 9
v -1 45 1
v 0 45 1
v -2 45 -1
v -1 45 -1
v -1 26 -1
v 0 26 -1
v -1 26 -2
v 0 26 -2
v -1 27 -2
v 0 27 -2
v -1 27 -8
v 0 27 -8
v -1 29 2
v 0 29 2
v -1 29 1
v 0 29 1
v -1 30 9
v 0 30 9
v -1 30 2
v 0 30 2
v -1 36 2
v 1 36 2
v -1 36 1
v 0 36 1
v -1 36 -1
v 0 36 -1
v 1 36 -1
v 0 36 -2
v 1 36 -2
v 0 36 -5
v 1 36 -5
v 0 36 -6
v 1 36 -6
v -1 36 -9
v 1 36 -9
v -2 48 9
v 0 48 9
v -1 48 1
v 0 48 1
v -2 48 -1
v -1 48 -1
v -1 50 1
v 0 50 1
v -1 50 -1
v 0 50 -1

# faces
f 3/2/1 2/2/1 1/2/1
f 4/2/1 2/2/1 3/2/1
f 5/2/1 3/2/1 1/2/1
f 5/1/1 4/1/1 3/1/1
f 6/2/1 2/2/1 4/2/1
f 6/1/1 4/1/1 5/1/1
f 7/2/1 5/2/1 1/2/1
f 7/2/1 6/2/1 5/2/1
f 8/2/1 2/2/1 6/2/1
f 8/2/1 6/2/1 7/2/1
f 13/5/1 10/5/1 9/5/1
f 14/4/1 12/4/1 11/4/1
f 15/4/1 12/4/1 14/4/1
f 16/4/1 12/4/1 15/4/1
f 17/4/1 12/4/1 16/4/1
f 18/4/1 12/4/1 17/4/1
f 19/4/1 15/4/1 14/4/1
f 19/1/1 16/1/1 15/1/1
f 20/4/1 17/4/1 16/4/1
f 20/1/1 16/1/1 19/1/1
f 21/1/1 18/1/1 17/1/1
f 21/4/1 17/4/1 20/4/1
f 22/4/1 12/4/1 18/4/1
f 22/1/1 18/1/1 21/1/1
f 23/4/1 12/4/1 22/4/1
f 24/5/1 13/5/1 9/5/1
f 24/5/1 14/5/1 13/5/1
f 25/4/1 20/4/1 19/4/1
f 25/5/1 14/5/1 24/5/1
f 25/4/1 19/4/1 14/4/1
f 26/1/1 21/1/1 20/1/1
f 26/4/1 20/4/1 25/4/1
f 27/4/1 22/4/1 21/4/1
f 27/1/1 21/1/1 26/1/1
f 28/1/1 23/1/1 22/1/1
f 28/4/1 22/4/1 27/4/1
f 29/4/1 12/4/1 23/4/1
f 29/1/1 23/1/1 28/1/1
f 32/4/1 28/4/1 27/4/1
f 32/4/1 27/4/1 26/4/1
f 32/4/1 29/4/1 28/4/1
f 32/4/1 26/4/1 25/4/1
f 33/4/1 12/4/1 29/4/1
f 33/4/1 29/4/1 32/4/1
f 34/4/1 31/4/1 30/4/1
f 35/4/1 31/4/1 34/4/1
f 36/4/1 31/4/1 35/4/1
f 37/5/1 24/5/1 9/5/1
f 38/4/1 34/4/1 30/4/1
f 38/1/1 35/1/1 34/1/1
f 39/4/1 36/4/1 35/4/1
f 39/1/1 35/1/1 38/1/1
f 40/5/1 37/5/1 36/5/1
f 40/4/1 36/4/1 39/4/1
f 41/5/1 24/5/1 37/5/1
f 41/5/1 37/5/1 40/5/1
f 42/4/1 38/4/1 30/4/1
f 42/4/1 39/4/1 38/4/1
f 42/4/1 40/4/1 39/4/1
f 43/4/1 40/4/1 42/4/1
f 45/5/1 24/5/1 41/5/1
f 46/5/1 24/5/1 45/5/1
f 48/3/1 45/3/1 44/3/1
f 49/5/1 46/5/1 45/5/1
f 49/3/1 45/3/1 48/3/1
f 50/3/1 47/3/1 46/3/1
f 50/5/1 46/5/1 49/5/1
f 51/3/1 47/3/1 50/3/1
f 52/5/1 50/5/1 49/5/1
f 53/5/1 50/5/1 52/5/1
f 56/5/1 55/5/1 54/5/1
f 57/5/1 55/5/1 56/5/1
f 58/5/2 59/5/2 62/5/2
f 60/4/2 61/4/2 63/4/2
f 63/4/2 61/4/2 64/4/2
f 64/4/2 61/4/2 65/4/2
f 65/4/2 61/4/2 66/4/2
f 66/4/2 61/4/2 67/4/2
f 63/4/2 64/4/2 68/4/2
f 64/1/2 65/1/2 68/1/2
f 65/4/2 66/4/2 69/4/2
f 68/1/2 65/1/2 69/1/2
f 66/1/2 67/1/2 70/1/2
f 69/4/2 66/4/2 70/4/2
f 67/4/2 61/4/2 71/4/2
f 70/1/2 67/1/2 71/1/2
f 71/4/2 61/4/2 72/4/2
f 58/5/2 62/5/2 73/5/2
f 62/5/2 63/5/2 73/5/2
f 68/4/2 69/4/2 74/4/2
f 73/5/2 63/5/2 74/5/2
f 63/4/2 68/4/2 74/4/2
f 69/1/2 70/1/2 75/1/2
f 74/4/2 69/4/2 75/4/2
f 70/4/2 71/4/2 76/4/2
f 75/1/2 70/1/2 76/1/2
f 71/1/2 72/1/2 77/1/2
f 76/4/2 71/4/2 77/4/2
f 72/4/2 61/4/2 78/4/2
f 77/1/2 72/1/2 78/1/2
f 76/4/2 77/4/2 81/4/2
f 75/4/2 76/4/2 81/4/2
f 77/4/2 78/4/2 81/4/2
f 74/4/2 75/4/2 81/4/2
f 78/4/2 61/4/2 82/4/2
f 81/4/2 78/4/2 82/4/2
f 79/4/2 80/4/2 83/4/2
f 83/4/2 80/4/2 84/4/2
f 84/4/2 80/4/2 85/4/2
f 58/5/2 73/5/2 86/5/2
f 79/4/2 83/4/2 87/4/2
f 83/1/2 84/1/2 87/1/2
f 84/4/2 85/4/2 88/4/2
f 87/1/2 84/1/2 88/1/2
f 85/5/2 86/5/2 89/5/2
f 88/4/2 85/4/2 89/4/2
f 86/5/2 73/5/2 90/5/2
f 89/5/2 86/5/2 90/5/2
f 79/4/2 87/4/2 91/4/2
f 87/4/2 88/4/2 91/4/2
f 88/4/2 89/4/2 91/4/2
f 91/4/2 89/4/2 92/4/2
f 90/5/2 73/5/2 93/5/2
f 93/5/2 73/5/2 94/5/2
f 94/5/2 73/5/2 95/5/2
f 96/5/2 97/5/2 99/5/2
f 98/2/2 99/2/2 100/2/2
f 100/2/2 99/2/2 101/2/2
f 98/2/2 100/2/2 102/2/2
f 100/1/2 101/1/2 102/1/2
f 101/2/2 99/2/2 103/2/2
f 102/1/2 101/1/2 103/1/2
f 98/2/2 102/2/2 104/2/2
f 102/2/2 103/2/2 104/2/2
f 99/5/2 97/5/2 105/5/2
f 104/2/2 103/2/2 105/2/2
f 103/2/2 99/2/2 105/2/2
f 105/5/2 97/5/2 106/5/2
f 106/5/2 97/5/2 107/5/2
f 108/3/2 109/3/2 116/3/2
f 109/6/2 110/6/2 116/6/2
f 110/3/2 111/3/2 117/3/2
f 116/6/2 110/6/2 117/6/2
f 117/3/2 111/3/2 118/3/2
f 111/6/2 112/6/2 119/6/2
f 118/3/2 111/3/2 119/3/2
f 112/3/2 113/3/2 120/3/2
f 119/6/2 112/6/2 120/6/2
f 120/3/2 113/3/2 121/3/2
f 121/3/2 113/3/2 122/3/2
f 113/6/2 114/6/2 123/6/2
f 122/3/2 113/3/2 123/3/2
f 114/3/2 115/3/2 124/3/2
f 123/6/2 114/6/2 124/6/2
f 108/3/2 116/3/2 125/3/2
f 116/3/2 117/3/2 125/3/2
f 117/6/2 118/6/2 126/6/2
f 125/3/2 117/3/2 126/3/2
f 118/3/2 119/3/2 127/3/2
f 126/6/2 118/6/2 127/6/2
f 119/3/2 120/3/2 127/3/2
f 120/3/2 121/3/2 127/3/2
f 121/6/2 122/6/2 128/6/2
f 127/3/2 121/3/2 128/3/2
f 122/3/2 123/3/2 129/3/2
f 128/6/2 122/6/2 129/6/2
f 123/3/2 124/3/2 129/3/2
f 124/3/2 115/3/2 130/3/2
f 129/3/2 124/3/2 130/3/2
f 135/4/3 134/4/3 133/4/3
f 136/4/3 134/4/3 135/4/3
f 137/2/3 132/2/3 131/2/3
f 138/2/3 132/2/3 137/2/3
f 141/3/3 140/3/3 139/3/3
f 142/3/3 140/3/3 141/3/3
f 151/5/3 144/5/3 143/5/3
f 152/5/3 144/5/3 151/5/3
f 153/5/3 146/5/3 145/5/3
f 154/5/3 146/5/3 153/5/3
f 155/5/3 148/5/3 147/5/3
f 156/5/3 148/5/3 155/5/3
f 157/5/3 150/5/3 149/5/3
f 158/5/3 150/5/3 157/5/3
f 163/4/3 160/4/3 159/4/3
f 164/4/3 160/4/3 163/4/3
f 165/4/3 162/4/3 161/4/3
f 166/4/3 162/4/3 165/4/3
f 167/4/4 168/4/4 171/4/4
f 171/4/4 168/4/4 172/4/4
f 169/4/4 170/4/4 173/4/4
f 173/4/4 170/4/4 174/4/4
f 175/2/4 176/2/4 182/2/4
f 182/2/4 176/2/4 183/2/4
f 177/5/4 178/5/4 185/5/4
f 185/5/4 178/5/4 186/5/4
f 179/5/4 180/5/4 187/5/4
f 187/5/4 180/5/4 188/5/4
f 183/5/4 184/5/4 189/5/4
f 181/5/4 182/5/4 189/5/4
f 182/5/4 183/5/4 189/5/4
f 189/5/4 184/5/4 190/5/4
f 191/4/4 192/4/4 193/4/4
f 193/4/4 192/4/4 194/4/4
f 195/3/4 196/3/4 197/3/4
f 197/3/4 196/3/4 198/3/4
f 201/5/5 200/5/5 199/5/5
f 202/5/5 200/5/5 201/5/5
f 205/4/5 204/4/5 203/4/5
f 206/4/5 204/4/5 205/4/5
f 209/5/5 208/5/5 207/5/5
f 210/5/5 208/5/5 209/5/5
f 213/4/5 212/4/5 211/4/5
f 214/4/5 212/4/5 213/4/5
f 217/5/5 216/5/5 215/5/5
f 218/5/5 216/5/5 217/5/5
f 221/3/5 220/3/5 219/3/5
f 222/3/5 220/3/5 221/3/5
f 223/3/5 220/3/5 222/3/5
f 224/3/5 220/3/5 223/3/5
f 226/6/5 224/6/5 223/6/5
f 227/6/5 224/6/5 226/6/5
f 228/3/5 226/3/5 225/3/5
f 228/3/5 227/3/5 226/3/5
f 229/3/5 227/3/5 228/3/5
f 230/3/5 228/3/5 225/3/5
f 230/6/5 229/6/5 228/6/5
f 231/6/5 229/6/5 230/6/5
f 232/3/5 230/3/5 225/3/5
f 232/3/5 231/3/5 230/3/5
f 233/3/5 231/3/5 232/3/5
f 234/3/5 232/3/5 225/3/5
f 234/6/5 233/6/5 232/6/5
f 235/6/5 233/6/5 234/6/5
f 236/3/5 234/3/5 225/3/5
f 236/3/5 235/3/5 234/3/5
f 237/3/5 235/3/5 236/3/5
f 240/2/5 239/2/5 238/2/5
f 241/2/5 239/2/5 240/2/5
f 242/2/5 240/2/5 238/2/5
f 243/2/5 240/2/5 242/2/5
f 244/5/6 245/5/6 246/5/6
f 246/5/6 245/5/6 247/5/6
f 248/4/6 249/4/6 250/4/6
f 250/4/6 249/4/6 251/4/6
f 252/5/6 253/5/6 254/5/6
f 254/5/6 253/5/6 255/5/6
f 256/4/6 257/4/6 258/4/6
f 258/4/6 257/4/6 259/4/6
f 260/3/6 261/3/6 262/3/6
f 262/3/6 261/3/6 263/3/6
f 263/3/6 261/3/6 265/3/6
f 265/3/6 261/3/6 266/3/6
f 264/3/6 265/3/6 267/3/6
f 265/6/6 266/6/6 267/6/6
f 267/6/6 266/6/6 268/6/6
f 264/3/6 267/3/6 269/3/6
f 267/3/6 268/3/6 269/3/6
f 269/3/6 268/3/6 270/3/6
f 264/3/6 269/3/6 271/3/6
f 269/6/6 270/6/6 271/6/6
f 271/6/6 270/6/6 272/6/6
f 264/3/6 271/3/6 273/3/6
f 271/3/6 272/3/6 273/3/6
f 273/3/6 272/3/6 274/3/6
f 275/2/6 276/2/6 277/2/6
f 277/2/6 276/2/6 278/2/6
f 275/2/6 277/2/6 279/2/6
f 279/2/6 277/2/6 280/2/6
f 281/5/6 282/5/6 283/5/6
f 283/5/6 282/5/6 284/5/6
