# MagicaVoxel @ Ephtracy

# group
g trashcan

# material
mtllib trashcan.mtl
usemtl palette

# normals
vn -1 0 0
vn 1 0 0
vn 0 0 1
vn 0 0 -1
vn 0 -1 0
vn 0 1 0

# texcoords
vt 0.927734 0.5
vt 0.982422 0.5
vt 0.986328 0.5

# verts
v -5 11 4
v -5 11 -2
v -5 12 4
v -5 12 -2
v -4 0 3
v -4 0 2
v -4 0 -0
v -4 0 -1
v -4 11 5
v -4 11 4
v -4 11 3
v -4 11 2
v -4 11 -0
v -4 11 -1
v -4 11 -2
v -4 11 -3
v -4 12 5
v -4 12 4
v -4 12 -2
v -4 12 -3
v -3 0 5
v -3 0 4
v -3 0 3
v -3 0 -1
v -3 0 -2
v -3 0 -3
v -3 11 6
v -3 11 5
v -3 11 4
v -3 11 3
v -3 11 -1
v -3 11 -2
v -3 11 -3
v -3 11 -4
v -3 12 6
v -3 12 5
v -3 12 -3
v -3 12 -4
v -2 11 7
v -2 11 6
v -2 11 -4
v -2 11 -5
v -2 12 7
v -2 12 6
v -2 12 -4
v -2 12 -5
v -1 0 6
v -1 0 5
v -1 0 -3
v -1 0 -4
v -1 11 6
v -1 11 5
v -1 11 -3
v -1 11 -4
v 0 12 3
v 0 12 -1
v 0 13 3
v 0 13 -1
v 2 12 3
v 2 12 -1
v 2 13 3
v 2 13 -1
v 3 0 6
v 3 0 5
v 3 0 -3
v 3 0 -4
v 3 11 7
v 3 11 6
v 3 11 5
v 3 11 -3
v 3 11 -4
v 3 12 7
v 3 12 6
v 4 11 -4
v 4 11 -5
v 4 12 -4
v 4 12 -5
v 5 0 5
v 5 0 4
v 5 0 3
v 5 0 -1
v 5 0 -2
v 5 0 -3
v 5 11 6
v 5 11 5
v 5 11 4
v 5 11 3
v 5 11 -1
v 5 11 -2
v 5 11 -3
v 5 11 -4
v 5 12 6
v 5 12 5
v 5 12 -3
v 5 12 -4
v 6 0 3
v 6 0 2
v 6 0 -0
v 6 0 -1
v 6 11 5
v 6 11 3
v 6 11 2
v 6 11 -0
v 6 11 -1
v 6 11 -3
v 6 12 5
v 6 12 3
v 6 12 -1
v 6 12 -3
v 7 11 3
v 7 11 -1
v 7 12 3
v 7 12 -1
v -2 11 7
v -2 12 7
v 3 11 7
v 3 12 7
v -3 11 6
v -3 12 6
v -2 11 6
v -2 12 6
v -1 0 6
v -1 11 6
v 0 0 6
v 0 11 6
v 2 0 6
v 2 11 6
v 3 0 6
v 3 11 6
v 3 12 6
v 5 11 6
v 5 12 6
v -4 11 5
v -4 12 5
v -3 0 5
v -3 11 5
v -3 12 5
v -2 0 5
v -2 11 5
v -1 0 5
v -1 11 5
v 3 0 5
v 3 11 5
v 4 0 5
v 4 11 5
v 5 0 5
v 5 11 5
v 5 12 5
v 6 11 5
v 6 12 5
v -5 11 4
v -5 12 4
v -4 11 4
v -4 12 4
v -4 0 3
v -4 11 3
v -3 0 3
v -3 11 3
v 0 12 3
v 0 13 3
v 2 12 3
v 2 13 3
v 5 0 3
v 5 11 3
v 6 0 3
v 6 11 3
v 6 12 3
v 7 11 3
v 7 12 3
v -4 0 -1
v -4 11 -1
v -3 0 -1
v -3 11 -1
v 0 12 -1
v 0 13 -1
v 2 12 -1
v 2 13 -1
v 5 0 -1
v 5 11 -1
v 6 0 -1
v 6 11 -1
v 6 12 -1
v 7 11 -1
v 7 12 -1
v -5 11 -2
v -5 12 -2
v -4 11 -2
v -4 12 -2
v -4 11 -3
v -4 12 -3
v -3 0 -3
v -3 11 -3
v -3 12 -3
v -2 0 -3
v -2 11 -3
v -1 0 -3
v -1 11 -3
v 3 0 -3
v 3 11 -3
v 4 0 -3
v 4 11 -3
v 5 0 -3
v 5 11 -3
v 5 12 -3
v 6 11 -3
v 6 12 -3
v -3 11 -4
v -3 12 -4
v -2 11 -4
v -2 12 -4
v -1 0 -4
v -1 11 -4
v 0 0 -4
v 0 11 -4
v 2 0 -4
v 2 11 -4
v 3 0 -4
v 3 11 -4
v 4 11 -4
v 4 12 -4
v 5 11 -4
v 5 12 -4
v -2 11 -5
v -2 12 -5
v 4 11 -5
v 4 12 -5
v -1 0 6
v 0 0 6
v 2 0 6
v 3 0 6
v -3 0 5
v -2 0 5
v -1 0 5
v 0 0 5
v 2 0 5
v 3 0 5
v 4 0 5
v 5 0 5
v -3 0 4
v -2 0 4
v -1 0 4
v 3 0 4
v 4 0 4
v 5 0 4
v -4 0 3
v -3 0 3
v -2 0 3
v 4 0 3
v 5 0 3
v 6 0 3
v -4 0 2
v -3 0 2
v 5 0 2
v 6 0 2
v -4 0 -0
v -3 0 -0
v 5 0 -0
v 6 0 -0
v -4 0 -1
v -3 0 -1
v -2 0 -1
v 4 0 -1
v 5 0 -1
v 6 0 -1
v -3 0 -2
v -2 0 -2
v -1 0 -2
v 3 0 -2
v 4 0 -2
v 5 0 -2
v -3 0 -3
v -2 0 -3
v -1 0 -3
v 0 0 -3
v 2 0 -3
v 3 0 -3
v 4 0 -3
v 5 0 -3
v -1 0 -4
v 0 0 -4
v 2 0 -4
v 3 0 -4
v -2 11 7
v 3 11 7
v -3 11 6
v -2 11 6
v -1 11 6
v 0 11 6
v 2 11 6
v 3 11 6
v 5 11 6
v -4 11 5
v -3 11 5
v -2 11 5
v -1 11 5
v 3 11 5
v 4 11 5
v 5 11 5
v 6 11 5
v -5 11 4
v -4 11 4
v -3 11 4
v 5 11 4
v -4 11 3
v -3 11 3
v 5 11 3
v 6 11 3
v 7 11 3
v -4 11 2
v 6 11 2
v -4 11 -0
v 6 11 -0
v -4 11 -1
v -3 11 -1
v 5 11 -1
v 6 11 -1
v 7 11 -1
v -5 11 -2
v -4 11 -2
v -3 11 -2
v 5 11 -2
v -4 11 -3
v -3 11 -3
v -2 11 -3
v -1 11 -3
v 3 11 -3
v 4 11 -3
v 5 11 -3
v 6 11 -3
v -3 11 -4
v -2 11 -4
v -1 11 -4
v 0 11 -4
v 2 11 -4
v 3 11 -4
v 4 11 -4
v 5 11 -4
v -2 11 -5
v 4 11 -5
v -2 12 7
v 3 12 7
v -3 12 6
v -2 12 6
v 3 12 6
v 5 12 6
v -4 12 5
v -3 12 5
v 5 12 5
v 6 12 5
v -5 12 4
v -4 12 4
v 0 12 3
v 2 12 3
v 6 12 3
v 7 12 3
v 0 12 -1
v 2 12 -1
v 6 12 -1
v 7 12 -1
v -5 12 -2
v -4 12 -2
v -4 12 -3
v -3 12 -3
v 5 12 -3
v 6 12 -3
v -3 12 -4
v -2 12 -4
v 4 12 -4
v 5 12 -4
v -2 12 -5
v 4 12 -5
v 0 13 3
v 2 13 3
v 0 13 -1
v 2 13 -1

# faces
f 3/3/1 2/3/1 1/3/1
f 4/3/1 2/3/1 3/3/1
f 11/1/1 6/1/1 5/1/1
f 12/2/1 7/2/1 6/2/1
f 12/1/1 6/1/1 11/1/1
f 13/1/1 8/1/1 7/1/1
f 13/2/1 7/2/1 12/2/1
f 14/1/1 8/1/1 13/1/1
f 17/3/1 10/3/1 9/3/1
f 18/3/1 10/3/1 17/3/1
f 19/3/1 16/3/1 15/3/1
f 20/3/1 16/3/1 19/3/1
f 28/1/1 22/1/1 21/1/1
f 29/2/1 23/2/1 22/2/1
f 29/1/1 22/1/1 28/1/1
f 30/2/1 23/2/1 29/2/1
f 31/2/1 25/2/1 24/2/1
f 32/1/1 26/1/1 25/1/1
f 32/2/1 25/2/1 31/2/1
f 33/1/1 26/1/1 32/1/1
f 35/3/1 28/3/1 27/3/1
f 36/3/1 28/3/1 35/3/1
f 37/3/1 34/3/1 33/3/1
f 38/3/1 34/3/1 37/3/1
f 43/3/1 40/3/1 39/3/1
f 44/3/1 40/3/1 43/3/1
f 45/3/1 42/3/1 41/3/1
f 46/3/1 42/3/1 45/3/1
f 51/1/1 48/1/1 47/1/1
f 52/1/1 48/1/1 51/1/1
f 53/1/1 50/1/1 49/1/1
f 54/1/1 50/1/1 53/1/1
f 57/3/1 56/3/1 55/3/1
f 58/3/1 56/3/1 57/3/1
f 59/3/2 60/3/2 61/3/2
f 61/3/2 60/3/2 62/3/2
f 63/1/2 64/1/2 68/1/2
f 68/1/2 64/1/2 69/1/2
f 65/1/2 66/1/2 70/1/2
f 70/1/2 66/1/2 71/1/2
f 67/3/2 68/3/2 72/3/2
f 72/3/2 68/3/2 73/3/2
f 74/3/2 75/3/2 76/3/2
f 76/3/2 75/3/2 77/3/2
f 78/1/2 79/1/2 85/1/2
f 79/2/2 80/2/2 86/2/2
f 85/1/2 79/1/2 86/1/2
f 86/2/2 80/2/2 87/2/2
f 81/2/2 82/2/2 88/2/2
f 82/1/2 83/1/2 89/1/2
f 88/2/2 82/2/2 89/2/2
f 89/1/2 83/1/2 90/1/2
f 84/3/2 85/3/2 92/3/2
f 92/3/2 85/3/2 93/3/2
f 90/3/2 91/3/2 94/3/2
f 94/3/2 91/3/2 95/3/2
f 96/1/2 97/1/2 101/1/2
f 97/2/2 98/2/2 102/2/2
f 101/1/2 97/1/2 102/1/2
f 98/1/2 99/1/2 103/1/2
f 102/2/2 98/2/2 103/2/2
f 103/1/2 99/1/2 104/1/2
f 100/3/2 101/3/2 106/3/2
f 106/3/2 101/3/2 107/3/2
f 104/3/2 105/3/2 108/3/2
f 108/3/2 105/3/2 109/3/2
f 110/3/2 111/3/2 112/3/2
f 112/3/2 111/3/2 113/3/2
f 116/3/3 115/3/3 114/3/3
f 117/3/3 115/3/3 116/3/3
f 120/3/3 119/3/3 118/3/3
f 121/3/3 119/3/3 120/3/3
f 124/1/3 123/1/3 122/1/3
f 125/1/3 123/1/3 124/1/3
f 126/2/3 125/2/3 124/2/3
f 127/2/3 125/2/3 126/2/3
f 128/1/3 127/1/3 126/1/3
f 129/1/3 127/1/3 128/1/3
f 131/3/3 130/3/3 129/3/3
f 132/3/3 130/3/3 131/3/3
f 136/3/3 134/3/3 133/3/3
f 137/3/3 134/3/3 136/3/3
f 138/1/3 136/1/3 135/1/3
f 139/1/3 136/1/3 138/1/3
f 140/2/3 139/2/3 138/2/3
f 141/2/3 139/2/3 140/2/3
f 144/2/3 143/2/3 142/2/3
f 145/2/3 143/2/3 144/2/3
f 146/1/3 145/1/3 144/1/3
f 147/1/3 145/1/3 146/1/3
f 149/3/3 148/3/3 147/3/3
f 150/3/3 148/3/3 149/3/3
f 153/3/3 152/3/3 151/3/3
f 154/3/3 152/3/3 153/3/3
f 157/1/3 156/1/3 155/1/3
f 158/1/3 156/1/3 157/1/3
f 161/3/3 160/3/3 159/3/3
f 162/3/3 160/3/3 161/3/3
f 165/1/3 164/1/3 163/1/3
f 166/1/3 164/1/3 165/1/3
f 168/3/3 167/3/3 166/3/3
f 169/3/3 167/3/3 168/3/3
f 170/1/4 171/1/4 172/1/4
f 172/1/4 171/1/4 173/1/4
f 174/3/4 175/3/4 176/3/4
f 176/3/4 175/3/4 177/3/4
f 178/1/4 179/1/4 180/1/4
f 180/1/4 179/1/4 181/1/4
f 181/3/4 182/3/4 183/3/4
f 183/3/4 182/3/4 184/3/4
f 185/3/4 186/3/4 187/3/4
f 187/3/4 186/3/4 188/3/4
f 189/3/4 190/3/4 192/3/4
f 192/3/4 190/3/4 193/3/4
f 191/1/4 192/1/4 194/1/4
f 194/1/4 192/1/4 195/1/4
f 194/2/4 195/2/4 196/2/4
f 196/2/4 195/2/4 197/2/4
f 198/2/4 199/2/4 200/2/4
f 200/2/4 199/2/4 201/2/4
f 200/1/4 201/1/4 202/1/4
f 202/1/4 201/1/4 203/1/4
f 203/3/4 204/3/4 205/3/4
f 205/3/4 204/3/4 206/3/4
f 207/3/4 208/3/4 209/3/4
f 209/3/4 208/3/4 210/3/4
f 211/1/4 212/1/4 213/1/4
f 213/1/4 212/1/4 214/1/4
f 213/2/4 214/2/4 215/2/4
f 215/2/4 214/2/4 216/2/4
f 215/1/4 216/1/4 217/1/4
f 217/1/4 216/1/4 218/1/4
f 219/3/4 220/3/4 221/3/4
f 221/3/4 220/3/4 222/3/4
f 223/3/4 224/3/4 225/3/4
f 225/3/4 224/3/4 226/3/4
f 233/1/5 228/1/5 227/1/5
f 234/2/5 229/2/5 228/2/5
f 234/1/5 228/1/5 233/1/5
f 235/1/5 230/1/5 229/1/5
f 235/2/5 229/2/5 234/2/5
f 236/1/5 230/1/5 235/1/5
f 239/1/5 232/1/5 231/1/5
f 240/2/5 233/2/5 232/2/5
f 240/1/5 232/1/5 239/1/5
f 241/1/5 234/1/5 233/1/5
f 241/2/5 233/2/5 240/2/5
f 241/1/5 235/1/5 234/1/5
f 241/1/5 236/1/5 235/1/5
f 242/2/5 237/2/5 236/2/5
f 242/1/5 236/1/5 241/1/5
f 243/1/5 238/1/5 237/1/5
f 243/2/5 237/2/5 242/2/5
f 244/1/5 238/1/5 243/1/5
f 246/2/5 240/2/5 239/2/5
f 247/1/5 242/1/5 241/1/5
f 247/1/5 241/1/5 240/1/5
f 247/2/5 240/2/5 246/2/5
f 247/1/5 243/1/5 242/1/5
f 248/2/5 244/2/5 243/2/5
f 248/1/5 243/1/5 247/1/5
f 249/2/5 244/2/5 248/2/5
f 251/1/5 246/1/5 245/1/5
f 251/1/5 250/1/5 249/1/5
f 251/1/5 248/1/5 247/1/5
f 251/1/5 247/1/5 246/1/5
f 251/1/5 249/1/5 248/1/5
f 252/1/5 250/1/5 251/1/5
f 253/1/5 250/1/5 252/1/5
f 254/1/5 250/1/5 253/1/5
f 255/2/5 252/2/5 251/2/5
f 256/1/5 253/1/5 252/1/5
f 256/2/5 252/2/5 255/2/5
f 257/2/5 254/2/5 253/2/5
f 257/1/5 253/1/5 256/1/5
f 258/2/5 254/2/5 257/2/5
f 259/1/5 256/1/5 255/1/5
f 259/1/5 257/1/5 256/1/5
f 259/1/5 258/1/5 257/1/5
f 260/1/5 258/1/5 259/1/5
f 261/1/5 258/1/5 260/1/5
f 262/1/5 258/1/5 261/1/5
f 263/1/5 258/1/5 262/1/5
f 264/1/5 258/1/5 263/1/5
f 265/2/5 261/2/5 260/2/5
f 266/1/5 262/1/5 261/1/5
f 266/2/5 261/2/5 265/2/5
f 267/1/5 262/1/5 266/1/5
f 268/1/5 262/1/5 267/1/5
f 269/2/5 263/2/5 262/2/5
f 269/1/5 262/1/5 268/1/5
f 270/2/5 263/2/5 269/2/5
f 271/1/5 266/1/5 265/1/5
f 272/2/5 267/2/5 266/2/5
f 272/1/5 266/1/5 271/1/5
f 273/1/5 268/1/5 267/1/5
f 273/2/5 267/2/5 272/2/5
f 274/1/5 268/1/5 273/1/5
f 275/1/5 268/1/5 274/1/5
f 276/2/5 269/2/5 268/2/5
f 276/1/5 268/1/5 275/1/5
f 277/1/5 270/1/5 269/1/5
f 277/2/5 269/2/5 276/2/5
f 278/1/5 270/1/5 277/1/5
f 279/1/5 274/1/5 273/1/5
f 280/2/5 275/2/5 274/2/5
f 280/1/5 274/1/5 279/1/5
f 281/1/5 276/1/5 275/1/5
f 281/2/5 275/2/5 280/2/5
f 282/1/5 276/1/5 281/1/5
f 286/3/5 284/3/5 283/3/5
f 287/3/5 284/3/5 286/3/5
f 288/3/5 284/3/5 287/3/5
f 289/3/5 284/3/5 288/3/5
f 290/3/5 284/3/5 289/3/5
f 293/3/5 286/3/5 285/3/5
f 293/3/5 287/3/5 286/3/5
f 294/3/5 287/3/5 293/3/5
f 295/3/5 287/3/5 294/3/5
f 296/3/5 291/3/5 290/3/5
f 297/3/5 291/3/5 296/3/5
f 298/3/5 291/3/5 297/3/5
f 301/3/5 293/3/5 292/3/5
f 302/3/5 293/3/5 301/3/5
f 303/3/5 299/3/5 298/3/5
f 304/3/5 302/3/5 301/3/5
f 304/3/5 301/3/5 300/3/5
f 305/3/5 302/3/5 304/3/5
f 306/3/5 299/3/5 303/3/5
f 307/3/5 299/3/5 306/3/5
f 309/3/5 304/3/5 300/3/5
f 310/3/5 308/3/5 307/3/5
f 311/3/5 309/3/5 300/3/5
f 312/3/5 308/3/5 310/3/5
f 313/3/5 311/3/5 300/3/5
f 316/3/5 308/3/5 312/3/5
f 317/3/5 308/3/5 316/3/5
f 318/3/5 314/3/5 313/3/5
f 318/3/5 313/3/5 300/3/5
f 319/3/5 314/3/5 318/3/5
f 320/3/5 314/3/5 319/3/5
f 321/3/5 316/3/5 315/3/5
f 322/3/5 320/3/5 319/3/5
f 323/3/5 320/3/5 322/3/5
f 328/3/5 316/3/5 321/3/5
f 329/3/5 316/3/5 328/3/5
f 330/3/5 324/3/5 323/3/5
f 330/3/5 325/3/5 324/3/5
f 331/3/5 325/3/5 330/3/5
f 332/3/5 325/3/5 331/3/5
f 335/3/5 327/3/5 326/3/5
f 335/3/5 328/3/5 327/3/5
f 336/3/5 328/3/5 335/3/5
f 337/3/5 328/3/5 336/3/5
f 338/3/5 334/3/5 333/3/5
f 338/3/5 333/3/5 332/3/5
f 338/3/5 336/3/5 335/3/5
f 338/3/5 335/3/5 334/3/5
f 338/3/5 332/3/5 331/3/5
f 339/3/5 336/3/5 338/3/5
f 340/3/6 341/3/6 343/3/6
f 343/3/6 341/3/6 344/3/6
f 342/3/6 343/3/6 347/3/6
f 344/3/6 345/3/6 347/3/6
f 343/3/6 344/3/6 347/3/6
f 347/3/6 345/3/6 348/3/6
f 346/3/6 347/3/6 351/3/6
f 348/3/6 349/3/6 351/3/6
f 347/3/6 348/3/6 351/3/6
f 351/3/6 349/3/6 352/3/6
f 350/3/6 351/3/6 352/3/6
f 352/3/6 349/3/6 353/3/6
f 353/3/6 349/3/6 354/3/6
f 350/3/6 352/3/6 356/3/6
f 354/3/6 355/3/6 357/3/6
f 353/3/6 354/3/6 357/3/6
f 357/3/6 355/3/6 358/3/6
f 358/3/6 355/3/6 359/3/6
f 350/3/6 356/3/6 360/3/6
f 356/3/6 357/3/6 360/3/6
f 357/3/6 358/3/6 360/3/6
f 360/3/6 358/3/6 361/3/6
f 361/3/6 358/3/6 362/3/6
f 362/3/6 358/3/6 363/3/6
f 363/3/6 358/3/6 364/3/6
f 364/3/6 358/3/6 365/3/6
f 363/3/6 364/3/6 366/3/6
f 366/3/6 364/3/6 367/3/6
f 367/3/6 364/3/6 368/3/6
f 368/3/6 364/3/6 369/3/6
f 367/3/6 368/3/6 370/3/6
f 370/3/6 368/3/6 371/3/6
f 372/3/6 373/3/6 374/3/6
f 374/3/6 373/3/6 375/3/6
