# MagicaVoxel @ Ephtracy

# group
g RoadStraight

# material
mtllib RoadStraight.mtl
usemtl palette

# normals
vn -1 0 0
vn 1 0 0
vn 0 0 1
vn 0 0 -1
vn 0 -1 0
vn 0 1 0

# texcoords
vt 0.681641 0.5
vt 0.712891 0.5
vt 0.912109 0.5

# verts
v -32 0 32
v -32 0 16
v -32 0 2
v -32 0 -2
v -32 0 -16
v -32 0 -32
v -32 1 16
v -32 1 2
v -32 1 -2
v -32 1 -16
v -32 3 32
v -32 3 16
v -32 3 -16
v -32 3 -32
v 32 0 32
v 32 0 16
v 32 0 2
v 32 0 -2
v 32 0 -16
v 32 0 -32
v 32 1 16
v 32 1 2
v 32 1 -2
v 32 1 -16
v 32 3 32
v 32 3 16
v 32 3 -16
v 32 3 -32
v -32 0 32
v -32 3 32
v 32 0 32
v 32 3 32
v -32 1 -16
v -32 3 -16
v 32 1 -16
v 32 3 -16
v -32 1 16
v -32 3 16
v 32 1 16
v 32 3 16
v -32 0 -32
v -32 3 -32
v 32 0 -32
v 32 3 -32
v -32 0 32
v 32 0 32
v -32 0 16
v 32 0 16
v -32 0 2
v -24 0 2
v -8 0 2
v 8 0 2
v 24 0 2
v 32 0 2
v -32 0 -2
v -24 0 -2
v -8 0 -2
v 8 0 -2
v 24 0 -2
v 32 0 -2
v -32 0 -16
v 32 0 -16
v -32 0 -32
v 32 0 -32
v -32 1 16
v 32 1 16
v -32 1 2
v -24 1 2
v -8 1 2
v 8 1 2
v 24 1 2
v 32 1 2
v -32 1 -2
v -24 1 -2
v -8 1 -2
v 8 1 -2
v 24 1 -2
v 32 1 -2
v -32 1 -16
v 32 1 -16
v -32 3 32
v 32 3 32
v -32 3 16
v 32 3 16
v -32 3 -16
v 32 3 -16
v -32 3 -32
v 32 3 -32

# faces
f 7/1/1 2/1/1 1/1/1
f 7/2/1 3/2/1 2/2/1
f 8/3/1 4/3/1 3/3/1
f 8/2/1 3/2/1 7/2/1
f 9/2/1 5/2/1 4/2/1
f 9/3/1 4/3/1 8/3/1
f 10/1/1 6/1/1 5/1/1
f 10/2/1 5/2/1 9/2/1
f 11/1/1 7/1/1 1/1/1
f 12/1/1 7/1/1 11/1/1
f 13/1/1 6/1/1 10/1/1
f 14/1/1 6/1/1 13/1/1
f 15/1/2 16/1/2 21/1/2
f 16/2/2 17/2/2 21/2/2
f 17/3/2 18/3/2 22/3/2
f 21/2/2 17/2/2 22/2/2
f 18/2/2 19/2/2 23/2/2
f 22/3/2 18/3/2 23/3/2
f 19/1/2 20/1/2 24/1/2
f 23/2/2 19/2/2 24/2/2
f 15/1/2 21/1/2 25/1/2
f 25/1/2 21/1/2 26/1/2
f 24/1/2 20/1/2 27/1/2
f 27/1/2 20/1/2 28/1/2
f 31/1/3 30/1/3 29/1/3
f 32/1/3 30/1/3 31/1/3
f 35/1/3 34/1/3 33/1/3
f 36/1/3 34/1/3 35/1/3
f 37/1/4 38/1/4 39/1/4
f 39/1/4 38/1/4 40/1/4
f 41/1/4 42/1/4 43/1/4
f 43/1/4 42/1/4 44/1/4
f 47/1/5 46/1/5 45/1/5
f 48/1/5 46/1/5 47/1/5
f 49/2/5 48/2/5 47/2/5
f 50/2/5 48/2/5 49/2/5
f 51/2/5 48/2/5 50/2/5
f 52/2/5 48/2/5 51/2/5
f 53/2/5 48/2/5 52/2/5
f 54/2/5 48/2/5 53/2/5
f 55/3/5 50/3/5 49/3/5
f 56/2/5 51/2/5 50/2/5
f 56/3/5 50/3/5 55/3/5
f 57/3/5 52/3/5 51/3/5
f 57/2/5 51/2/5 56/2/5
f 58/2/5 53/2/5 52/2/5
f 58/3/5 52/3/5 57/3/5
f 59/3/5 54/3/5 53/3/5
f 59/2/5 53/2/5 58/2/5
f 60/3/5 54/3/5 59/3/5
f 61/2/5 56/2/5 55/2/5
f 61/2/5 57/2/5 56/2/5
f 61/2/5 60/2/5 59/2/5
f 61/2/5 59/2/5 58/2/5
f 61/2/5 58/2/5 57/2/5
f 62/2/5 60/2/5 61/2/5
f 63/1/5 62/1/5 61/1/5
f 64/1/5 62/1/5 63/1/5
f 65/2/6 66/2/6 67/2/6
f 67/2/6 66/2/6 68/2/6
f 68/2/6 66/2/6 69/2/6
f 69/2/6 66/2/6 70/2/6
f 70/2/6 66/2/6 71/2/6
f 71/2/6 66/2/6 72/2/6
f 67/3/6 68/3/6 73/3/6
f 68/2/6 69/2/6 74/2/6
f 73/3/6 68/3/6 74/3/6
f 69/3/6 70/3/6 75/3/6
f 74/2/6 69/2/6 75/2/6
f 70/2/6 71/2/6 76/2/6
f 75/3/6 70/3/6 76/3/6
f 71/3/6 72/3/6 77/3/6
f 76/2/6 71/2/6 77/2/6
f 77/3/6 72/3/6 78/3/6
f 73/2/6 74/2/6 79/2/6
f 74/2/6 75/2/6 79/2/6
f 77/2/6 78/2/6 79/2/6
f 76/2/6 77/2/6 79/2/6
f 75/2/6 76/2/6 79/2/6
f 79/2/6 78/2/6 80/2/6
f 81/1/6 82/1/6 83/1/6
f 83/1/6 82/1/6 84/1/6
f 85/1/6 86/1/6 87/1/6
f 87/1/6 86/1/6 88/1/6
