# MagicaVoxel @ Ephtracy

# group
g RoadX

# material
mtllib RoadX.mtl
usemtl palette

# normals
vn -1 0 0
vn 1 0 0
vn 0 0 1
vn 0 0 -1
vn 0 -1 0
vn 0 1 0

# texcoords
vt 0.681641 0.5
vt 0.712891 0.5
vt 0.912109 0.5

# verts
v -32 0 32
v -32 0 16
v -32 0 2
v -32 0 -2
v -32 0 -16
v -32 0 -32
v -32 1 16
v -32 1 2
v -32 1 -2
v -32 1 -16
v -32 3 32
v -32 3 16
v -32 3 -16
v -32 3 -32
v 16 1 32
v 16 1 16
v 16 1 -16
v 16 1 -32
v 16 3 32
v 16 3 16
v 16 3 -16
v 16 3 -32
v -16 1 32
v -16 1 16
v -16 1 -16
v -16 1 -32
v -16 3 32
v -16 3 16
v -16 3 -16
v -16 3 -32
v 32 0 32
v 32 0 16
v 32 0 2
v 32 0 -2
v 32 0 -16
v 32 0 -32
v 32 1 16
v 32 1 2
v 32 1 -2
v 32 1 -16
v 32 3 32
v 32 3 16
v 32 3 -16
v 32 3 -32
v -32 0 32
v -32 3 32
v -16 0 32
v -16 1 32
v -16 3 32
v -2 0 32
v -2 1 32
v 2 0 32
v 2 1 32
v 16 0 32
v 16 1 32
v 16 3 32
v 32 0 32
v 32 3 32
v -32 1 -16
v -32 3 -16
v -16 1 -16
v -16 3 -16
v 16 1 -16
v 16 3 -16
v 32 1 -16
v 32 3 -16
v -32 1 16
v -32 3 16
v -16 1 16
v -16 3 16
v 16 1 16
v 16 3 16
v 32 1 16
v 32 3 16
v -32 0 -32
v -32 3 -32
v -16 0 -32
v -16 1 -32
v -16 3 -32
v -2 0 -32
v -2 1 -32
v 2 0 -32
v 2 1 -32
v 16 0 -32
v 16 1 -32
v 16 3 -32
v 32 0 -32
v 32 3 -32
v -32 0 32
v -16 0 32
v -2 0 32
v 2 0 32
v 16 0 32
v 32 0 32
v -2 0 24
v 2 0 24
v -32 0 16
v -16 0 16
v 16 0 16
v 32 0 16
v -2 0 8
v 2 0 8
v -32 0 2
v -24 0 2
v -8 0 2
v -2 0 2
v 2 0 2
v 8 0 2
v 24 0 2
v 32 0 2
v -32 0 -2
v -24 0 -2
v -8 0 -2
v -2 0 -2
v 2 0 -2
v 8 0 -2
v 24 0 -2
v 32 0 -2
v -2 0 -8
v 2 0 -8
v -32 0 -16
v -16 0 -16
v 16 0 -16
v 32 0 -16
v -2 0 -24
v 2 0 -24
v -32 0 -32
v -16 0 -32
v -2 0 -32
v 2 0 -32
v 16 0 -32
v 32 0 -32
v -16 1 32
v -2 1 32
v 2 1 32
v 16 1 32
v -2 1 24
v 2 1 24
v -32 1 16
v -16 1 16
v 16 1 16
v 32 1 16
v -2 1 8
v 2 1 8
v -32 1 2
v -24 1 2
v -8 1 2
v -2 1 2
v 2 1 2
v 8 1 2
v 24 1 2
v 32 1 2
v -32 1 -2
v -24 1 -2
v -8 1 -2
v -2 1 -2
v 2 1 -2
v 8 1 -2
v 24 1 -2
v 32 1 -2
v -2 1 -8
v 2 1 -8
v -32 1 -16
v -16 1 -16
v 16 1 -16
v 32 1 -16
v -2 1 -24
v 2 1 -24
v -16 1 -32
v -2 1 -32
v 2 1 -32
v 16 1 -32
v -32 3 32
v -16 3 32
v 16 3 32
v 32 3 32
v -32 3 16
v -16 3 16
v 16 3 16
v 32 3 16
v -32 3 -16
v -16 3 -16
v 16 3 -16
v 32 3 -16
v -32 3 -32
v -16 3 -32
v 16 3 -32
v 32 3 -32

# faces
f 7/1/1 2/1/1 1/1/1
f 7/2/1 3/2/1 2/2/1
f 8/3/1 4/3/1 3/3/1
f 8/2/1 3/2/1 7/2/1
f 9/2/1 5/2/1 4/2/1
f 9/3/1 4/3/1 8/3/1
f 10/1/1 6/1/1 5/1/1
f 10/2/1 5/2/1 9/2/1
f 11/1/1 7/1/1 1/1/1
f 12/1/1 7/1/1 11/1/1
f 13/1/1 6/1/1 10/1/1
f 14/1/1 6/1/1 13/1/1
f 19/1/1 16/1/1 15/1/1
f 20/1/1 16/1/1 19/1/1
f 21/1/1 18/1/1 17/1/1
f 22/1/1 18/1/1 21/1/1
f 23/1/2 24/1/2 27/1/2
f 27/1/2 24/1/2 28/1/2
f 25/1/2 26/1/2 29/1/2
f 29/1/2 26/1/2 30/1/2
f 31/1/2 32/1/2 37/1/2
f 32/2/2 33/2/2 37/2/2
f 33/3/2 34/3/2 38/3/2
f 37/2/2 33/2/2 38/2/2
f 34/2/2 35/2/2 39/2/2
f 38/3/2 34/3/2 39/3/2
f 35/1/2 36/1/2 40/1/2
f 39/2/2 35/2/2 40/2/2
f 31/1/2 37/1/2 41/1/2
f 41/1/2 37/1/2 42/1/2
f 40/1/2 36/1/2 43/1/2
f 43/1/2 36/1/2 44/1/2
f 47/1/3 46/1/3 45/1/3
f 48/1/3 46/1/3 47/1/3
f 49/1/3 46/1/3 48/1/3
f 50/2/3 48/2/3 47/2/3
f 51/2/3 48/2/3 50/2/3
f 52/3/3 51/3/3 50/3/3
f 53/3/3 51/3/3 52/3/3
f 54/2/3 53/2/3 52/2/3
f 55/2/3 53/2/3 54/2/3
f 57/1/3 55/1/3 54/1/3
f 57/1/3 56/1/3 55/1/3
f 58/1/3 56/1/3 57/1/3
f 61/1/3 60/1/3 59/1/3
f 62/1/3 60/1/3 61/1/3
f 65/1/3 64/1/3 63/1/3
f 66/1/3 64/1/3 65/1/3
f 67/1/4 68/1/4 69/1/4
f 69/1/4 68/1/4 70/1/4
f 71/1/4 72/1/4 73/1/4
f 73/1/4 72/1/4 74/1/4
f 75/1/4 76/1/4 77/1/4
f 77/1/4 76/1/4 78/1/4
f 78/1/4 76/1/4 79/1/4
f 77/2/4 78/2/4 80/2/4
f 80/2/4 78/2/4 81/2/4
f 80/3/4 81/3/4 82/3/4
f 82/3/4 81/3/4 83/3/4
f 82/2/4 83/2/4 84/2/4
f 84/2/4 83/2/4 85/2/4
f 84/1/4 85/1/4 87/1/4
f 85/1/4 86/1/4 87/1/4
f 87/1/4 86/1/4 88/1/4
f 95/2/5 91/2/5 90/2/5
f 95/3/5 92/3/5 91/3/5
f 96/2/5 93/2/5 92/2/5
f 96/3/5 92/3/5 95/3/5
f 97/1/5 90/1/5 89/1/5
f 98/2/5 95/2/5 90/2/5
f 98/1/5 90/1/5 97/1/5
f 98/2/5 96/2/5 95/2/5
f 99/2/5 93/2/5 96/2/5
f 99/2/5 96/2/5 98/2/5
f 99/1/5 94/1/5 93/1/5
f 100/1/5 94/1/5 99/1/5
f 101/2/5 98/2/5 97/2/5
f 101/2/5 99/2/5 98/2/5
f 101/2/5 100/2/5 99/2/5
f 102/2/5 100/2/5 101/2/5
f 103/2/5 101/2/5 97/2/5
f 104/2/5 101/2/5 103/2/5
f 105/2/5 101/2/5 104/2/5
f 106/3/5 102/3/5 101/3/5
f 106/2/5 101/2/5 105/2/5
f 107/2/5 100/2/5 102/2/5
f 107/3/5 102/3/5 106/3/5
f 108/2/5 100/2/5 107/2/5
f 109/2/5 100/2/5 108/2/5
f 110/2/5 100/2/5 109/2/5
f 111/3/5 104/3/5 103/3/5
f 112/2/5 105/2/5 104/2/5
f 112/3/5 104/3/5 111/3/5
f 113/3/5 106/3/5 105/3/5
f 113/2/5 105/2/5 112/2/5
f 113/3/5 107/3/5 106/3/5
f 113/3/5 108/3/5 107/3/5
f 114/3/5 108/3/5 113/3/5
f 115/3/5 108/3/5 114/3/5
f 116/2/5 109/2/5 108/2/5
f 116/3/5 108/3/5 115/3/5
f 117/3/5 110/3/5 109/3/5
f 117/2/5 109/2/5 116/2/5
f 118/3/5 110/3/5 117/3/5
f 119/2/5 112/2/5 111/2/5
f 119/3/5 115/3/5 114/3/5
f 119/2/5 113/2/5 112/2/5
f 119/2/5 114/2/5 113/2/5
f 120/2/5 116/2/5 115/2/5
f 120/3/5 115/3/5 119/3/5
f 120/2/5 118/2/5 117/2/5
f 120/2/5 117/2/5 116/2/5
f 121/2/5 119/2/5 111/2/5
f 121/2/5 120/2/5 119/2/5
f 122/2/5 120/2/5 121/2/5
f 123/2/5 118/2/5 120/2/5
f 123/2/5 120/2/5 122/2/5
f 124/2/5 118/2/5 123/2/5
f 125/2/5 123/2/5 122/2/5
f 126/2/5 123/2/5 125/2/5
f 127/1/5 122/1/5 121/1/5
f 128/2/5 125/2/5 122/2/5
f 128/1/5 122/1/5 127/1/5
f 129/3/5 126/3/5 125/3/5
f 129/2/5 125/2/5 128/2/5
f 130/2/5 123/2/5 126/2/5
f 130/3/5 126/3/5 129/3/5
f 131/1/5 124/1/5 123/1/5
f 131/2/5 123/2/5 130/2/5
f 132/1/5 124/1/5 131/1/5
f 133/2/6 134/2/6 137/2/6
f 134/3/6 135/3/6 137/3/6
f 135/2/6 136/2/6 138/2/6
f 137/3/6 135/3/6 138/3/6
f 133/2/6 137/2/6 140/2/6
f 137/2/6 138/2/6 140/2/6
f 138/2/6 136/2/6 141/2/6
f 140/2/6 138/2/6 141/2/6
f 139/2/6 140/2/6 143/2/6
f 141/2/6 142/2/6 143/2/6
f 140/2/6 141/2/6 143/2/6
f 143/2/6 142/2/6 144/2/6
f 139/2/6 143/2/6 145/2/6
f 145/2/6 143/2/6 146/2/6
f 146/2/6 143/2/6 147/2/6
f 143/3/6 144/3/6 148/3/6
f 147/2/6 143/2/6 148/2/6
f 144/2/6 142/2/6 149/2/6
f 148/3/6 144/3/6 149/3/6
f 149/2/6 142/2/6 150/2/6
f 150/2/6 142/2/6 151/2/6
f 151/2/6 142/2/6 152/2/6
f 145/3/6 146/3/6 153/3/6
f 146/2/6 147/2/6 154/2/6
f 153/3/6 146/3/6 154/3/6
f 147/3/6 148/3/6 155/3/6
f 154/2/6 147/2/6 155/2/6
f 148/3/6 149/3/6 155/3/6
f 149/3/6 150/3/6 155/3/6
f 155/3/6 150/3/6 156/3/6
f 156/3/6 150/3/6 157/3/6
f 150/2/6 151/2/6 158/2/6
f 157/3/6 150/3/6 158/3/6
f 151/3/6 152/3/6 159/3/6
f 158/2/6 151/2/6 159/2/6
f 159/3/6 152/3/6 160/3/6
f 153/2/6 154/2/6 161/2/6
f 156/3/6 157/3/6 161/3/6
f 154/2/6 155/2/6 161/2/6
f 155/2/6 156/2/6 161/2/6
f 157/2/6 158/2/6 162/2/6
f 161/3/6 157/3/6 162/3/6
f 159/2/6 160/2/6 162/2/6
f 158/2/6 159/2/6 162/2/6
f 153/2/6 161/2/6 163/2/6
f 161/2/6 162/2/6 163/2/6
f 163/2/6 162/2/6 164/2/6
f 162/2/6 160/2/6 165/2/6
f 164/2/6 162/2/6 165/2/6
f 165/2/6 160/2/6 166/2/6
f 164/2/6 165/2/6 167/2/6
f 167/2/6 165/2/6 168/2/6
f 164/2/6 167/2/6 169/2/6
f 167/3/6 168/3/6 170/3/6
f 169/2/6 167/2/6 170/2/6
f 168/2/6 165/2/6 171/2/6
f 170/3/6 168/3/6 171/3/6
f 171/2/6 165/2/6 172/2/6
f 173/1/6 174/1/6 177/1/6
f 177/1/6 174/1/6 178/1/6
f 175/1/6 176/1/6 179/1/6
f 179/1/6 176/1/6 180/1/6
f 181/1/6 182/1/6 185/1/6
f 185/1/6 182/1/6 186/1/6
f 183/1/6 184/1/6 187/1/6
f 187/1/6 184/1/6 188/1/6
