# MagicaVoxel @ Ephtracy

# group
g man001

# material
mtllib man001.mtl
usemtl palette

# normals
vn -1 0 0
vn 1 0 0
vn 0 0 1
vn 0 0 -1
vn 0 -1 0
vn 0 1 0

# texcoords
vt 0.0683594 0.5
vt 0.173828 0.5
vt 0.302734 0.5
vt 0.310547 0.5
vt 0.568359 0.5
vt 0.716797 0.5
vt 0.994141 0.5

# verts
v 1 3 -4
v 1 3 -5
v 1 6 -4
v 1 6 -5
v 1 7 -3
v 1 7 -7
v 1 12 -3
v 1 12 -7
v 2 0 -4
v 2 0 -5
v 2 3 -3
v 2 3 -4
v 2 3 -5
v 2 3 -6
v 2 6 -3
v 2 6 -4
v 2 6 -5
v 2 6 -6
v 3 6 -4
v 3 6 -6
v 3 7 -4
v 3 7 -6
v 5 0 -4
v 5 0 -5
v 5 3 -4
v 5 3 -5
v 3 0 -4
v 3 0 -5
v 3 3 -4
v 3 3 -5
v 5 6 -4
v 5 6 -6
v 5 7 -4
v 5 7 -6
v 6 0 -4
v 6 0 -5
v 6 3 -3
v 6 3 -4
v 6 3 -5
v 6 3 -6
v 6 6 -3
v 6 6 -4
v 6 6 -5
v 6 6 -6
v 7 3 -4
v 7 3 -5
v 7 6 -4
v 7 6 -5
v 7 7 -3
v 7 7 -7
v 7 12 -3
v 7 12 -7
v 1 7 -3
v 1 12 -3
v 2 3 -3
v 2 6 -3
v 2 8 -3
v 2 9 -3
v 3 8 -3
v 3 9 -3
v 5 8 -3
v 5 9 -3
v 6 3 -3
v 6 6 -3
v 6 8 -3
v 6 9 -3
v 7 7 -3
v 7 12 -3
v 1 3 -4
v 1 6 -4
v 2 0 -4
v 2 3 -4
v 2 6 -4
v 3 0 -4
v 3 3 -4
v 3 6 -4
v 3 7 -4
v 5 0 -4
v 5 3 -4
v 5 6 -4
v 5 7 -4
v 6 0 -4
v 6 3 -4
v 6 6 -4
v 7 3 -4
v 7 6 -4
v 1 3 -5
v 1 6 -5
v 2 0 -5
v 2 3 -5
v 2 6 -5
v 3 0 -5
v 3 3 -5
v 5 0 -5
v 5 3 -5
v 6 0 -5
v 6 3 -5
v 6 6 -5
v 7 3 -5
v 7 6 -5
v 2 3 -6
v 2 6 -6
v 3 6 -6
v 3 7 -6
v 5 6 -6
v 5 7 -6
v 6 3 -6
v 6 6 -6
v 1 7 -7
v 1 12 -7
v 7 7 -7
v 7 12 -7
v 2 0 -4
v 3 0 -4
v 5 0 -4
v 6 0 -4
v 2 0 -5
v 3 0 -5
v 5 0 -5
v 6 0 -5
v 2 3 -3
v 6 3 -3
v 1 3 -4
v 2 3 -4
v 3 3 -4
v 5 3 -4
v 6 3 -4
v 7 3 -4
v 1 3 -5
v 2 3 -5
v 3 3 -5
v 5 3 -5
v 6 3 -5
v 7 3 -5
v 2 3 -6
v 6 3 -6
v 1 7 -3
v 7 7 -3
v 2 7 -4
v 3 7 -4
v 5 7 -4
v 6 7 -4
v 2 7 -6
v 3 7 -6
v 5 7 -6
v 6 7 -6
v 1 7 -7
v 7 7 -7
v 2 6 -3
v 6 6 -3
v 1 6 -4
v 2 6 -4
v 3 6 -4
v 5 6 -4
v 6 6 -4
v 7 6 -4
v 1 6 -5
v 2 6 -5
v 6 6 -5
v 7 6 -5
v 2 6 -6
v 3 6 -6
v 5 6 -6
v 6 6 -6
v 1 12 -3
v 7 12 -3
v 1 12 -7
v 7 12 -7

# faces
f 3/2/1 2/2/1 1/2/1
f 4/2/1 2/2/1 3/2/1
f 7/3/1 6/3/1 5/3/1
f 8/3/1 6/3/1 7/3/1
f 12/6/1 10/6/1 9/6/1
f 13/6/1 10/6/1 12/6/1
f 15/2/1 12/2/1 11/2/1
f 16/2/1 12/2/1 15/2/1
f 17/2/1 14/2/1 13/2/1
f 18/2/1 14/2/1 17/2/1
f 21/3/1 20/3/1 19/3/1
f 22/3/1 20/3/1 21/3/1
f 25/6/1 24/6/1 23/6/1
f 26/6/1 24/6/1 25/6/1
f 27/6/2 28/6/2 29/6/2
f 29/6/2 28/6/2 30/6/2
f 31/3/2 32/3/2 33/3/2
f 33/3/2 32/3/2 34/3/2
f 35/6/2 36/6/2 38/6/2
f 38/6/2 36/6/2 39/6/2
f 37/2/2 38/2/2 41/2/2
f 41/2/2 38/2/2 42/2/2
f 39/2/2 40/2/2 43/2/2
f 43/2/2 40/2/2 44/2/2
f 45/2/2 46/2/2 47/2/2
f 47/2/2 46/2/2 48/2/2
f 49/3/2 50/3/2 51/3/2
f 51/3/2 50/3/2 52/3/2
f 57/3/3 54/3/3 53/3/3
f 58/3/3 54/3/3 57/3/3
f 59/3/3 57/3/3 53/3/3
f 59/7/3 58/7/3 57/7/3
f 60/3/3 54/3/3 58/3/3
f 60/7/3 58/7/3 59/7/3
f 61/3/3 59/3/3 53/3/3
f 61/3/3 60/3/3 59/3/3
f 62/3/3 54/3/3 60/3/3
f 62/3/3 60/3/3 61/3/3
f 63/2/3 56/2/3 55/2/3
f 64/2/3 56/2/3 63/2/3
f 65/3/3 61/3/3 53/3/3
f 65/7/3 62/7/3 61/7/3
f 66/3/3 54/3/3 62/3/3
f 66/7/3 62/7/3 65/7/3
f 67/3/3 65/3/3 53/3/3
f 67/3/3 66/3/3 65/3/3
f 68/3/3 54/3/3 66/3/3
f 68/3/3 66/3/3 67/3/3
f 72/2/3 70/2/3 69/2/3
f 73/2/3 70/2/3 72/2/3
f 74/6/3 72/6/3 71/6/3
f 75/6/3 72/6/3 74/6/3
f 80/3/3 77/3/3 76/3/3
f 81/3/3 77/3/3 80/3/3
f 82/6/3 79/6/3 78/6/3
f 83/6/3 79/6/3 82/6/3
f 85/2/3 84/2/3 83/2/3
f 86/2/3 84/2/3 85/2/3
f 87/2/4 88/2/4 90/2/4
f 90/2/4 88/2/4 91/2/4
f 89/6/4 90/6/4 92/6/4
f 92/6/4 90/6/4 93/6/4
f 94/6/4 95/6/4 96/6/4
f 96/6/4 95/6/4 97/6/4
f 97/2/4 98/2/4 99/2/4
f 99/2/4 98/2/4 100/2/4
f 101/2/4 102/2/4 103/2/4
f 101/2/4 103/2/4 105/2/4
f 103/3/4 104/3/4 105/3/4
f 105/3/4 104/3/4 106/3/4
f 101/2/4 105/2/4 107/2/4
f 107/2/4 105/2/4 108/2/4
f 109/3/4 110/3/4 111/3/4
f 111/3/4 110/3/4 112/3/4
f 117/6/5 114/6/5 113/6/5
f 118/6/5 114/6/5 117/6/5
f 119/6/5 116/6/5 115/6/5
f 120/6/5 116/6/5 119/6/5
f 124/2/5 122/2/5 121/2/5
f 125/2/5 122/2/5 124/2/5
f 126/2/5 122/2/5 125/2/5
f 127/2/5 122/2/5 126/2/5
f 129/2/5 124/2/5 123/2/5
f 130/2/5 124/2/5 129/2/5
f 131/2/5 126/2/5 125/2/5
f 132/2/5 126/2/5 131/2/5
f 133/2/5 128/2/5 127/2/5
f 134/2/5 128/2/5 133/2/5
f 135/2/5 132/2/5 131/2/5
f 135/2/5 133/2/5 132/2/5
f 135/2/5 131/2/5 130/2/5
f 136/2/5 133/2/5 135/2/5
f 139/3/5 138/3/5 137/3/5
f 140/3/5 138/3/5 139/3/5
f 141/3/5 138/3/5 140/3/5
f 142/3/5 138/3/5 141/3/5
f 143/3/5 139/3/5 137/3/5
f 143/4/5 140/4/5 139/4/5
f 144/4/5 140/4/5 143/4/5
f 145/4/5 142/4/5 141/4/5
f 146/3/5 138/3/5 142/3/5
f 146/4/5 142/4/5 145/4/5
f 147/3/5 145/3/5 144/3/5
f 147/3/5 144/3/5 143/3/5
f 147/3/5 146/3/5 145/3/5
f 147/3/5 143/3/5 137/3/5
f 148/3/5 138/3/5 146/3/5
f 148/3/5 146/3/5 147/3/5
f 149/2/6 150/2/6 152/2/6
f 152/2/6 150/2/6 153/2/6
f 153/2/6 150/2/6 154/2/6
f 154/2/6 150/2/6 155/2/6
f 151/2/6 152/2/6 157/2/6
f 152/2/6 153/2/6 157/2/6
f 157/2/6 153/2/6 158/2/6
f 155/2/6 156/2/6 159/2/6
f 154/2/6 155/2/6 159/2/6
f 159/2/6 156/2/6 160/2/6
f 158/2/6 153/2/6 161/2/6
f 161/2/6 153/2/6 162/2/6
f 154/2/6 159/2/6 163/2/6
f 163/2/6 159/2/6 164/2/6
f 165/3/6 166/3/6 167/3/6
f 167/3/6 166/3/6 168/3/6
