# MagicaVoxel @ Ephtracy

# group
g man008

# material
mtllib man008.mtl
usemtl palette

# normals
vn -1 0 0
vn 1 0 0
vn 0 0 1
vn 0 0 -1
vn 0 -1 0
vn 0 1 0

# texcoords
vt 0.0683594 0.5
vt 0.146484 0.5
vt 0.208984 0.5
vt 0.236328 0.5
vt 0.248047 0.5
vt 0.279297 0.5
vt 0.373047 0.5
vt 0.427734 0.5
vt 0.568359 0.5
vt 0.994141 0.5

# verts
v 1 3 -4
v 1 3 -5
v 1 6 -4
v 1 6 -5
v 1 7 -3
v 1 7 -6
v 1 7 -7
v 1 8 -5
v 1 8 -6
v 1 10 -3
v 1 10 -5
v 1 12 -3
v 1 12 -7
v 2 0 -4
v 2 0 -5
v 2 3 -3
v 2 3 -4
v 2 3 -5
v 2 3 -6
v 2 5 -6
v 2 5 -7
v 2 6 -3
v 2 6 -4
v 2 6 -5
v 2 6 -6
v 2 7 -6
v 2 7 -7
v 2 12 -3
v 2 12 -6
v 2 13 -3
v 2 13 -6
v 3 4 -6
v 3 4 -7
v 3 5 -6
v 3 5 -7
v 3 6 -4
v 3 6 -6
v 3 7 -4
v 3 7 -6
v 3 11 -2
v 3 11 -3
v 3 12 -2
v 3 12 -3
v 3 12 -6
v 3 12 -7
v 3 13 -6
v 3 13 -7
v 5 0 -4
v 5 0 -5
v 5 3 -4
v 5 3 -5
v 5 10 -2
v 5 10 -3
v 5 11 -2
v 5 11 -3
v 3 0 -4
v 3 0 -5
v 3 3 -4
v 3 3 -5
v 5 4 -6
v 5 4 -7
v 5 5 -6
v 5 5 -7
v 5 6 -4
v 5 6 -6
v 5 7 -4
v 5 7 -6
v 5 12 -6
v 5 12 -7
v 5 13 -6
v 5 13 -7
v 6 0 -4
v 6 0 -5
v 6 3 -3
v 6 3 -4
v 6 3 -5
v 6 3 -6
v 6 5 -6
v 6 5 -7
v 6 6 -3
v 6 6 -4
v 6 6 -5
v 6 6 -6
v 6 7 -6
v 6 7 -7
v 6 10 -2
v 6 10 -3
v 6 12 -2
v 6 12 -3
v 6 12 -6
v 6 13 -3
v 6 13 -6
v 7 3 -4
v 7 3 -5
v 7 6 -4
v 7 6 -5
v 7 7 -3
v 7 7 -6
v 7 7 -7
v 7 8 -5
v 7 8 -6
v 7 10 -3
v 7 10 -5
v 7 12 -3
v 7 12 -7
v 3 11 -2
v 3 12 -2
v 5 10 -2
v 5 11 -2
v 6 10 -2
v 6 12 -2
v 1 7 -3
v 1 10 -3
v 1 12 -3
v 2 3 -3
v 2 6 -3
v 2 8 -3
v 2 9 -3
v 2 10 -3
v 2 11 -3
v 2 12 -3
v 2 13 -3
v 3 8 -3
v 3 9 -3
v 3 11 -3
v 3 12 -3
v 5 8 -3
v 5 9 -3
v 5 10 -3
v 5 11 -3
v 6 3 -3
v 6 6 -3
v 6 8 -3
v 6 9 -3
v 6 10 -3
v 6 12 -3
v 6 13 -3
v 7 7 -3
v 7 10 -3
v 7 12 -3
v 1 3 -4
v 1 6 -4
v 2 0 -4
v 2 3 -4
v 2 6 -4
v 3 0 -4
v 3 3 -4
v 3 6 -4
v 3 7 -4
v 5 0 -4
v 5 3 -4
v 5 6 -4
v 5 7 -4
v 6 0 -4
v 6 3 -4
v 6 6 -4
v 7 3 -4
v 7 6 -4
v 2 6 -6
v 2 7 -6
v 3 6 -6
v 3 7 -6
v 5 6 -6
v 5 7 -6
v 6 6 -6
v 6 7 -6
v 1 3 -5
v 1 6 -5
v 2 0 -5
v 2 3 -5
v 2 6 -5
v 3 0 -5
v 3 3 -5
v 5 0 -5
v 5 3 -5
v 6 0 -5
v 6 3 -5
v 6 6 -5
v 7 3 -5
v 7 6 -5
v 2 3 -6
v 2 5 -6
v 2 12 -6
v 2 13 -6
v 3 4 -6
v 3 5 -6
v 3 12 -6
v 3 13 -6
v 5 4 -6
v 5 5 -6
v 5 12 -6
v 5 13 -6
v 6 3 -6
v 6 5 -6
v 6 12 -6
v 6 13 -6
v 1 7 -7
v 1 12 -7
v 2 5 -7
v 2 7 -7
v 3 4 -7
v 3 5 -7
v 3 12 -7
v 3 13 -7
v 5 4 -7
v 5 5 -7
v 5 12 -7
v 5 13 -7
v 6 5 -7
v 6 7 -7
v 7 7 -7
v 7 12 -7
v 2 0 -4
v 3 0 -4
v 5 0 -4
v 6 0 -4
v 2 0 -5
v 3 0 -5
v 5 0 -5
v 6 0 -5
v 2 3 -3
v 6 3 -3
v 1 3 -4
v 2 3 -4
v 3 3 -4
v 5 3 -4
v 6 3 -4
v 7 3 -4
v 1 3 -5
v 2 3 -5
v 3 3 -5
v 5 3 -5
v 6 3 -5
v 7 3 -5
v 2 3 -6
v 6 3 -6
v 3 4 -6
v 5 4 -6
v 3 4 -7
v 5 4 -7
v 2 5 -6
v 3 5 -6
v 5 5 -6
v 6 5 -6
v 2 5 -7
v 3 5 -7
v 5 5 -7
v 6 5 -7
v 1 7 -3
v 7 7 -3
v 3 7 -4
v 5 7 -4
v 1 7 -6
v 2 7 -6
v 3 7 -6
v 5 7 -6
v 6 7 -6
v 7 7 -6
v 1 7 -7
v 2 7 -7
v 6 7 -7
v 7 7 -7
v 5 10 -2
v 6 10 -2
v 5 10 -3
v 6 10 -3
v 3 11 -2
v 5 11 -2
v 3 11 -3
v 5 11 -3
v 2 6 -3
v 6 6 -3
v 1 6 -4
v 2 6 -4
v 3 6 -4
v 5 6 -4
v 6 6 -4
v 7 6 -4
v 1 6 -5
v 2 6 -5
v 6 6 -5
v 7 6 -5
v 2 6 -6
v 3 6 -6
v 5 6 -6
v 6 6 -6
v 3 12 -2
v 6 12 -2
v 1 12 -3
v 2 12 -3
v 3 12 -3
v 6 12 -3
v 7 12 -3
v 2 12 -6
v 3 12 -6
v 5 12 -6
v 6 12 -6
v 1 12 -7
v 3 12 -7
v 5 12 -7
v 7 12 -7
v 2 13 -3
v 6 13 -3
v 2 13 -6
v 3 13 -6
v 5 13 -6
v 6 13 -6
v 3 13 -7
v 5 13 -7

# faces
f 3/8/1 2/8/1 1/8/1
f 4/8/1 2/8/1 3/8/1
f 8/5/1 6/5/1 5/5/1
f 9/3/1 7/3/1 6/3/1
f 9/5/1 6/5/1 8/5/1
f 10/5/1 8/5/1 5/5/1
f 11/3/1 9/3/1 8/3/1
f 11/5/1 8/5/1 10/5/1
f 12/3/1 11/3/1 10/3/1
f 13/3/1 7/3/1 9/3/1
f 13/3/1 11/3/1 12/3/1
f 13/3/1 9/3/1 11/3/1
f 17/2/1 15/2/1 14/2/1
f 18/2/1 15/2/1 17/2/1
f 20/8/1 19/8/1 18/8/1
f 22/8/1 17/8/1 16/8/1
f 23/8/1 17/8/1 22/8/1
f 24/8/1 20/8/1 18/8/1
f 25/3/1 21/3/1 20/3/1
f 25/8/1 20/8/1 24/8/1
f 26/3/1 21/3/1 25/3/1
f 27/3/1 21/3/1 26/3/1
f 30/3/1 29/3/1 28/3/1
f 31/3/1 29/3/1 30/3/1
f 34/3/1 33/3/1 32/3/1
f 35/3/1 33/3/1 34/3/1
f 38/5/1 37/5/1 36/5/1
f 39/5/1 37/5/1 38/5/1
f 42/3/1 41/3/1 40/3/1
f 43/3/1 41/3/1 42/3/1
f 46/3/1 45/3/1 44/3/1
f 47/3/1 45/3/1 46/3/1
f 50/2/1 49/2/1 48/2/1
f 51/2/1 49/2/1 50/2/1
f 54/3/1 53/3/1 52/3/1
f 55/3/1 53/3/1 54/3/1
f 56/2/2 57/2/2 58/2/2
f 58/2/2 57/2/2 59/2/2
f 60/3/2 61/3/2 62/3/2
f 62/3/2 61/3/2 63/3/2
f 64/5/2 65/5/2 66/5/2
f 66/5/2 65/5/2 67/5/2
f 68/3/2 69/3/2 70/3/2
f 70/3/2 69/3/2 71/3/2
f 72/2/2 73/2/2 75/2/2
f 75/2/2 73/2/2 76/2/2
f 76/8/2 77/8/2 78/8/2
f 74/8/2 75/8/2 80/8/2
f 80/8/2 75/8/2 81/8/2
f 76/8/2 78/8/2 82/8/2
f 78/3/2 79/3/2 83/3/2
f 82/8/2 78/8/2 83/8/2
f 83/3/2 79/3/2 84/3/2
f 84/3/2 79/3/2 85/3/2
f 86/3/2 87/3/2 88/3/2
f 88/3/2 87/3/2 89/3/2
f 89/3/2 90/3/2 91/3/2
f 91/3/2 90/3/2 92/3/2
f 93/8/2 94/8/2 95/8/2
f 95/8/2 94/8/2 96/8/2
f 97/5/2 98/5/2 100/5/2
f 98/3/2 99/3/2 101/3/2
f 100/5/2 98/5/2 101/5/2
f 97/5/2 100/5/2 102/5/2
f 100/3/2 101/3/2 103/3/2
f 102/5/2 100/5/2 103/5/2
f 102/3/2 103/3/2 104/3/2
f 101/3/2 99/3/2 105/3/2
f 104/3/2 103/3/2 105/3/2
f 103/3/2 101/3/2 105/3/2
f 109/3/3 107/3/3 106/3/3
f 110/3/3 109/3/3 108/3/3
f 111/3/3 107/3/3 109/3/3
f 111/3/3 109/3/3 110/3/3
f 117/5/3 113/5/3 112/5/3
f 118/5/3 113/5/3 117/5/3
f 119/3/3 114/3/3 113/3/3
f 119/5/3 113/5/3 118/5/3
f 120/3/3 114/3/3 119/3/3
f 121/3/3 114/3/3 120/3/3
f 123/10/3 118/10/3 117/10/3
f 123/5/3 117/5/3 112/5/3
f 124/5/3 119/5/3 118/5/3
f 124/10/3 118/10/3 123/10/3
f 124/5/3 120/5/3 119/5/3
f 125/3/3 122/3/3 121/3/3
f 125/5/3 120/5/3 124/5/3
f 125/3/3 121/3/3 120/3/3
f 126/3/3 122/3/3 125/3/3
f 127/5/3 124/5/3 123/5/3
f 127/5/3 123/5/3 112/5/3
f 127/5/3 125/5/3 124/5/3
f 128/5/3 125/5/3 127/5/3
f 129/5/3 125/5/3 128/5/3
f 130/5/3 125/5/3 129/5/3
f 131/8/3 116/8/3 115/8/3
f 132/8/3 116/8/3 131/8/3
f 133/5/3 127/5/3 112/5/3
f 133/10/3 128/10/3 127/10/3
f 134/5/3 129/5/3 128/5/3
f 134/10/3 128/10/3 133/10/3
f 135/5/3 129/5/3 134/5/3
f 136/3/3 122/3/3 126/3/3
f 137/3/3 122/3/3 136/3/3
f 138/5/3 135/5/3 134/5/3
f 138/5/3 134/5/3 133/5/3
f 138/5/3 133/5/3 112/5/3
f 139/3/3 136/3/3 135/3/3
f 139/5/3 135/5/3 138/5/3
f 140/3/3 136/3/3 139/3/3
f 144/8/3 142/8/3 141/8/3
f 145/8/3 142/8/3 144/8/3
f 146/2/3 144/2/3 143/2/3
f 147/2/3 144/2/3 146/2/3
f 152/5/3 149/5/3 148/5/3
f 153/5/3 149/5/3 152/5/3
f 154/2/3 151/2/3 150/2/3
f 155/2/3 151/2/3 154/2/3
f 157/8/3 156/8/3 155/8/3
f 158/8/3 156/8/3 157/8/3
f 161/3/3 160/3/3 159/3/3
f 162/3/3 160/3/3 161/3/3
f 165/3/3 164/3/3 163/3/3
f 166/3/3 164/3/3 165/3/3
f 167/8/4 168/8/4 170/8/4
f 170/8/4 168/8/4 171/8/4
f 169/2/4 170/2/4 172/2/4
f 172/2/4 170/2/4 173/2/4
f 174/2/4 175/2/4 176/2/4
f 176/2/4 175/2/4 177/2/4
f 177/8/4 178/8/4 179/8/4
f 179/8/4 178/8/4 180/8/4
f 181/8/4 182/8/4 185/8/4
f 185/8/4 182/8/4 186/8/4
f 183/3/4 184/3/4 187/3/4
f 187/3/4 184/3/4 188/3/4
f 181/8/4 185/8/4 189/8/4
f 181/8/4 189/8/4 193/8/4
f 189/8/4 190/8/4 193/8/4
f 193/8/4 190/8/4 194/8/4
f 191/3/4 192/3/4 195/3/4
f 195/3/4 192/3/4 196/3/4
f 197/3/4 198/3/4 200/3/4
f 199/3/4 200/3/4 202/3/4
f 200/3/4 198/3/4 203/3/4
f 202/3/4 200/3/4 203/3/4
f 201/3/4 202/3/4 205/3/4
f 203/3/4 204/3/4 205/3/4
f 202/3/4 203/3/4 205/3/4
f 205/3/4 204/3/4 206/3/4
f 206/3/4 204/3/4 207/3/4
f 207/3/4 204/3/4 208/3/4
f 206/3/4 207/3/4 209/3/4
f 209/3/4 207/3/4 210/3/4
f 210/3/4 207/3/4 211/3/4
f 211/3/4 207/3/4 212/3/4
f 217/2/5 214/2/5 213/2/5
f 218/2/5 214/2/5 217/2/5
f 219/2/5 216/2/5 215/2/5
f 220/2/5 216/2/5 219/2/5
f 224/8/5 222/8/5 221/8/5
f 225/8/5 222/8/5 224/8/5
f 226/8/5 222/8/5 225/8/5
f 227/8/5 222/8/5 226/8/5
f 229/8/5 224/8/5 223/8/5
f 230/8/5 224/8/5 229/8/5
f 231/8/5 226/8/5 225/8/5
f 232/8/5 226/8/5 231/8/5
f 233/8/5 228/8/5 227/8/5
f 234/8/5 228/8/5 233/8/5
f 235/8/5 232/8/5 231/8/5
f 235/8/5 233/8/5 232/8/5
f 235/8/5 231/8/5 230/8/5
f 236/8/5 233/8/5 235/8/5
f 239/3/5 238/3/5 237/3/5
f 240/3/5 238/3/5 239/3/5
f 245/3/5 242/3/5 241/3/5
f 246/3/5 242/3/5 245/3/5
f 247/3/5 244/3/5 243/3/5
f 248/3/5 244/3/5 247/3/5
f 251/5/5 250/5/5 249/5/5
f 252/5/5 250/5/5 251/5/5
f 253/5/5 251/5/5 249/5/5
f 254/5/5 251/5/5 253/5/5
f 255/5/5 251/5/5 254/5/5
f 256/5/5 250/5/5 252/5/5
f 257/5/5 250/5/5 256/5/5
f 258/5/5 250/5/5 257/5/5
f 259/3/5 254/3/5 253/3/5
f 260/3/5 254/3/5 259/3/5
f 261/3/5 258/3/5 257/3/5
f 262/3/5 258/3/5 261/3/5
f 265/3/5 264/3/5 263/3/5
f 266/3/5 264/3/5 265/3/5
f 269/3/5 268/3/5 267/3/5
f 270/3/5 268/3/5 269/3/5
f 271/8/6 272/8/6 274/8/6
f 274/8/6 272/8/6 275/8/6
f 275/8/6 272/8/6 276/8/6
f 276/8/6 272/8/6 277/8/6
f 273/8/6 274/8/6 279/8/6
f 274/8/6 275/8/6 279/8/6
f 279/8/6 275/8/6 280/8/6
f 277/8/6 278/8/6 281/8/6
f 276/8/6 277/8/6 281/8/6
f 281/8/6 278/8/6 282/8/6
f 280/8/6 275/8/6 283/8/6
f 283/8/6 275/8/6 284/8/6
f 276/8/6 281/8/6 285/8/6
f 285/8/6 281/8/6 286/8/6
f 287/3/6 288/3/6 291/3/6
f 291/3/6 288/3/6 292/3/6
f 289/3/6 290/3/6 294/3/6
f 292/3/6 293/3/6 297/3/6
f 294/3/6 295/3/6 298/3/6
f 289/3/6 294/3/6 298/3/6
f 298/3/6 295/3/6 299/3/6
f 296/3/6 297/3/6 300/3/6
f 297/3/6 293/3/6 301/3/6
f 300/3/6 297/3/6 301/3/6
f 302/3/6 303/3/6 304/3/6
f 304/3/6 303/3/6 305/3/6
f 305/3/6 303/3/6 306/3/6
f 306/3/6 303/3/6 307/3/6
f 305/3/6 306/3/6 308/3/6
f 308/3/6 306/3/6 309/3/6
