# MagicaVoxel @ Ephtracy

# group
g man003

# material
mtllib man003.mtl
usemtl palette

# normals
vn -1 0 0
vn 1 0 0
vn 0 0 1
vn 0 0 -1
vn 0 -1 0
vn 0 1 0

# texcoords
vt 0.0683594 0.5
vt 0.146484 0.5
vt 0.248047 0.5
vt 0.396484 0.5
vt 0.556641 0.5
vt 0.568359 0.5
vt 0.583984 0.5
vt 0.994141 0.5

# verts
v 1 3 -4
v 1 3 -5
v 1 6 -4
v 1 6 -5
v 1 7 -3
v 1 7 -6
v 1 7 -7
v 1 8 -5
v 1 8 -6
v 1 9 -4
v 1 9 -5
v 1 10 -3
v 1 10 -4
v 1 12 -3
v 1 12 -7
v 2 0 -4
v 2 0 -5
v 2 3 -3
v 2 3 -4
v 2 3 -5
v 2 3 -6
v 2 6 -3
v 2 6 -4
v 2 6 -5
v 2 6 -6
v 3 6 -4
v 3 6 -6
v 3 7 -4
v 3 7 -6
v 5 0 -4
v 5 0 -5
v 5 3 -4
v 5 3 -5
v 3 0 -4
v 3 0 -5
v 3 3 -4
v 3 3 -5
v 5 6 -4
v 5 6 -6
v 5 7 -4
v 5 7 -6
v 6 0 -4
v 6 0 -5
v 6 3 -3
v 6 3 -4
v 6 3 -5
v 6 3 -6
v 6 6 -3
v 6 6 -4
v 6 6 -5
v 6 6 -6
v 7 3 -4
v 7 3 -5
v 7 6 -4
v 7 6 -5
v 7 7 -3
v 7 7 -6
v 7 7 -7
v 7 8 -5
v 7 8 -6
v 7 9 -4
v 7 9 -5
v 7 10 -3
v 7 10 -4
v 7 12 -3
v 7 12 -7
v 1 7 -3
v 1 10 -3
v 1 12 -3
v 2 3 -3
v 2 6 -3
v 2 8 -3
v 2 9 -3
v 2 10 -3
v 2 11 -3
v 3 8 -3
v 3 9 -3
v 3 10 -3
v 4 9 -3
v 4 10 -3
v 4 11 -3
v 5 8 -3
v 5 9 -3
v 5 10 -3
v 5 11 -3
v 6 3 -3
v 6 6 -3
v 6 8 -3
v 6 9 -3
v 6 10 -3
v 6 11 -3
v 7 7 -3
v 7 10 -3
v 7 12 -3
v 1 3 -4
v 1 6 -4
v 2 0 -4
v 2 3 -4
v 2 6 -4
v 3 0 -4
v 3 3 -4
v 3 6 -4
v 3 7 -4
v 5 0 -4
v 5 3 -4
v 5 6 -4
v 5 7 -4
v 6 0 -4
v 6 3 -4
v 6 6 -4
v 7 3 -4
v 7 6 -4
v 1 3 -5
v 1 6 -5
v 2 0 -5
v 2 3 -5
v 2 6 -5
v 3 0 -5
v 3 3 -5
v 5 0 -5
v 5 3 -5
v 6 0 -5
v 6 3 -5
v 6 6 -5
v 7 3 -5
v 7 6 -5
v 2 3 -6
v 2 6 -6
v 3 6 -6
v 3 7 -6
v 5 6 -6
v 5 7 -6
v 6 3 -6
v 6 6 -6
v 1 7 -7
v 1 12 -7
v 7 7 -7
v 7 12 -7
v 2 0 -4
v 3 0 -4
v 5 0 -4
v 6 0 -4
v 2 0 -5
v 3 0 -5
v 5 0 -5
v 6 0 -5
v 2 3 -3
v 6 3 -3
v 1 3 -4
v 2 3 -4
v 3 3 -4
v 5 3 -4
v 6 3 -4
v 7 3 -4
v 1 3 -5
v 2 3 -5
v 3 3 -5
v 5 3 -5
v 6 3 -5
v 7 3 -5
v 2 3 -6
v 6 3 -6
v 1 7 -3
v 7 7 -3
v 3 7 -4
v 5 7 -4
v 1 7 -6
v 3 7 -6
v 5 7 -6
v 7 7 -6
v 1 7 -7
v 7 7 -7
v 2 6 -3
v 6 6 -3
v 1 6 -4
v 2 6 -4
v 3 6 -4
v 5 6 -4
v 6 6 -4
v 7 6 -4
v 1 6 -5
v 2 6 -5
v 6 6 -5
v 7 6 -5
v 2 6 -6
v 3 6 -6
v 5 6 -6
v 6 6 -6
v 1 12 -3
v 7 12 -3
v 1 12 -7
v 7 12 -7

# faces
f 3/2/1 2/2/1 1/2/1
f 4/2/1 2/2/1 3/2/1
f 8/3/1 6/3/1 5/3/1
f 9/4/1 7/4/1 6/4/1
f 9/3/1 6/3/1 8/3/1
f 10/3/1 8/3/1 5/3/1
f 11/4/1 9/4/1 8/4/1
f 11/3/1 8/3/1 10/3/1
f 12/3/1 10/3/1 5/3/1
f 13/4/1 11/4/1 10/4/1
f 13/3/1 10/3/1 12/3/1
f 14/4/1 13/4/1 12/4/1
f 15/4/1 7/4/1 9/4/1
f 15/4/1 13/4/1 14/4/1
f 15/4/1 9/4/1 11/4/1
f 15/4/1 11/4/1 13/4/1
f 19/7/1 17/7/1 16/7/1
f 20/7/1 17/7/1 19/7/1
f 22/2/1 19/2/1 18/2/1
f 23/2/1 19/2/1 22/2/1
f 24/2/1 21/2/1 20/2/1
f 25/2/1 21/2/1 24/2/1
f 28/3/1 27/3/1 26/3/1
f 29/3/1 27/3/1 28/3/1
f 32/7/1 31/7/1 30/7/1
f 33/7/1 31/7/1 32/7/1
f 34/7/2 35/7/2 36/7/2
f 36/7/2 35/7/2 37/7/2
f 38/3/2 39/3/2 40/3/2
f 40/3/2 39/3/2 41/3/2
f 42/7/2 43/7/2 45/7/2
f 45/7/2 43/7/2 46/7/2
f 44/2/2 45/2/2 48/2/2
f 48/2/2 45/2/2 49/2/2
f 46/2/2 47/2/2 50/2/2
f 50/2/2 47/2/2 51/2/2
f 52/2/2 53/2/2 54/2/2
f 54/2/2 53/2/2 55/2/2
f 56/3/2 57/3/2 59/3/2
f 57/4/2 58/4/2 60/4/2
f 59/3/2 57/3/2 60/3/2
f 56/3/2 59/3/2 61/3/2
f 59/4/2 60/4/2 62/4/2
f 61/3/2 59/3/2 62/3/2
f 56/3/2 61/3/2 63/3/2
f 61/4/2 62/4/2 64/4/2
f 63/3/2 61/3/2 64/3/2
f 63/4/2 64/4/2 65/4/2
f 60/4/2 58/4/2 66/4/2
f 65/4/2 64/4/2 66/4/2
f 62/4/2 60/4/2 66/4/2
f 64/4/2 62/4/2 66/4/2
f 72/3/3 68/3/3 67/3/3
f 73/3/3 68/3/3 72/3/3
f 74/4/3 69/4/3 68/4/3
f 74/3/3 68/3/3 73/3/3
f 75/4/3 69/4/3 74/4/3
f 76/8/3 73/8/3 72/8/3
f 76/3/3 72/3/3 67/3/3
f 77/3/3 75/3/3 74/3/3
f 77/8/3 73/8/3 76/8/3
f 77/3/3 74/3/3 73/3/3
f 78/3/3 75/3/3 77/3/3
f 79/3/3 77/3/3 76/3/3
f 79/4/3 78/4/3 77/4/3
f 80/3/3 75/3/3 78/3/3
f 80/4/3 78/4/3 79/4/3
f 81/4/3 69/4/3 75/4/3
f 81/3/3 75/3/3 80/3/3
f 82/3/3 80/3/3 79/3/3
f 82/3/3 76/3/3 67/3/3
f 82/3/3 79/3/3 76/3/3
f 83/3/3 80/3/3 82/3/3
f 84/4/3 81/4/3 80/4/3
f 84/3/3 80/3/3 83/3/3
f 85/4/3 69/4/3 81/4/3
f 85/4/3 81/4/3 84/4/3
f 86/2/3 71/2/3 70/2/3
f 87/2/3 71/2/3 86/2/3
f 88/8/3 83/8/3 82/8/3
f 88/3/3 82/3/3 67/3/3
f 89/3/3 84/3/3 83/3/3
f 89/8/3 83/8/3 88/8/3
f 89/3/3 85/3/3 84/3/3
f 90/3/3 85/3/3 89/3/3
f 91/4/3 69/4/3 85/4/3
f 91/3/3 85/3/3 90/3/3
f 92/3/3 90/3/3 89/3/3
f 92/3/3 88/3/3 67/3/3
f 92/3/3 89/3/3 88/3/3
f 93/4/3 91/4/3 90/4/3
f 93/3/3 90/3/3 92/3/3
f 94/4/3 69/4/3 91/4/3
f 94/4/3 91/4/3 93/4/3
f 98/2/3 96/2/3 95/2/3
f 99/2/3 96/2/3 98/2/3
f 100/7/3 98/7/3 97/7/3
f 101/7/3 98/7/3 100/7/3
f 106/3/3 103/3/3 102/3/3
f 107/3/3 103/3/3 106/3/3
f 108/7/3 105/7/3 104/7/3
f 109/7/3 105/7/3 108/7/3
f 111/2/3 110/2/3 109/2/3
f 112/2/3 110/2/3 111/2/3
f 113/2/4 114/2/4 116/2/4
f 116/2/4 114/2/4 117/2/4
f 115/7/4 116/7/4 118/7/4
f 118/7/4 116/7/4 119/7/4
f 120/7/4 121/7/4 122/7/4
f 122/7/4 121/7/4 123/7/4
f 123/2/4 124/2/4 125/2/4
f 125/2/4 124/2/4 126/2/4
f 127/2/4 128/2/4 129/2/4
f 127/2/4 129/2/4 131/2/4
f 129/3/4 130/3/4 131/3/4
f 131/3/4 130/3/4 132/3/4
f 127/2/4 131/2/4 133/2/4
f 133/2/4 131/2/4 134/2/4
f 135/4/4 136/4/4 137/4/4
f 137/4/4 136/4/4 138/4/4
f 143/7/5 140/7/5 139/7/5
f 144/7/5 140/7/5 143/7/5
f 145/7/5 142/7/5 141/7/5
f 146/7/5 142/7/5 145/7/5
f 150/2/5 148/2/5 147/2/5
f 151/2/5 148/2/5 150/2/5
f 152/2/5 148/2/5 151/2/5
f 153/2/5 148/2/5 152/2/5
f 155/2/5 150/2/5 149/2/5
f 156/2/5 150/2/5 155/2/5
f 157/5/5 152/5/5 151/5/5
f 158/5/5 152/5/5 157/5/5
f 159/2/5 154/2/5 153/2/5
f 160/2/5 154/2/5 159/2/5
f 161/2/5 158/2/5 157/2/5
f 161/2/5 159/2/5 158/2/5
f 161/2/5 157/2/5 156/2/5
f 162/2/5 159/2/5 161/2/5
f 165/3/5 164/3/5 163/3/5
f 166/3/5 164/3/5 165/3/5
f 167/3/5 165/3/5 163/3/5
f 168/3/5 165/3/5 167/3/5
f 169/3/5 164/3/5 166/3/5
f 170/3/5 164/3/5 169/3/5
f 171/4/5 168/4/5 167/4/5
f 171/4/5 169/4/5 168/4/5
f 171/4/5 170/4/5 169/4/5
f 172/4/5 170/4/5 171/4/5
f 173/2/6 174/2/6 176/2/6
f 176/2/6 174/2/6 177/2/6
f 177/2/6 174/2/6 178/2/6
f 178/2/6 174/2/6 179/2/6
f 175/2/6 176/2/6 181/2/6
f 176/2/6 177/2/6 181/2/6
f 181/2/6 177/2/6 182/2/6
f 179/2/6 180/2/6 183/2/6
f 178/2/6 179/2/6 183/2/6
f 183/2/6 180/2/6 184/2/6
f 182/2/6 177/2/6 185/2/6
f 185/2/6 177/2/6 186/2/6
f 178/2/6 183/2/6 187/2/6
f 187/2/6 183/2/6 188/2/6
f 189/4/6 190/4/6 191/4/6
f 191/4/6 190/4/6 192/4/6
